<svg width="24" height="24" viewBox="0 0 24 24" fill="none" xmlns="http://www.w3.org/2000/svg">
<g clip-path="url(#clip0_1328_1973)">
<path fill-rule="evenodd" clip-rule="evenodd" d="M21.9971 3V11H14.9971V8V6V3H21.9971ZM8.99707 6V8V11H1.99707V3H8.99707V6ZM14.9971 18V21H21.9971V13H14.9971V16V18ZM3.99707 9H6.99707V5H3.99707V9ZM19.9971 15H16.9971V19H19.9971V15ZM19.9971 5H16.9971V9H19.9971V5Z" fill="#1B83F2"/>
<path d="M14.9971 6H8.99707V8H10.9971V18H14.9971V16H12.9971V8H14.9971V6Z" fill="#1B83F2"/>
<path fill-rule="evenodd" clip-rule="evenodd" d="M22 3V11H15V8V6V3H22ZM9 6V8V11H2V3H9V6ZM15 18V21H22V13H15V16V18ZM4 9H7V5H4V9ZM20 15H17V19H20V15ZM20 5H17V9H20V5Z" fill="#1B83F2"/>
</g>
<defs>
<clipPath id="clip0_1328_1973">
<rect width="24" height="24" fill="white"/>
</clipPath>
</defs>
</svg>
