<svg width="548" height="548" viewBox="0 0 548 548" fill="none" xmlns="http://www.w3.org/2000/svg">
<g opacity="0.02">
<path d="M336.107 200.705L238.152 298.888L200.477 261.213C198.43 258.823 195.911 256.882 193.078 255.511C190.245 254.141 187.16 253.371 184.015 253.249C180.87 253.128 177.735 253.658 174.805 254.805C171.874 255.953 169.213 257.695 166.988 259.92C164.763 262.145 163.022 264.806 161.874 267.736C160.726 270.666 160.196 273.802 160.317 276.947C160.439 280.091 161.209 283.177 162.58 286.01C163.95 288.842 165.891 291.361 168.282 293.408L221.94 347.295C224.073 349.411 226.604 351.086 229.386 352.222C232.168 353.358 235.147 353.934 238.152 353.917C244.142 353.891 249.882 351.513 254.135 347.295L368.302 233.128C370.442 231.006 372.14 228.48 373.3 225.698C374.459 222.915 375.056 219.931 375.056 216.917C375.056 213.902 374.459 210.918 373.3 208.136C372.14 205.353 370.442 202.828 368.302 200.705C364.023 196.452 358.236 194.065 352.204 194.065C346.172 194.065 340.385 196.452 336.107 200.705ZM274 45.6667C228.84 45.6667 184.694 59.0582 147.145 84.1478C109.596 109.237 80.3295 144.898 63.0474 186.621C45.7654 228.343 41.2437 274.253 50.054 318.546C58.8643 362.838 80.6109 403.523 112.544 435.456C144.477 467.389 185.162 489.136 229.454 497.946C273.747 506.756 319.657 502.235 361.379 484.953C403.102 467.671 438.763 438.404 463.852 400.855C488.942 363.306 502.333 319.16 502.333 274C502.333 244.015 496.427 214.323 484.952 186.621C473.478 158.918 456.659 133.747 435.456 112.544C414.253 91.3413 389.082 74.5224 361.379 63.0475C333.677 51.5727 303.985 45.6667 274 45.6667V45.6667ZM274 456.667C237.872 456.667 202.555 445.953 172.516 425.882C142.476 405.81 119.064 377.282 105.238 343.904C91.4123 310.526 87.7949 273.797 94.8432 238.364C101.891 202.93 119.289 170.382 144.835 144.835C170.381 119.289 202.93 101.891 238.363 94.8432C273.797 87.795 310.525 91.4124 343.903 105.238C377.281 119.064 405.81 142.476 425.882 172.516C445.953 202.555 456.667 237.872 456.667 274C456.667 322.446 437.421 368.908 403.165 403.165C368.908 437.422 322.446 456.667 274 456.667V456.667Z" fill="black"/>
</g>
</svg>
