<svg width="224" height="233" viewBox="0 0 224 233" fill="none" xmlns="http://www.w3.org/2000/svg">
<g id="g3248">
<path id="Aegypten" d="M136.737 49.9086L162.515 49.157L163.345 49.9589L165.047 49.749L165.223 48.3455L167.111 47.8361L167.51 46.1083L168.339 46.375L169.382 45.3121L168.818 42.5908L169.72 42.6219L167.525 40.7134L161.507 31.0006L161.48 29.8217C160.056 28.9095 159.002 27.7556 158.366 26.3299L158.31 25.4247L157.402 24.7789L157.639 23.3424L160.337 26.8655C160.578 27.1372 160.307 27.3327 160.525 27.6275C161.23 28.5816 162.444 29.5439 163.16 30.1027C163.525 29.9826 163.954 30.0677 164.135 29.3473L164.839 24.7718L161.675 18.4738C159.539 19.9344 157.403 20.5182 155.267 18.344L152.656 18.5394C152.059 18.79 151.424 19.1717 151.08 18.5598L146.868 20.9648L139.892 19.4463C138.844 19.2358 137.726 18.8891 136.861 19.0368C135.973 19.5658 135.342 19.157 134.711 18.7463C134.352 19.3557 133.973 19.9721 134.318 20.3319L134.6 22.8137C133.982 23.7861 133.413 24.7829 135.364 27.0731L136.737 49.9086Z" fill="#92CEEF" stroke="white" stroke-width="0.2" stroke-linecap="round"/>
<g id="Aequatorialguinea">
<path id="path64" d="M92.7366 117.345L87.4362 117.596L86.376 116.917L87.9663 113.935L92.7001 113.881L92.7366 117.345Z" fill="#92CEEF" stroke="white" stroke-width="0.2" stroke-linecap="round"/>
<path id="path66" d="M78.1082 120.063C78.1084 120.373 77.8513 120.624 77.5339 120.624C77.2165 120.624 76.9593 120.373 76.9595 120.063C76.9593 119.752 77.2165 119.501 77.5339 119.501C77.8513 119.501 78.1084 119.752 78.1082 120.063Z" fill="#92CEEF" stroke="white" stroke-width="0.2" stroke-linecap="round"/>
<path id="path68" d="M80.3352 115.596C80.3352 115.843 80.1305 116.043 79.8782 116.043C79.6256 116.043 79.4209 115.843 79.4209 115.596C79.4209 115.349 79.6256 115.149 79.8782 115.149C80.1305 115.149 80.3352 115.349 80.3352 115.596Z" fill="#92CEEF" stroke="white" stroke-width="0.2" stroke-linecap="round"/>
</g>
<path id="Aethopien" d="M213.601 93.7041L204.186 104.202L200.507 104.137C200.053 104.261 198.351 105.284 197.373 106.125C196.571 106.815 195.335 107.217 194.071 107.78C193.321 107.784 192.41 108.05 191.885 107.687C190.654 106.521 189.245 107.092 187.851 107.517C187.39 108.346 186.762 109.01 185.714 109.266L180.682 108.501C179.543 107.556 178.288 106.68 176.73 105.981L173.933 105.792L173.935 103.571L171.736 102.785L170.146 99.2371L167.864 97.4538C168.29 96.7883 167.173 96.2386 166.605 95.6476C165.833 95.8176 165.06 95.6636 164.288 95.2579L164.968 94.4597L164.926 93.4326L166.931 93.4681C167.369 93.1995 167.853 93.0968 168.173 92.4081L168.116 86.6522L169.07 85.1863L170.073 85.2222L170.53 82.7661C171.737 81.3155 172.164 79.5442 174.155 78.4161L174.677 74.1582L176.272 74.1133L176.493 73.6064L177.267 73.6196L177.93 74.6968L178.885 72.2214C179.516 72.618 180.34 72.6333 180.71 73.5055L182.319 73.1978L182.591 72.6946L182.88 72.6342L183.268 73.303C183.778 73.0064 184.412 72.6905 185.231 73.2083C185.468 73.3072 185.744 73.3589 186.354 73.0121C186.999 73.3524 187.39 74.0467 188.303 74.0128C190.364 75.7711 192.361 77.6 194.13 79.685C193.97 79.8322 193.898 80.3889 193.781 81.6462L193.018 82.9837C192.403 83.9702 193.147 84.8403 194.318 84.4305L195.346 84.0444L196.378 84.4572C195.132 85.8608 198.098 88.3044 200.772 90.745L210.424 93.7583L213.602 93.7041H213.601Z" fill="#92CEEF" stroke="white" stroke-width="0.2" stroke-linecap="round"/>
<path id="Algerien" d="M34.0921 25.6604L37.223 24.1363L37.8695 24.3621L38.9419 23.4517L40.7424 23.613L40.8399 22.7998C44.5665 22.9778 45.3402 22.0039 45.9982 21.0277L49.1184 19.7715L50.2704 19.8069L49.6672 19.027L49.826 18.4106L49.8008 17.3899C51.0211 17.2338 52.5258 17.4252 52.535 16.178L57.583 16.2465L58.2837 14.8281C57.316 14.4812 57.143 13.1141 57.2725 11.6614C57.3688 10.5829 57.2815 8.12891 57.2815 8.12891C56.9474 7.73518 56.5314 7.36436 56.4351 6.79868C56.705 6.6815 57.9719 6.88437 58.7411 5.87783C59.1374 5.3589 59.6439 4.3119 60.3051 4.5163C61.0768 4.75524 62.5555 4.90602 62.6459 4.42736C62.7426 3.91531 64.1753 2.78853 66.2442 2.79521C70.0337 2.80723 74.9298 1.39857 76.5297 1.85642C78.1294 2.31427 80.2131 1.24799 81.1382 1.306C82.0697 1.3644 82.3506 2.35721 83.6214 1.5125C84.0964 1.19684 85.8116 2.50989 87.4462 2.04479C87.4462 2.04479 86.4702 2.46828 86.4151 3.44735C86.3303 4.95526 86.1874 9.64884 86.1874 9.64884C86.0251 9.3952 84.8633 9.58548 84.6804 10.3516C84.4322 11.3925 83.2333 11.1232 83.1381 11.6491C82.9467 12.7076 83.8919 13.6798 85.0055 14.6293C85.2908 14.8726 84.9004 16.2208 85.183 16.4674C86.0454 17.2191 87.574 17.731 87.574 17.731C87.9289 21.1802 88.5575 23.5622 88.5575 23.5622C86.9398 23.668 87.8043 25.135 88.8936 26.7011L88.9616 35.673C88.9616 35.673 87.5004 35.9625 87.6011 36.3305C87.8277 37.1567 87.8809 37.7674 88.9485 38.6963C89.6341 39.2923 89.6468 40.2981 89.5876 40.9586C89.5194 41.7209 90.3066 42.0663 90.5123 42.0614C92.1155 42.0236 93.4707 41.2611 94.9896 45.3526L75.7835 57.6849C72.9331 58.8844 68.2383 59.602 68.0767 59.5326C67.006 59.0724 68.2471 57.9205 67.8879 57.15C67.5283 56.3784 67.0946 55.7982 65.8742 55.9274C65.225 55.9961 64.8843 55.1802 64.6273 55.2218C63.5881 55.39 63.3235 54.2363 63.0938 54.0311C62.1824 53.2164 61.2774 52.9795 61.4847 52.239L33.4175 31.3338L34.0921 25.6604Z" fill="#92CEEF" stroke="white" stroke-width="0.2" stroke-linecap="round"/>
<g id="Angola">
<path id="path73" d="M94.2817 176.412C94.9829 176.23 95.7414 175.321 96.3705 176.051C96.9954 175.296 98.7305 173.802 101.535 176.6L115.628 176.411L117.137 177.697L126.02 178.82L131.639 177.584L127.841 174.272L128.132 162.543L134.909 162.74L134.172 161.972L134.97 155.77C134.879 155.792 134.774 155.747 134.686 155.778C133.052 156.36 131.315 156.225 129.563 156.259L128.954 157.426L127.843 156.512L129.082 154.899L127.409 151.589L127.154 144.159L124.259 144.36L124.26 143.018L122.974 142.834L122.636 143.431L120.272 143.312L119.374 146.675C118.2 146.469 117.116 146.187 115.358 147.055C113.805 146.567 112.398 147.704 110.2 140.083L109.368 139.598L100.465 139.458L96.4139 140.816C97.4284 143.667 99.5711 145.287 99.4987 149.504L98.8022 150.156C99.3772 152.061 99.8901 154.052 101.17 154.962C101.296 155.495 101.02 155.882 100.984 156.283C100.853 157.748 100.065 161.902 99.7186 161.162C99.7186 161.162 98.291 161.466 98.1631 162.59C98.1007 163.137 97.4097 163.214 97.1528 163.888C96.4348 165.774 95.6781 168.765 95.1328 171.483C95.0695 171.798 94.6489 171.66 94.5972 171.96C94.4474 172.826 94.614 173.441 94.5583 174.36C94.5415 174.634 94.1843 174.174 94.1151 174.514C94.0301 174.934 94.3763 176.124 94.2817 176.412Z" fill="#92CEEF" stroke="white" stroke-width="0.2" stroke-linecap="round"/>
<path id="path75" d="M95.2959 137.133L96.8677 136.204C97.5259 134.694 98.0635 135.132 98.5858 135.811C97.9176 136.401 97.2238 136.97 97.1585 138.018C97.3163 139.47 96.6267 139.348 96.1368 139.597C95.9194 139.203 95.61 138.827 95.7176 138.369C95.7045 137.936 95.7108 137.5 95.2959 137.133Z" fill="#92CEEF" stroke="white" stroke-width="0.2" stroke-linecap="round"/>
</g>
<path id="Benin" d="M65.0275 100.377L62.0369 100.768L60.4922 88.9363C60.2947 88.0342 59.3781 87.6345 58.6782 87.0832L59.0491 85.1495L60.987 83.6589L63.0072 83.7395L64.4915 81.4031L67.831 81.9268L67.8517 84.5139C68.799 85.5085 68.6272 86.8433 67.9127 87.2616C67.9779 88.5073 67.7455 89.5402 66.8981 89.5123C66.385 90.8597 65.9473 92.4772 65.2162 93.0434L65.0275 100.377Z" fill="#92CEEF" stroke="white" stroke-width="0.2" stroke-linecap="round"/>
<path id="Botsuana" d="M137.42 177.857L135.344 178.996C133.294 179.008 133.168 180.186 132.4 180.82L131.823 179.234L124.063 179.898L123.62 191.643L120.442 191.57L120.228 200.047C121.096 201.088 122.269 202.222 122.857 202.98C123.429 203.719 123.063 205.161 122.507 206.509C124.045 207.144 125.536 207.175 127.017 206.799C127.237 206.229 127.538 205.817 127.938 205.596C128.579 205.236 129.108 204.777 129.305 204.026L131.239 202.45C132.43 202.552 133.347 203.014 134.277 203.68C136.248 203.707 137.42 203.356 138.238 202.95L138.621 201.175L149.968 192.314C148.539 191.3 147.826 191.531 147.011 191.344C146.189 191.157 145.175 189.73 145.448 187.277C144.661 187.126 144.158 186.697 143.725 186.199C143.232 185.391 142.586 185.469 142.013 185.128C141.123 183.92 139.488 182.368 139.362 181.435C139.301 180.983 139.057 181.007 138.71 180.503C138.31 179.922 137.782 178.57 137.42 177.857Z" fill="#92CEEF" stroke="white" stroke-width="0.2" stroke-linecap="round"/>
<path id="Burundi" d="M151.809 129.453L152.284 129.017L152.859 129.045L153.147 129.832L154.758 129.523L154.844 128.539L156.859 128.427C156.193 129.557 157.185 130.174 157.607 130.746C156.258 133.826 155.109 134.908 154.066 134.958C152.684 134.964 152.865 135.459 152.715 135.89C152.615 134.521 152.688 133.244 152.776 132.123C152.884 130.752 152.417 129.742 151.809 129.453Z" fill="#92CEEF" stroke="white" stroke-width="0.2" stroke-linecap="round"/>
<path id="Burkina_Faso" d="M47.5165 89.9529C46.8948 89.8707 46.6756 89.0542 46.167 88.5832C45.1644 87.6551 43.2707 88.3448 41.7606 89.2552C39.9216 88.3572 39.6724 87.5486 39.3335 86.8029C39.7015 85.8332 39.4509 84.5589 39.9499 83.5285C40.3955 82.608 41.1707 81.7561 42.5304 81.0255L44.1909 77.624C45.616 77.1636 46.9102 76.9884 48.0257 76.6045C49.0988 76.235 50.0651 75.6307 50.6532 74.8589C52.7792 73.576 55.4182 71.9311 57.0484 72.3382C57.0257 72.8607 57.0234 73.3793 57.3533 73.8331C57.9061 74.1999 57.7885 74.808 57.6756 75.4143L60.961 79.7302L62.2122 80.1367C62.3951 79.9329 63.2881 78.8553 63.7288 81.231L64.4737 81.3868L63.0363 83.7554L60.9999 83.6501L59.0398 85.1452L56.0888 84.8028C54.3924 84.7742 54.2371 85.0967 53.5146 85.2901L46.9653 85.1072L47.5165 89.9529Z" fill="#92CEEF" stroke="white" stroke-width="0.2" stroke-linecap="round"/>
<path id="Demokratische_Republik_Kongo" d="M117.501 109.309C116.93 110.973 116.249 112.153 115.537 113.964C114.604 116.338 114.811 119.997 114.336 123.235C111.868 124.328 111.086 126.081 109.823 127.645L108.838 132.249C107.056 133.953 105.399 136.142 103.252 136.42C103.122 133.852 100.844 135.086 100.594 136.097C99.5096 136.797 99.1557 136.07 98.5429 135.848C97.7593 136.399 97.1915 137.056 97.1837 137.986C97.294 139.471 96.6032 139.391 96.1035 139.684L96.3957 140.817L100.467 139.456L109.37 139.612L110.196 140.084C112.22 147.415 113.862 146.693 115.313 147.05C117.575 146.125 118.18 146.64 119.383 146.634L120.257 143.3L122.634 143.431L122.938 142.822L124.258 143.023L124.278 144.371L127.143 144.166L127.441 151.549L129.075 154.872L127.828 156.522L128.964 157.46L129.571 156.273L133.329 156.208L134.691 155.762L135.87 155.741L136.297 157.382L138.488 156.675C138.606 157.168 138.823 157.528 139.112 157.792C139.823 158.442 141.152 159.336 142.337 159.354C143.172 159.366 143.844 158.527 144.576 158.678C145.574 160.03 146.756 160.421 147.994 160.522C148.914 161.916 149.532 163.606 152.149 163.343L153.173 164.039L153.1 160.47C151.283 161.041 150.181 160.215 149.242 159.07C149.427 157.661 150.01 156.382 150.674 155.129C150.732 153.681 150.532 152.347 150.168 150.897C150.089 150.579 150.513 149.396 151.054 148.703L156.946 147.293C156.336 144.066 154.19 143.411 153.575 141.127C152.821 138.331 152.453 134.979 152.854 131.709C152.743 130.178 152.025 129.368 150.989 128.937L152.747 126.475L154.172 124.948L154.393 119.599L156.39 116.636L159.604 113.809L157.666 112.578L157.675 109.204L153.66 105.877C153.302 105.909 153.136 106.256 152.885 106.463C152.076 106.709 151.332 106.329 150.558 106.226C150.142 107.136 148.428 106.658 148.225 106.139C148.166 105.987 148.301 105.682 148.067 105.597C147.561 104.93 147.039 104.479 146.533 104.058L144.862 104.137L144.317 104.749L143.702 104.251L143.319 104.836L142.519 103.814L138.91 104.12L138.911 104.689L137.304 104.978L137.051 104.374L132.956 105.792C131.81 104.979 131.389 105.421 130.717 105.394L129.996 106.926C126.595 106.801 125.175 106.799 124.614 106.059C123.538 107.218 123.276 105.789 122.616 105.624C122.244 103.93 121.258 104.433 120.572 103.861C119.303 104.694 118.61 105.526 118.016 106.359C118.024 107.517 117.835 108.484 117.501 109.309Z" fill="#92CEEF" stroke="white" stroke-width="0.2" stroke-linecap="round"/>
<path id="Dschibuti" d="M195.993 78.3109L194.07 79.7129C193.737 80.6588 193.92 81.4203 193.648 81.8703C192.545 83.6931 192.685 83.8345 193.027 84.2385C193.488 84.783 194.704 84.3948 195.333 84.0309L196.338 84.4515L197.457 82.7972C196.768 82.2258 196.079 82.5215 195.391 82.4888C195.578 81.6647 196.525 81.4764 197.198 81.0588C197.695 79.5576 196.64 78.6002 195.993 78.3109Z" fill="#92CEEF" stroke="white" stroke-width="0.2" stroke-linecap="round"/>
<path id="Elfenbeinkueste" d="M30.928 106.496L32.1775 106.611L42.1089 103.865L45.6724 104.255L46.1885 102.192C46.0809 100.542 44.6472 98.8539 46.5864 97.2626C46.7667 96.0593 46.6668 94.7497 47.9935 93.9819L47.5401 89.9238C46.9942 89.9353 46.7663 89.3816 46.4801 88.9012C45.8441 87.8327 43.7114 87.9588 41.7407 89.2732C40.8024 88.6247 39.7091 88.1783 39.3419 86.7858C38.0252 86.3114 37 86.5692 36.1524 87.2744L36.3058 85.8862C36.0993 85.3585 35.358 85.5102 34.4861 85.828C34.2664 85.8522 34.4203 86.1894 34.6668 86.6036C34.3472 86.7217 34.0277 86.7389 33.7081 86.7984C33.4856 87.0658 33.1649 87.3492 32.8094 87.4219C31.9164 85.8929 31.3986 86.1807 30.3374 87.0212C29.9739 87.3093 29.736 88.0058 29.5873 88.6138C29.4201 89.299 29.7201 89.9603 30.4852 89.8645L30.4141 90.7874C30.9599 91.026 30.8423 91.1208 30.3343 91.6434C30.1047 91.8793 30.9779 92.9599 30.8741 93.2148L29.1975 92.8891C29.1527 93.1475 29.0937 93.519 29.0695 93.8044L29.8584 94.1343L29.2422 95.7373C29.3227 95.8629 28.497 95.7818 28.2943 95.8089L28.3066 96.8127C29.1633 97.0381 28.6953 98.9989 27.8911 99.318L29.0703 100.042C29.3299 99.8429 30.0583 100.017 30.5311 101.278C30.5311 101.278 31.707 101.999 31.6814 102.909C31.6611 103.63 31.1624 103.745 31.0275 104.304L30.928 106.496Z" fill="#92CEEF" stroke="white" stroke-width="0.2" stroke-linecap="round"/>
<path id="Eritrea" d="M178.919 72.2264C179.519 72.6276 180.119 72.5768 180.719 73.4952L182.313 73.1833L182.623 72.6949L182.886 72.6266L183.239 73.269C184.044 72.8522 184.77 72.835 185.281 73.2291C185.592 73.4692 186.051 73.1354 186.385 73.014C187.007 73.506 187.623 74.0454 188.297 74.0265C190.485 75.7932 192.371 77.7072 194.128 79.6846L196.022 78.3947C195.749 77.6881 195.387 77.0412 194.103 77.0106C194.04 76.4421 193.794 75.9371 192.977 75.6312C192.804 74.9481 192.203 74.9615 191.729 74.7672C191.33 73.6816 190.357 73.0869 189.558 72.343C188.658 72.5497 188.242 71.9668 187.816 71.4011L187.131 71.2706L186.641 71.5647C186.129 71.1532 185.989 70.5856 185.847 70.0194L185.113 69.8282L185.299 70.8217C184.855 71.0872 184.612 70.3709 184.381 69.5989L182.887 67.4794C181.913 63.0428 181.063 62.4991 180.192 61.2876C179.951 61.8395 179.91 62.5104 179.515 62.8113L177.317 63.9294C176.961 64.5321 176.412 64.7103 175.827 64.7044C175.004 68.5439 174.569 71.0221 174.608 74.1393L176.303 74.137L176.467 73.6013L177.25 73.6442L177.894 74.642L178.919 72.2264Z" fill="#92CEEF" stroke="white" stroke-width="0.2" stroke-linecap="round"/>
<path id="Gabun" d="M92.0437 132.989L86.163 127.043L84.7607 123.543L86.0532 122.331L86.4152 120.361L88.0694 120.715C88.1645 120.618 88.3131 120.547 88.2245 120.361L86.789 119.642L87.2422 117.633L92.749 117.357L92.7736 113.896H99.5975L99.0686 114.623L99.0074 116.882C99.6233 117.111 100.034 116.615 100.434 115.901C101.482 115.741 103.408 116.667 102.885 118.435C102.011 119.395 101.613 120.29 101.925 121.106C102.155 121.708 102.431 122.292 102.608 123.183L102.079 127.887L100.981 128.662C100.488 127.866 99.578 127.579 98.3052 127.735C97.9138 127.256 97.5296 126.645 96.7876 127.611L93.9413 129.322L94.1878 131.622L92.0437 132.989Z" fill="#92CEEF" stroke="white" stroke-width="0.2" stroke-linecap="round"/>
<path id="Gambia" d="M2.94116 74.9755H6.52559C7.29869 73.9664 8.43744 74.2968 9.7348 75.2077L11.8043 75.3575L12.2606 75.9307L10.7616 76.4401C9.73577 76.2259 8.81012 75.8402 7.95928 75.3264C7.35865 75.6744 6.67169 75.8822 5.80874 75.8032L5.4177 76.4401L2.30322 76.5674L2.94116 74.9755Z" fill="#92CEEF" stroke="white" stroke-width="0.2" stroke-linecap="round"/>
<path id="Ghana" d="M59.6666 101.4C59.3536 101.808 59.3148 102.661 58.4493 102.168C54.1513 102.677 52.4553 104.459 49.4584 105.604L45.6681 104.249L46.1842 102.186C46.0765 100.536 44.6429 98.8477 46.5821 97.2564C46.7623 96.0529 46.6625 94.7433 47.9892 93.9757L46.9817 85.0948L53.5269 85.2925C54.3978 84.8421 55.3249 84.775 56.2622 84.7786C55.7483 85.7819 56.0222 86.7369 57.2674 87.6326C58.2733 91.6408 58.1483 95.4912 58.4635 99.4031L59.6666 101.4Z" fill="#92CEEF" stroke="white" stroke-width="0.2" stroke-linecap="round"/>
<path id="Guinea" d="M7.26745 84.2056C7.15474 84.5488 7.18346 84.7188 7.63993 84.7196C7.82432 84.9356 8.47437 83.4105 8.37436 84.9495L8.95526 85.0102C8.75837 85.8651 9.35431 86.9149 9.92271 87.1044C10.6544 87.3483 11.0589 88.1759 11.4611 88.5412L12.4539 90.3264C13.1376 90.7815 14.0796 90.4506 15.5506 88.5123C15.3905 87.8663 16.3038 87.5222 19.0345 87.6894C21.2712 89.2641 21.9417 91.1012 21.1077 93.1903C22.1081 92.9542 22.6677 92.2877 24.3356 92.704C25.1671 93.7277 25.6818 94.8575 24.9904 96.3914C25.9113 96.7275 26.2436 97.7155 27.5294 96.0513C27.4417 95.6698 27.7593 95.5322 28.1636 95.8252C28.4084 96.0026 28.8174 95.7334 29.2034 95.8269L29.8827 94.1168L29.05 93.7884L29.2088 92.8899L30.9109 93.2281C30.7806 92.615 29.9325 91.8175 30.5609 91.3995C30.8423 91.1165 30.7122 90.8949 30.4265 90.697L30.4618 89.9134C28.8113 89.7204 29.7534 87.9362 30.323 87.0317L29.3114 86.1334L29.1952 84.1566L28.3611 84.7574L28.049 84.302L29.1629 83.3063L27.6589 82.1896C27.9074 81.4077 27.5722 80.4701 27.2995 79.4946L26.2405 79.2696C26.2569 79.7151 26.0988 80.0523 25.6338 80.1983C25.2367 80.0817 24.9933 80.3298 24.9032 80.9419L23.0264 80.1829L21.5362 81.2385C21.7251 80.7653 21.2413 80.4846 20.937 80.1319L20.1152 80.6712C19.4732 80.8823 19.3927 80.5451 19.4003 80.1214C19.5324 79.9838 19.6974 79.8785 19.7478 79.6613C17.4299 79.3095 15.002 79.4508 12.8829 78.2043L12.2184 78.2007L11.9297 81.714L10.1202 81.761C8.3519 82.3897 7.48133 83.9987 7.26745 84.2056Z" fill="#92CEEF" stroke="white" stroke-width="0.2" stroke-linecap="round"/>
<path id="Guinea-Bissau" d="M2.14307 79.0799L2.36261 79.6691C2.81694 79.9731 3.67227 79.3723 3.6209 80.8161C4.03421 81.027 4.54538 80.601 4.84189 81.5722C5.34895 81.8226 6.63322 79.4912 6.16815 82.9706L7.30827 84.1911C7.98429 83.1613 9.00058 82.129 10.0526 81.7604L11.9141 81.7161L12.2268 78.2123L7.42332 78.1963C6.44708 78.6601 5.44388 78.9141 4.38033 78.6944C3.70255 78.9313 2.99625 79.057 2.14307 79.0799Z" fill="#92CEEF" stroke="white" stroke-width="0.2" stroke-linecap="round"/>
<path id="Kamerun" d="M108.701 115.595C107.827 115.219 106.781 114.367 106.163 114.703L103.958 113.935L99.5463 113.895H92.619L87.9011 113.946L88.3799 110.41L87.1391 108.844L87.6044 108.289L87.2942 107.834L86.4672 108.087C85.4455 107.963 85.0796 107.256 84.84 106.437C84.2882 106.235 83.5162 106.308 83.5205 105.409C84.681 103.447 84.9331 100.767 87.1983 99.6759L87.2772 98.8108L90.5114 98.6612C91.7193 99.419 91.3336 100.29 93.3851 100.035C94.8053 97.5306 95.8355 92.9288 97.6854 92.7313C98.8054 90.0372 99.1378 86.2145 101.046 84.6493C101.986 84.3211 102.788 83.9313 103.136 83.3403C103.339 82.995 103.387 81.8789 103.218 81.3686C103.096 81.0016 102.863 81.2875 102.493 80.8106L101.938 78.7417L102.387 78.386L104.096 79.8002C104.338 80.9577 104.929 82.0307 104.814 83.2754C104.69 85.086 103.925 85.345 105.773 87.4107C106.088 87.9232 106.159 88.465 106.092 89.0242L102.648 88.6902C102.264 89.6086 101.413 91.6942 104.806 92.4303L106.406 97.1279L103.423 101.975L103.839 105.513C105.098 107.78 106.556 110.141 108.593 111.976L108.701 115.595Z" fill="#92CEEF" stroke="white" stroke-width="0.2" stroke-linecap="round"/>
<path id="Kenia" d="M193.203 126.153C192.774 126.808 192.304 127.413 191.36 127.44C191.009 128.35 190.555 129.18 189.387 129.459C188.1 131.73 187.122 134.339 185.515 136.257L181.02 133.315L180.314 130.755L166.62 122.353L171.127 115.621L171.223 111.848L169.675 110.601C169.483 109.145 169.134 107.83 167.908 107.3L169.502 105.938L173.958 105.742L176.73 105.973C177.68 106.453 178.185 106.47 180.699 108.518L185.746 109.259C186.552 108.988 187.3 108.586 187.861 107.49C189.08 107.318 190.372 106.288 191.954 107.757C192.472 107.937 193.301 107.861 194.122 107.744C193.181 109.214 192.191 110.4 191.208 111.626L191.291 123.862L193.203 126.153Z" fill="#92CEEF" stroke="white" stroke-width="0.2" stroke-linecap="round"/>
<path id="Libyen" d="M94.5349 14.4021C94.5349 14.4021 95.0228 16.2484 93.5637 17.2608C92.8297 17.7702 90.4299 19.4898 90.4299 19.4898C90.6335 20.5393 90.8846 23.1644 88.554 23.5221C86.9521 23.7677 87.7917 25.033 88.8628 26.7492L88.931 35.6855C88.931 35.6855 87.5057 35.9575 87.6067 36.3257C87.8333 37.1518 87.8503 37.745 88.9179 38.6737C89.6035 39.2697 89.6162 40.3461 89.557 41.0066C89.4889 41.7689 90.3665 42.0968 90.5721 42.092C92.1754 42.054 93.4405 41.3091 94.9592 45.4008L102.492 45.6275C103.37 45.809 104.299 47.1228 104.299 47.1228L108.614 45.9252L134.015 58.1969L133.969 56.2037C136.777 56.4272 137.1 56.1113 137.1 56.1113L135.364 27.116C134.344 25.7482 133.338 24.4072 134.565 22.8902C134.565 22.8902 134.573 21.2811 134.266 20.3685C133.946 19.4184 134.823 18.7726 134.823 18.7726C134.809 17.5433 132.394 17.6366 131.123 17.5729C129.456 17.4893 128.336 17.266 128.626 16.0455C128.626 16.0455 124.267 14.5162 122.58 15.5245C121.683 16.0602 119.794 16.916 119.45 18.0134C119.218 18.751 119.425 19.2512 119.875 20.0005C120.663 21.3122 118.003 25.8159 114.962 22.2117C114.962 22.2117 110.967 21.1372 108.71 20.6553C106.502 20.1837 104.978 18.2916 105.895 17.1463C105.984 17.0345 99.9011 15.3149 99.9011 15.3149C97.0915 15.7394 95.0345 14.9367 94.5349 14.4021Z" fill="#92CEEF" stroke="white" stroke-width="0.2" stroke-linecap="round"/>
<path id="Liberia" d="M30.9112 106.487L28.1132 105.525L18.2559 97.6346L21.376 95.0837L21.3213 94.1716L22.8503 92.7282C23.3052 92.4278 23.8582 92.6374 24.3817 92.6933C25.6949 94.5623 25.3429 95.4412 24.9845 96.3895C25.7294 96.5746 26.2922 97.7862 27.5251 96.0561C27.4907 95.575 27.7915 95.5706 28.2993 95.8601V96.7781C28.7007 96.9428 28.9945 97.7228 28.6052 98.4362C28.3986 98.8145 28.2569 99.2027 27.8136 99.2803L29.1013 100.051C29.467 99.9907 29.7826 99.7252 30.5524 101.313C30.7179 101.536 32.6416 102.324 31.0452 104.195L30.9112 106.487Z" fill="#92CEEF" stroke="white" stroke-width="0.2" stroke-linecap="round"/>
<path id="Madagaskar" d="M203.832 205.236L213.207 185.743C213.923 183.543 214.348 181.344 215.406 179.144C216.124 178.217 217.034 177.357 216.461 175.979L216.665 174.089C216.77 173.517 217.093 173.529 217.582 173.989L217.869 175.131C218.217 175.023 218.559 174.907 218.532 174.34L217.582 164.237L215.79 162.339L214.754 163.177L214.484 165.771L213.885 166.285C213.571 166.192 213.111 165.728 213.247 166.779L212.358 167.732C211.347 165.899 211.197 167.525 211.471 168.317C211.444 168.663 211.544 169.255 211.064 168.715L210.339 169.857L211.369 170.605H210.758L209.434 171.542L209.638 170.407L208.314 171.7L208.619 173.292L207.726 173.328L207.901 172.614C207.076 172.084 206.405 173.206 205.666 173.591L206.481 174.885L205.462 174.984L205.055 173.79L203.413 174.053C203.464 174.617 202.801 174.782 202.203 174.984L202.101 174.188L201.185 175.083L199.585 175.16L199.273 176.506L197.111 179.562C198.763 180.98 198.094 184.181 198.537 186.528C197.929 188.421 196.748 189.866 195.685 191.404C194.45 192.201 193.892 192.998 193.704 193.795C193.524 194.56 193.144 196.064 193.373 196.829C193.641 197.722 194.146 197.418 194.169 198.31L194.469 199.775C192.958 205.461 196.719 205.376 197.53 206.764C197.898 206.6 198.367 206.879 198.727 206.689C199.526 206.268 200.548 205.227 201.616 205.573C202.51 205.862 203.18 205.531 203.832 205.236Z" fill="#92CEEF" stroke="white" stroke-width="0.2" stroke-linecap="round"/>
<path id="Mali" d="M43.4448 38.7549L38.4673 38.8858L38.7025 66.9506L40.0153 67.4036L39.0951 70.1475L24.4253 69.3366L22.7369 70.4929L21.8144 70.1601L21.1755 68.3071L20.3367 68.0882C18.6849 71.6169 18.4313 71.2063 17.8178 71.81C17.918 72.1709 17.6772 72.5152 17.7959 72.8457C18.1677 73.88 18.4009 74.9291 17.8413 75.3764C18.6054 76.0411 19.5914 76.5704 19.8748 77.5284C19.9293 78.7505 19.8611 79.6931 19.5246 80.024C19.1912 80.3504 19.5871 81.1113 20.2803 80.5414L20.9544 80.1412C21.1759 80.4861 21.6646 80.6744 21.5933 81.1912L23.0787 80.1988L24.8927 80.9351C25.0769 80.6635 24.8459 80.2565 25.5514 80.1547C25.9219 80.1647 26.1825 79.9059 26.2919 79.2776L27.2876 79.5137C27.5556 80.4301 27.8822 81.3548 27.7101 82.2098L29.1796 83.294L28.0572 84.2979L28.368 84.7563L29.1866 84.2231L29.3081 86.1436L30.3421 87.0719C30.7662 86.6608 31.443 86.1425 31.9549 86.4022C32.4378 86.6473 32.6626 87.6065 33.1179 87.3069C33.5941 86.9937 33.6836 86.7007 34.4213 86.7017C34.9772 86.7024 33.9449 85.7636 34.637 85.7831C34.9585 85.7923 35.4609 85.4222 36.0166 85.565C36.5494 85.7018 35.8869 87.6407 36.2773 87.2244C37.2453 86.1925 39.1742 86.5921 39.3605 86.8229C39.9006 84.9336 38.8451 83.1912 42.5498 81.0099L44.1849 77.6449C46.3645 76.7513 48.7042 77.158 50.7082 74.8342C53.2277 73.1896 55.7457 71.9529 57.1063 72.3217L59.6498 72.3243L61.0792 71.1325L67.9213 71.2161C68.0948 70.8878 68.1901 70.6466 69.1353 70.1925C69.1427 69.3854 69.8836 69.341 70.3984 69.0867L70.667 59.1797L68.0985 59.5416C67.0842 58.8972 67.9373 58.6919 67.9467 57.2588C67.3684 55.9864 66.6329 55.795 65.9106 55.9204C65.2762 56.0307 64.9906 55.1516 64.6578 55.2178C64.0845 55.332 63.4568 54.7943 63.0765 54.0035C62.9473 53.7345 62.5922 53.612 62.3522 53.4507C61.8186 53.0927 61.3318 52.8175 61.4699 52.2591C61.4707 52.2593 49.2528 43.1412 43.4448 38.7549Z" fill="#92CEEF" stroke="white" stroke-width="0.2" stroke-linecap="round"/>
<path id="Malawi" d="M167.263 152.416L169.208 158.682L168.634 164.245C169.788 165.261 170.937 166.086 172.557 168.727C172.76 169.058 172.973 169.887 172.901 170.551L172.196 173.492L170.435 174.241L170.572 176.814L169.637 176.828C170.118 175.62 169.657 175.846 169.45 175.772C168.173 174.985 167.695 173.825 167.46 172.785C168.504 171.214 168.442 169.952 168.323 168.738L166.595 168.426C165.261 168.744 165.001 168.266 164.873 167.831C164.149 166.174 163.816 166.813 163.551 166.701L162.52 165.315L164.328 162.04L165.738 161.886L164.778 160.664L165.618 156.406L166.418 155.829L164.108 151.368C164.779 151.943 165.522 152.139 167.263 152.416Z" fill="#92CEEF" stroke="white" stroke-width="0.2" stroke-linecap="round"/>
<path id="Marokko" d="M33.692 29.4569L34.1951 25.6888L37.2178 24.1644L37.9003 24.3551L38.9728 23.4976L40.7551 23.6236L40.8526 22.7928C44.5792 22.9707 45.3348 21.997 45.993 21.0206L49.1131 19.7821H50.2831L49.6981 19.0201L49.8931 18.3153L49.7956 17.4005C51.0158 17.2446 52.5208 17.4358 52.5298 16.1886L57.596 16.2571L58.2784 14.733C57.3108 14.386 57.1377 13.019 57.2672 11.5662C57.3635 10.4877 57.2762 8.03377 57.2762 8.03377C56.9422 7.64004 56.5262 7.26922 56.4301 6.70354C55.6177 6.55716 54.6204 6.5396 54.2807 6.06343C53.1013 5.86551 51.9329 5.76036 50.8783 5.86399C48.9475 6.05369 48.1529 5.37407 47.3581 3.58638C45.4986 3.46786 43.5272 7.37209 42.0929 9.30235C38.6245 10.2448 36.1146 11.7725 34.39 13.7801C34.6205 14.5962 34.2156 14.9105 33.374 15.4493C32.83 15.7976 30.9162 18.7825 31.5627 20.4488C31.5707 21.7508 30.5322 23.9207 27.5474 25.3647C27.5474 25.3647 26.1557 26.6356 23.9546 27.3373C23.026 27.6333 20.8731 27.8692 20.2217 28.4561L33.692 29.4569Z" fill="#92CEEF" stroke="white" stroke-width="0.2" stroke-linecap="round"/>
<path id="Mauretanien" d="M17.591 49.5328C17.9922 46.7278 16.2077 42.7858 21.7837 42.6734L22.9537 34.1945L32.8989 35.0518L33.4373 31.2415L43.4604 38.7617L38.4679 38.8802L38.721 66.9652L39.9846 67.4053L39.133 70.1333L24.4185 69.3415L22.7412 70.5003L21.8359 70.2101L21.1962 68.3058L20.3065 68.0907C20.3065 68.0907 18.6827 72.0048 17.649 71.609C17.649 71.609 17.1892 71.1216 16.6693 70.5963C16.211 70.1339 15.7118 69.6757 15.3577 69.0232C14.8653 68.1157 14.5244 66.6587 13.846 66.7629C12.402 66.9845 11.3017 65.1134 11.3017 65.1134C11.3017 65.1134 9.61938 64.6573 8.41344 64.9846C6.85473 65.4075 5.09406 64.9685 4.77979 65.1678L6.21055 61.284L6.35646 56.7568L5.48511 55.3968C5.95096 54.592 7.3743 53.85 6.44396 51.4405C6.33751 51.1649 5.83083 51.3134 5.83083 51.3134L5.23001 49.5421L5.96834 48.8188L17.591 49.5328Z" fill="#92CEEF" stroke="white" stroke-width="0.2" stroke-linecap="round"/>
<path id="Mosambik" d="M153.688 169.837L154.377 171.601L154.324 172.483L156.713 172.658L162.31 174.786C162.883 177.842 162.516 180.397 161.607 182.664C161.583 183.107 161.431 183.531 161.486 183.938C161.589 184.7 161.974 185.751 161.537 186.626C160.413 188.878 159.363 191.132 159.092 191.278C158.164 191.78 157.011 193.248 156.979 194.423L157.537 207.924L159.653 208.057L160.217 206.146L159.367 206.457C159.497 205.7 159.319 204.944 160.132 204.188L166.922 201.566C167.763 200.962 168.285 200.048 168.87 199.195L168.077 198.928L169.483 193.743L168.761 193.503L168.176 189.139C166.253 187.986 167.366 186.195 168.142 185.776L172.246 182.368L172.585 183.047L174.107 181.404L173.771 180.898L174.761 180.721L175.055 179.889L180.084 177.47L181.34 177.483C182.293 176.778 183.058 176.021 184.446 175.438L184.357 174.709L186.033 173.443C186.435 173.039 186.781 172.442 187.307 172.463L187.38 171.651L187.062 171.306L187.978 169.963L188.21 169.066L188.064 168.48L187.503 167.646L187.697 164.36C187.269 163.954 187.505 163.677 187.734 163.399L187.623 159.772L188.972 157.553C189.006 156.945 189.057 156.337 188.83 155.729C186.761 156.932 183.299 159.026 181.55 157.952C180.783 158.043 179.923 158.042 179.181 158.984C178.552 158.926 177.983 158.81 177.23 158.873L174.753 159.311C174.304 158.786 173.853 158.265 172.81 158.834L169.198 158.719L168.634 164.237C170.415 165.638 171.984 167.44 172.767 169.287C173.244 170.411 172.381 172.032 172.214 173.468L170.421 174.226L170.515 176.684L169.632 176.815C169.847 176.301 170.085 175.777 169.314 175.713C168.339 174.905 167.592 173.995 167.489 172.794C168.235 171.607 168.536 170.264 168.338 168.748L166.601 168.437C165.924 168.597 165.139 168.584 164.963 168.057C164.494 166.658 164.039 166.584 163.508 166.725L153.688 169.837Z" fill="#92CEEF" stroke="white" stroke-width="0.2" stroke-linecap="round"/>
<path id="Namibia" d="M94.293 176.412C94.4318 178.19 94.6018 179.958 96.2708 181.213L103.165 193.209L103.34 198.714L104.571 201.262C104.64 202.254 104.265 203.246 104.889 204.239L105.746 208.924L109.49 212.998C111.816 210.557 112.662 212.529 113.245 214.092C114.668 213.96 116.092 213.832 117.515 214.073C118.182 213.485 118.864 212.902 119.914 212.463L120.462 191.554L123.628 191.654L124.083 179.88L131.813 179.214L132.407 180.793C132.963 180.196 133.725 179.097 134.862 179.046C135.89 179 136.392 178.35 137.404 177.824L136.663 176.77L131.686 177.58L126.129 178.844L117.135 177.671L115.629 176.433L101.464 176.593C100.787 175.718 98.2243 173.725 96.3718 176.075C95.7452 175.344 94.9891 176.26 94.293 176.412Z" fill="#92CEEF" stroke="white" stroke-width="0.2" stroke-linecap="round"/>
<path id="Niger" d="M70.662 59.2086L70.3819 69.1231C69.9332 69.3777 69.3095 69.1181 69.1388 70.1874C68.6399 70.4701 68.0253 70.6682 67.9147 71.2354L61.0572 71.1707L59.6637 72.3147L57.0694 72.3284C56.9944 72.8742 57.0079 73.5571 57.4493 73.8949C57.8411 74.1945 57.7835 74.8257 57.6841 75.3816L60.965 79.6586L62.1553 80.0932C62.8151 79.5275 63.4163 79.3614 63.7154 81.2629L67.7788 81.8263C68.0622 81.1917 67.994 80.3113 68.7302 79.993C69.8355 79.3822 69.6549 78.3144 70.0492 77.451C70.9516 77.0306 70.3746 76.4326 75.1431 76.4762C76.3762 77.2336 77.5664 77.4871 78.8651 79.0101L79.8214 79.0482C79.8487 78.7288 80.8133 78.0722 81.4029 77.9627C82.0419 77.6232 83.1777 78.214 84.6915 79.513L87.3883 79.7489L89.9782 77.9341L94.5058 77.8205C95.1887 78.0812 95.6946 78.6778 96.7023 78.431C97.4261 77.6348 98.8108 76.8748 100.401 76.2195C100.154 75.5152 99.8767 74.8276 100.107 73.9235C100.495 73.6048 100.972 73.5544 101.019 72.3689L106.489 66.4378L107.503 56.98L108.276 55.0782C106.712 54.4526 105.641 53.8596 105.298 51.7503C105.111 50.6014 105.378 49.1185 105.261 46.9733L104.288 47.1365C103.753 46.5216 103.235 45.8626 102.551 45.6364L94.8816 45.3635L75.45 57.8808L70.662 59.2086Z" fill="#92CEEF" stroke="white" stroke-width="0.2" stroke-linecap="round"/>
<path id="Nigeria" d="M83.5136 105.445L82.8565 105.415L82.6409 106.539C81.5144 106.566 80.3882 106.449 79.2617 106.047C76.5713 107.684 74.4401 107.416 73.3406 103.639C72.5046 101.531 71.1516 100.847 69.7187 100.382L65.0371 100.408L65.2418 93.1075C65.9846 92.1838 66.447 90.8944 66.8642 89.5465C68.116 89.2455 67.8488 88.1701 67.9061 87.2601C69.1573 86.4503 68.3371 85.1798 67.8219 84.3286L67.9027 81.9537C68.0092 81.2804 67.8525 80.5519 68.8411 79.9335C69.2259 79.4713 69.6105 79.6965 69.9955 77.4361C70.6815 76.9209 71.4059 76.414 75.1003 76.5288C76.3916 77.1885 78.0357 77.724 78.932 79.0835L79.7635 79.0445C80.3001 78.6752 80.4659 78.0241 81.4414 77.9886C81.9977 77.9769 82.0305 77.4542 84.6699 79.4783L87.4217 79.7295L89.9773 77.9296L94.5583 77.8422C95.2267 78.1143 95.7744 78.7109 96.6407 78.451C97.7857 77.337 99.1748 76.761 100.481 76.2234C101.003 77.041 101.729 77.8401 102.381 78.35L101.946 78.6894L102.497 80.8548C102.753 81.0439 103.218 81.1101 103.23 81.4426C103.722 83.5664 102.504 84.2235 101.063 84.6924C99.228 86.0875 98.767 89.9154 97.7128 92.6928C95.6631 93.2845 94.9804 96.9881 93.4129 100.034C91.9009 100.322 91.5183 99.6026 90.5694 98.6021L87.2748 98.8107L87.1887 99.6717C85.0848 100.745 84.6006 103.179 83.5136 105.445Z" fill="#92CEEF" stroke="white" stroke-width="0.2" stroke-linecap="round"/>
<path id="Republik_Kongo" d="M95.3068 137.129L92.0239 132.989L94.221 131.625L93.9625 129.301L96.6508 127.71C97.1098 127.358 97.454 126.502 98.2793 127.761C99.7073 127.595 100.539 127.954 100.994 128.645L102.131 127.887L102.596 123.265C102.574 121.673 100.751 120.633 102.932 118.365C103.299 116.875 101.934 115.854 100.425 115.915C100.056 116.377 99.9167 117.12 99.007 116.921L99.0549 114.703L99.5975 113.895L103.992 113.946L106.115 114.683C106.907 114.288 107.967 115.463 108.704 115.583L108.593 112.026C110.258 109.953 111.485 109.335 112.858 109.021L114.951 109.955L117.536 109.248C116.901 110.908 116.209 112.27 115.567 113.898C114.465 116.688 114.833 120.089 114.331 123.215C111.944 124.237 111.079 126.032 109.834 127.634L108.804 132.264C106.557 134.616 104.574 136.501 103.294 136.398C103.285 135.076 101.817 133.903 100.618 136.077C99.7817 136.618 99.1801 136.337 98.5379 135.741C97.6087 134.542 97.303 135.558 96.8836 136.171L95.3068 137.129Z" fill="#92CEEF" stroke="white" stroke-width="0.2" stroke-linecap="round"/>
<path id="Ruanda" d="M156.412 124.196L154.974 125.32H154.485L154.197 124.927C152.921 126.171 151.968 127.572 150.989 128.961C151.342 129.043 151.624 129.212 151.823 129.481L152.298 129.045L152.845 129.088L153.118 129.805L154.772 129.481L154.844 128.511L156.901 128.399C157.203 127.996 157.472 127.593 157.923 127.19L156.412 124.196Z" fill="#92CEEF" stroke="white" stroke-width="0.2" stroke-linecap="round"/>
<path id="Sambia" d="M156.964 147.299L151.018 148.731C150.631 149.422 150.357 149.821 150.207 150.603C150.169 150.806 150.347 151.223 150.411 151.794C150.536 152.923 150.927 154.903 150.573 155.438C149.742 156.69 149.181 159.003 149.228 159.069C149.702 159.732 150.664 160.41 151.232 160.556C152.014 160.758 152.892 160.663 153.082 160.376L153.176 164.043C152.871 163.797 152.434 163.625 152.218 163.358C150.97 163.254 149.845 163.906 148.009 160.515C146.803 160.413 145.612 160.07 144.581 158.668C144.082 158.54 143.248 159.208 142.496 159.373C140.346 159.172 139.728 158.176 139.179 157.869C138.806 157.532 138.57 157.139 138.498 156.679L136.285 157.396L135.888 155.724L134.972 155.753L134.185 162.017L134.909 162.731L128.159 162.56L127.834 174.3L131.594 177.547L136.689 176.765L137.435 177.859L137.758 178.597L141.745 178.638L142.289 179.105L143.034 178.913C145.184 176.166 147.144 175.464 149.123 174.55L149.204 172.726C150.766 171.781 152.45 171.25 154.4 171.615L153.67 169.809L163.574 166.777L162.519 165.269L164.305 162.017L165.685 161.858L164.792 160.669L165.604 156.385L166.416 155.83L164.792 152.736L164.053 151.304L160.255 150.059C158.963 148.265 158.661 148.602 158.259 148.707L156.964 147.299Z" fill="#92CEEF" stroke="white" stroke-width="0.2" stroke-linecap="round"/>
<path id="Senegal" d="M4.82605 65.0682C4.24202 66.0492 3.84512 66.5611 3.82832 67.3575C3.78965 69.1776 1.93034 69.7576 1 71.081C1.86588 72.3141 2.80833 73.5254 2.95502 74.9652H6.53945C7.31274 73.9563 8.4515 74.2865 9.74866 75.1974L11.8183 75.3472L12.2744 75.9204L10.7755 76.4297C9.74963 76.2156 8.82398 75.8299 7.97314 75.3163C7.37251 75.6642 6.68555 75.8721 5.8226 75.7931L5.43156 76.4297L2.30341 76.557C2.11902 77.3849 1.94889 78.2127 2.10789 79.0406C2.86068 78.9726 3.59374 79.0805 4.38676 78.6604C5.45558 78.9278 6.4703 78.694 7.45143 78.1489L12.8573 78.2121C14.8889 79.3475 17.4228 79.4645 19.7687 79.6137C19.8792 78.4173 20.5635 77.2275 17.8963 75.411C18.3057 74.8961 18.1526 73.7115 17.7943 72.8557C17.5916 72.3717 17.9803 72.2194 17.7961 71.7028C17.5428 71.5648 17.2375 71.1735 16.8105 70.78C16.3331 70.3395 15.3639 69.0744 15.3639 69.0744C14.7967 67.4115 14.065 66.7313 14.065 66.7313C12.3236 67.0097 11.2482 65.0946 11.2482 65.0946C9.76174 64.7022 8.98434 64.9911 8.33742 65.0243C6.64824 65.1108 6.30447 65.3144 4.82605 65.0682Z" fill="#92CEEF" stroke="white" stroke-width="0.2" stroke-linecap="round"/>
<path id="Sierra_Leone" d="M18.2512 97.6505L15.6869 96.3781C15.4018 95.6026 14.6113 95.1797 13.8048 94.7679C13.8808 93.6724 13.137 93.4231 12.6399 93.0271L12.4707 90.4121C13.5952 90.8396 14.5906 89.7311 15.5701 88.4954C15.3262 87.5325 17.5589 87.6312 19.0497 87.6592C20.5347 88.9225 22.0895 90.1338 21.1319 93.2052C21.7671 92.9712 22.3665 92.7023 23.0712 92.5362L21.303 94.1527L21.36 95.0723L18.2512 97.6505Z" fill="#92CEEF" stroke="white" stroke-width="0.2" stroke-linecap="round"/>
<path id="Simbabwe" d="M137.741 178.604L138.73 180.561C139.055 180.93 139.478 181.274 139.449 181.873C140.22 183.162 141.182 184.078 142.063 185.155C142.738 185.362 143.335 185.66 143.745 186.19C144.159 186.679 144.631 187.171 145.462 187.297C145.111 189.286 146.025 190.999 146.981 191.356C148.114 191.406 149.186 191.612 149.998 192.369C152.302 192.637 152.572 192.95 153.117 193.257C155.005 192.64 155.884 193.67 156.958 194.379C157.215 192.876 158.121 192.034 159.147 191.241C159.958 190.088 160.701 188.283 161.475 186.776C162.049 185.842 161.586 184.855 161.448 183.884L161.6 182.646C162.994 179.229 162.566 177.189 162.34 174.785L156.678 172.65L154.299 172.484L154.378 171.697C152.361 171.058 150.719 171.919 149.215 172.729L149.147 174.544C144.515 176.563 144.269 177.66 142.994 178.929L142.303 179.139L141.74 178.652L137.741 178.604Z" fill="#92CEEF" stroke="white" stroke-width="0.2" stroke-linecap="round"/>
<path id="Somalia" d="M197.473 82.7302L196.326 84.4776C195.211 86.0485 198.269 88.4498 200.784 90.7434L210.503 93.7898L213.636 93.6623L204.197 104.215L200.382 104.141C199.169 104.806 197.984 105.488 197.115 106.355C196.123 106.958 195.013 107.333 193.958 107.814C193.304 109.21 192.215 110.351 191.232 111.554L191.263 123.8L193.174 126.15L197.572 121.338L204.942 114.541L205.789 114.441L208.878 111.587L209.004 111.016C210.699 109.757 212.81 107.646 213.336 106.604C214.268 104.76 215.468 103.198 216.807 101.701L219.709 93.5126C220.273 92.9809 220.696 92.2651 221.051 91.4602C221.198 90.6014 221.724 90.2978 222.128 89.8155L222.458 85.7149C223.398 85.8439 222.945 84.0272 222.998 82.9178C222.635 82.6013 222.23 82.0796 222.989 81.6606L222.982 80.6386C222.3 80.6942 221.612 79.9321 220.942 80.4466C220.101 81.219 218.981 81.7715 217.703 81.8746C216.282 81.9895 215.124 82.7928 214.528 82.5956C213.565 83.376 212.338 83.6407 210.746 83.1905C209.683 84.1146 208.986 85.3149 205.572 84.4669L203.396 85.987C200.039 86.8764 199.164 84.2209 197.473 82.7302Z" fill="#92CEEF" stroke="white" stroke-width="0.2" stroke-linecap="round"/>
<path id="path3246" d="M168.132 90.5265H168.126L166.618 91.0692V88.8208L165.745 87.1985L164.286 86.6558L163.108 80.2564L161.839 79.7554V80.8408H159.605L160.764 81.6877L160.96 84.3358L157.609 88.5345L154.453 86.5067L152.365 87.2582V88.3436L150.54 88.9162L150.51 87.8009L146.518 87.6757V89.0832H142.697L141.427 89.2025L140.548 87.5564H139.474H137.911L135.073 92.9837L135.067 93.0374C135.099 93.0511 135.14 93.0515 135.171 93.0672C135.58 93.6273 135.751 94.3114 137.643 94.099L138.735 95.0771C138.499 96.6974 140.955 97.5904 142.392 98.7569L143.728 101.333C144.879 101.879 146.261 102.114 146.432 103.999C147.198 104.425 147.499 105.047 148.062 105.598C148.321 105.851 148.08 106.093 148.337 106.29C149.065 106.848 150.378 106.985 150.559 106.182C150.559 106.182 151.774 106.632 152.652 106.528C153.198 106.464 153.148 105.961 153.69 105.848L157.597 109.188L158.292 108.693C160.974 109.301 163.656 108.952 166.337 108.574L169.536 105.896L173.961 105.741L174.004 103.492L171.727 102.723L170.152 99.3175L167.869 97.4329C168.269 96.8325 167.179 96.2322 166.649 95.6317C165.93 95.8226 165.151 95.6692 164.329 95.256L164.915 94.5224L164.903 93.4668L166.997 93.431C167.404 93.1808 167.845 93.0722 168.156 92.4469L168.132 90.5265Z" fill="#92CEEF" stroke="white" stroke-width="0.2" stroke-linecap="round"/>
<path id="Sudan" d="M169.438 45.295L168.376 46.3507L167.503 46.1598L167.094 47.8835L165.208 48.3665L165.037 49.7681L163.371 49.953L162.577 49.1419L136.776 49.9053L137.087 56.2212C135.99 56.3025 134.859 56.3057 133.968 56.1854L134.017 58.1953L134.316 70.1414L130.818 70.3263L130.861 71.6026L128.859 74.0777L128.987 75.8371L128.316 76.1353C128.252 77.234 128.123 78.1963 127.65 78.4971L127.675 79.9225L129.134 79.6243C129.427 81.2244 129.499 82.9051 130.873 84.1212L131.05 85.1888L130.397 85.2782C131.499 86.6182 132.77 87.8737 133.492 89.3994C132.267 93.1056 134.008 92.584 135.067 93.0375L135.073 92.9838L137.911 87.5565H139.474H140.548L141.427 89.2026L142.697 89.0833H146.518V87.6758L150.51 87.801L150.54 88.9163L152.365 88.3438V87.2583L154.453 86.5068L157.609 88.5346L160.96 84.3359L160.764 81.6878L159.605 80.8409H161.839V79.7555L163.108 80.2565L164.286 86.6559L165.745 87.1986L166.618 88.8209V91.0693L168.126 90.5266H168.132L168.083 86.6321L169.066 85.2066L170.061 85.2186L170.549 82.7554C171.727 81.3383 172.191 79.5214 174.083 78.503L174.681 73.8451C174.337 70.5573 175.359 67.7189 175.847 64.7021C176.334 64.5061 176.892 64.8676 177.288 63.9566L179.467 62.8771C179.897 62.5974 180.042 61.9419 180.169 61.2668C179.873 60.622 179.45 60.7385 179.058 60.6585C178.415 59.4512 177.347 59.3449 176.421 58.8752L175.127 51.2233L174.101 50.1617C174.363 47.4196 171.059 46.9333 169.438 45.295Z" fill="#92CEEF" stroke="white" stroke-width="0.2" stroke-linecap="round"/>
<path id="Suedafrika" d="M109.49 213L114.733 223.308L114.802 225.665C114.537 226.232 114.102 226.249 113.616 226.157C113.419 226.428 113.235 226.778 113.666 227.041C114.316 228.168 114.786 229.539 115.614 230.505C116.294 231.298 117.303 231.713 118.103 232.398L120.185 232.561C120.613 232.267 120.224 231.866 121.777 231.718L124.826 231.699C125.789 231.329 124.706 230.399 127.846 230.627C128.362 230.69 128.585 231.243 129.394 230.816C130.852 230.587 132.244 231.13 133.664 231.338C134.085 231.01 133.928 230.451 136.293 230.897L136.535 229.999L139.306 230.041L155.736 215.123C158.342 214.066 158.918 210.983 159.648 208.054L157.585 207.919C157.564 207.675 155.604 209.044 155.356 209.071C154.297 209.187 153.685 208.852 153.838 207.039C153.951 205.687 155.433 204.611 155.825 204.361C156.347 204.027 156.868 205.285 157.388 204.952C157.388 204.952 157.205 199.204 156.985 194.395C155.878 193.737 155.085 192.607 153.114 193.255C152.08 192.499 151.045 192.577 150.011 192.341L138.645 201.148L138.227 202.989C136.936 203.656 135.644 203.565 134.353 203.699C133.375 202.973 132.321 202.543 131.175 202.475L129.279 204.097C129.101 204.99 128.57 205.075 128.163 205.444C127.518 205.81 127.181 206.276 127.041 206.806C125.13 207.267 123.79 206.962 122.545 206.529C122.785 205.438 123.503 204.729 122.904 202.966L120.261 200.078L119.917 212.482C119.118 212.821 118.318 213.334 117.519 214.084C116.187 213.973 115.079 213.792 113.231 214.118C112.931 212.748 111.651 210.483 109.49 213Z" fill="#92CEEF" stroke="white" stroke-width="0.2" stroke-linecap="round"/>
<path id="Swasiland" d="M157.406 205.056L157.554 207.864C156.695 208.284 156.056 208.704 155.324 209.124C154.522 209.104 154.008 208.898 153.88 208.27C153.678 207.27 153.793 206.589 154.361 205.748C154.774 205.137 155.521 204.365 156.022 204.284C156.28 204.241 156.66 204.619 156.882 204.938L157.406 205.056Z" fill="#92CEEF" stroke="white" stroke-width="0.2" stroke-linecap="round"/>
<path id="Tasania" d="M166.621 122.336L165.436 124.061L156.447 124.21L157.921 127.168C155.6 129.456 157.076 129.889 157.628 130.774C156.61 132.626 155.827 134.888 153.791 134.964C153.279 135.089 152.904 134.964 152.808 135.579C152.584 137.018 153.23 139.997 153.821 141.719C154.428 143.047 155.5 143.947 156.082 145.059C156.618 145.831 156.75 146.603 157.003 147.375L158.25 148.749C158.776 148.597 159.362 148.735 160.192 150.065L163.933 151.272C164.74 152.002 166.014 152.199 167.267 152.421L169.228 158.745L172.893 158.837C173.527 158.447 174.161 158.48 174.794 159.285C176.159 159.075 177.378 158.723 179.172 158.933C179.74 158.338 180.445 157.895 181.621 157.968C183.029 159.065 187.045 156.835 188.775 155.743C188.353 154.999 187.584 154.595 186.87 154.137C186.927 153.292 186.578 152.367 186.266 151.449C185.902 150.888 185.621 150.348 185.862 149.934L185.012 148.119L185.545 147.949C185.406 146.565 185.416 145.258 186.261 144.392C185.681 143.219 183.707 142.29 183.82 140.899L185.506 136.261L181.032 133.365L180.291 130.786L166.621 122.336Z" fill="#92CEEF" stroke="white" stroke-width="0.2" stroke-linecap="round"/>
<path id="Togo" d="M59.6599 101.411L61.9878 100.754L60.4432 88.9226C60.2459 88.0207 59.329 87.621 58.6292 87.0697L59.0001 85.136L56.2552 84.7888C55.7413 85.7921 56.0151 86.7471 57.2603 87.643C58.2662 91.6512 58.1412 95.5016 58.4565 99.4133L59.6599 101.411Z" fill="#92CEEF" stroke="white" stroke-width="0.2" stroke-linecap="round"/>
<path id="Tunesien" d="M91.6228 1.35156C91.0337 1.37122 88.7247 0.1952 87.4276 2.03901C87.4276 2.03901 86.4509 2.46174 86.396 3.44061C86.3111 4.94852 86.164 9.64325 86.164 9.64325C86.0017 9.38961 84.845 9.58122 84.6623 10.3471C84.4141 11.388 83.2132 11.1155 83.1181 11.6413C82.9265 12.6999 83.8724 13.6738 84.986 14.6233C85.2714 14.8668 84.8801 16.2138 85.1629 16.4602C86.0253 17.212 87.5557 17.7246 87.5557 17.7246C87.9106 21.1739 88.5384 23.5576 88.5384 23.5576C88.771 23.6998 91.2376 22.8722 90.3871 19.4837C90.2887 19.0913 95.4428 17.4601 94.5175 14.3082C94.4214 13.9805 93.5823 14.3685 93.4461 13.7738C93.1405 12.4396 93.1797 12.1109 92.6607 11.9106C92.4 11.81 91.3214 12.8219 91.1022 12.6927C90.6131 12.4039 90.0029 11.7317 90.267 11.3989C90.7219 10.8254 94.0089 8.83462 94.0417 7.73704C94.0907 6.10355 93.4737 5.9461 92.6539 5.51115C92.1882 5.26419 92.3556 4.49029 92.5062 4.04885C92.5986 3.77823 94.3732 3.18812 94.1685 2.56098C94.0296 2.13558 93.7721 2.07031 93.6778 1.73765C93.6083 1.49222 92.2674 2.86081 92.1828 2.64935C91.9591 2.09187 91.8919 1.75063 91.6228 1.35156Z" fill="#92CEEF" stroke="white" stroke-width="0.2" stroke-linecap="round"/>
<path id="Tschad" d="M133.977 58.1426L108.55 45.9073L105.182 46.9019C105.412 48.8457 105.243 50.3505 105.279 51.5403C105.331 53.2847 106.573 54.5076 108.276 55.0974L107.523 56.8902L106.439 66.49L101.132 72.196C100.964 72.5197 100.87 72.8436 100.89 73.1673C100.722 73.5385 100.506 73.7003 100.276 73.7975C99.9052 74.0223 100.088 74.4023 100.045 74.6845C99.7364 76.7072 104.064 79.7028 104.064 79.7028C104.287 80.6166 104.617 81.4282 104.782 82.3928C104.96 83.4327 104.439 84.6878 104.589 85.589C104.807 86.8971 106.292 87.0284 106.089 89.0252L102.682 88.7189C101.693 90.6479 102.385 91.9048 104.814 92.468L106.418 97.1467C108.994 96.572 110.809 96.8778 114.175 95.3914L117.238 95.0951C117.803 94.1536 118.999 93.6524 118.589 92.0309L122.827 91.5788C123.158 91.2773 123.317 90.8074 123.855 90.708C124.686 90.6828 124.929 90.1553 125.151 89.61C125.538 88.7136 126.514 88.3924 127.248 87.834C127.38 84.8773 129.667 85.7237 131.061 85.1643L130.894 84.1383C130.096 83.2885 129.408 82.3239 129.159 79.6196L127.672 79.8927L127.639 78.5783C128.094 78.1011 128.421 76.9692 128.305 76.1648L128.997 75.8474L128.827 74.1385L130.874 71.5819L130.81 70.3293L134.338 70.148L133.977 58.1426Z" fill="#92CEEF" stroke="white" stroke-width="0.2" stroke-linecap="round"/>
<path id="Uganda" d="M157.672 109.156L158.317 108.678C160.911 109.325 163.615 108.955 166.319 108.587L167.938 107.278C168.858 107.807 169.546 108.714 169.684 110.607L171.242 111.825V115.521L165.444 124.049L156.405 124.212L155.022 125.307L154.482 125.318L154.171 124.912L154.378 119.643L156.404 116.638L159.636 113.806L157.682 112.599L157.671 109.156H157.672Z" fill="#92CEEF" stroke="white" stroke-width="0.2" stroke-linecap="round"/>
<path id="Westsahara" d="M17.5965 49.5794C17.9977 46.7744 16.213 42.8324 21.7892 42.72L22.9592 34.2411L32.9044 35.0984L33.6603 29.3744L20.3578 28.4144C19.1234 30.2659 18.4067 31.8333 16.5431 32.5555C14.7844 33.237 14.0965 35.3578 13.599 37.1945L8.36422 43.0471C8.17573 44.376 7.38525 45.2639 6.32756 45.9557C5.37124 47.1781 4.78702 48.6969 4.64014 50.0473L5.97402 48.8658L17.5965 49.5794Z" fill="#92CEEF" stroke="white" stroke-width="0.2" stroke-linecap="round"/>
<path id="Zentralafrikanische_Republik" d="M106.437 97.122L103.433 101.938L103.836 105.439C105.119 107.903 106.616 110.18 108.612 112.018C109.85 110.671 110.395 109.633 112.848 109.012L114.982 109.919L117.375 109.261C117.968 108.587 117.92 107.522 117.967 106.515C118.789 105.204 119.676 104.515 120.568 103.891C121.23 104.391 122.402 104.005 122.49 105.501C123.274 106.363 124.014 106.877 124.585 106.077C125.248 107.034 128.063 106.729 130 106.939C130.112 106.583 130.318 106.114 130.714 105.411C131.363 105.315 131.946 105.065 132.936 105.769L137.027 104.371L137.293 104.961L138.93 104.704L138.901 104.108L142.516 103.815L143.321 104.825L143.694 104.279L144.311 104.719L144.832 104.135L146.516 104.071C146.172 103.138 146.319 102.031 143.766 101.443L142.453 98.8233C141.137 97.5923 138.804 97.0234 138.634 95.0458L137.625 94.0934C136.77 94.1324 136.026 94.4944 135.073 92.984C133.534 92.7554 132.489 92.5197 133.5 89.4731C132.709 87.6078 131.501 86.7245 130.452 85.2998C128.245 85.7122 127.359 85.6021 127.281 87.8318C126.58 88.3773 125.551 88.6553 125.23 89.5111C124.952 90.1434 124.723 90.6304 123.741 90.7123C123.461 90.8812 123.121 91.2249 122.771 91.6007L118.588 92.0269C118.807 92.7956 118.722 93.4886 117.822 94.3467C117.582 94.5759 117.41 94.8566 117.185 95.1032L114.173 95.3771C110.691 96.8781 108.944 96.5594 106.437 97.122Z" fill="#92CEEF" stroke="white" stroke-width="0.2" stroke-linecap="round"/>
<path id="Lesotho" d="M146.818 218.389C146.582 218.411 146.171 218.478 145.876 218.594C145.658 218.679 145.462 218.768 145.3 218.926C145.168 219.055 145.133 219.246 145.09 219.412C145.046 219.587 144.684 219.812 144.541 219.847C144.34 219.896 144.069 219.847 143.86 219.847C143.441 219.847 143.241 219.758 142.996 219.438C142.696 219.047 142.32 218.746 142.053 218.312C141.864 218.005 141.692 217.817 141.582 217.494C141.499 217.251 141.529 216.981 141.529 216.726C141.529 216.399 141.683 216.101 141.975 215.959C142.009 215.942 142.044 215.925 142.079 215.907C142.421 215.74 142.507 215.362 142.76 215.114C143.039 214.842 143.401 214.6 143.703 214.347C143.894 214.186 144.168 214.043 144.383 213.938C144.714 213.776 145.029 213.69 145.378 213.605C145.64 213.541 145.945 213.454 146.164 213.4C146.207 213.39 146.251 213.383 146.295 213.375C146.338 213.366 146.382 213.358 146.425 213.349C146.734 213.289 147.123 213.439 147.29 213.656C147.517 213.953 147.803 214.24 148.023 214.526C148.138 214.676 148.131 215.044 148.232 215.242C148.377 215.525 148.549 215.736 148.651 216.035C148.756 216.342 148.605 216.663 148.468 216.931C148.305 217.25 148.084 217.434 147.84 217.673C147.64 217.868 147.426 218.027 147.211 218.184C147.098 218.268 146.944 218.315 146.818 218.389Z" fill="#92CEEF" stroke="white" stroke-width="0.2" stroke-linecap="round"/>
</g>
</svg>
