<svg width="228" height="264" viewBox="0 0 228 264" fill="none" xmlns="http://www.w3.org/2000/svg">
<path d="M155.783 0.102367C155.064 0.246742 155.228 0.700492 156.132 1.13362C156.584 1.33987 156.954 1.56674 156.954 1.64924C156.954 1.73174 156.707 1.97924 156.399 2.22674C155.577 2.88674 155.31 3.34049 155.084 4.63987C154.961 5.29987 154.735 6.04237 154.571 6.28987C154.324 6.70237 152.907 7.58924 152.517 7.58924C152.435 7.58924 152.455 6.94987 152.517 6.14549C152.64 4.86674 152.62 4.70174 152.25 4.45424C151.86 4.20674 151.86 4.20674 152.27 3.60862C152.804 2.86612 153.03 1.19549 152.62 1.19549C152.25 1.19549 152.147 1.36049 149.703 5.93924C146.56 11.8586 146.334 12.1474 145.882 10.8686C145.554 9.89924 145.595 9.36299 146.149 8.16674C146.437 7.56862 146.848 6.55799 147.094 5.93924C147.32 5.32049 147.957 4.16549 148.491 3.40237C149.415 2.04112 149.436 1.97924 149.045 1.69049C148.45 1.25737 147.936 1.33987 147.669 1.91737C147.402 2.53612 147.176 2.57737 146.991 2.04112C146.786 1.36049 146.047 0.576742 145.636 0.576742C145.163 0.576742 144.937 1.05112 144.629 2.68049C144.506 3.31987 144.26 3.95924 144.075 4.12424C143.479 4.59862 143.191 5.60924 143.397 6.37237C143.5 6.74362 143.561 7.07362 143.52 7.11487C143.479 7.15612 143.089 6.97049 142.678 6.66112C142.247 6.37237 141.836 6.14549 141.733 6.14549C141.322 6.14549 140.48 7.60987 140.48 8.31112C140.48 8.90924 140.377 9.09487 139.884 9.36299C139.227 9.69299 139.145 10.0849 139.576 11.1161C139.72 11.508 139.905 12.0649 139.987 12.3949C140.11 12.9105 140.09 12.9517 139.617 12.828C139.248 12.7455 138.898 12.8486 138.447 13.1786C137.81 13.6324 137.81 13.6324 137.933 13.1992C138.036 12.9105 137.933 12.6424 137.625 12.3536C137.358 12.1061 137.111 11.9205 137.05 11.9205C136.988 11.9205 136.783 11.8174 136.618 11.7142C136.351 11.5492 136.372 11.4874 136.721 11.2192C137.276 10.8274 137.009 10.6211 136.29 10.8892C135.838 11.0749 135.776 11.1574 136.002 11.3017C136.31 11.4874 136.331 11.4874 135.283 11.8174C134.873 11.9411 134.893 11.7142 135.324 11.4049C135.633 11.178 135.591 11.1161 134.873 10.9099C133.763 10.6005 133.373 10.6005 133.702 10.9305C133.845 11.0749 133.948 11.6524 133.948 12.2505C133.948 12.828 134.092 13.653 134.256 14.0449C134.421 14.4574 134.564 14.8905 134.564 15.0142C134.564 15.4267 133.928 15.2205 133.702 14.7049C133.476 14.2099 132.613 13.7767 131.791 13.7767C131.545 13.7767 130.908 14.0036 130.354 14.2924C129.778 14.6017 129.224 14.7667 128.977 14.6842C128.423 14.5192 127.991 14.9524 127.991 15.7567C127.991 16.6642 128.238 17.283 128.916 17.943C129.594 18.6236 129.491 18.6649 128.402 18.108C127.334 17.5717 126.759 17.5717 126.759 18.108C126.759 18.603 126.163 19.8199 125.547 20.583C125.013 21.243 125.013 21.078 125.527 19.923C126.245 18.2936 126.841 13.7767 126.369 13.488C126.061 13.2817 125.773 13.8386 125.321 15.4886C125.095 16.3755 124.376 18.108 123.719 19.3249L122.548 21.5524L121.911 20.8511C121.398 20.3149 121.11 20.1705 120.474 20.1705C120.022 20.1705 119.467 20.3149 119.221 20.4799C118.769 20.7892 118.769 20.7892 118.789 20.0674C118.83 19.0774 118.42 18.6649 118.132 19.428C118.029 19.7374 117.927 20.3149 117.927 20.7067C117.927 21.6349 117.598 22.233 117.105 22.233C116.571 22.233 115.256 23.4086 115.256 23.9036C115.256 24.1099 115.441 24.378 115.688 24.5017C115.914 24.6461 116.057 24.873 115.996 25.0174C115.955 25.1617 116.078 25.4505 116.304 25.6567C116.694 26.0074 116.674 26.028 115.215 26.4611C111.477 27.5542 109.094 29.658 111.58 29.658C112.196 29.658 112.052 29.9261 111.148 30.4417C110.285 30.9367 110.101 31.473 110.635 31.9267C111.045 32.2774 111.025 32.5455 110.491 33.1024C110.08 33.5355 110.08 33.5974 110.388 33.948C111.333 34.9792 110.45 35.598 107.677 35.8661C105.438 36.0724 104.801 36.2374 104.39 36.753C103.692 37.5986 104.904 38.0524 105.869 37.2892C106.465 36.8149 107.307 36.753 107.636 37.1655C107.944 37.5367 107.554 37.8461 106.629 37.9492C106.013 38.0111 105.91 38.0936 105.849 38.5886C105.767 39.2899 106.157 39.4755 107.245 39.1867C108.293 38.9186 108.416 39.1249 107.862 40.2799C107.369 41.2905 107.225 41.373 106.835 40.8986C106.691 40.7336 106.383 40.5892 106.157 40.5892C105.931 40.5892 105.52 40.4036 105.274 40.1561C104.986 39.888 104.678 39.7642 104.431 39.8467C103.98 39.9911 102.193 41.7649 102.336 41.9299C102.398 41.9711 103.22 42.1774 104.164 42.363C106.136 42.7342 106.527 42.8992 106.855 43.4974C107.184 44.1161 106.937 44.1986 106.301 43.7036C105.007 42.693 102.932 42.693 101.905 43.7036C101.576 44.0336 101.186 44.3017 101.042 44.3017C100.878 44.3017 100.447 44.6111 100.077 45.003L99.399 45.7042L99.9947 46.2405L100.57 46.7767H99.7893C98.8239 46.7767 98.8033 47.0861 99.7482 47.4161C100.673 47.7667 100.673 48.0142 99.7482 48.0142C98.9266 48.0142 98.8444 48.1999 99.4401 48.5917C99.9741 48.9217 99.8304 49.1692 98.7622 49.6642C98.2898 49.8911 97.6325 50.3036 97.2833 50.5717C96.2974 51.3761 96.7493 51.5617 99.5428 51.4792L101.946 51.4174L100.857 52.4074C100.241 52.9642 99.4812 53.5417 99.1731 53.7274C98.639 53.9955 98.5363 53.9955 98.2282 53.7067C97.7352 53.253 97.3244 53.2942 96.8109 53.8511C96.2152 54.4905 96.2358 54.7792 96.9958 55.7074C97.6531 56.5117 97.612 56.6355 96.7698 56.1611C95.8455 55.6249 95.4141 55.7692 94.9417 56.7386C94.2022 58.2649 94.1817 58.8424 94.8185 59.7911L95.3731 60.6574L94.7979 60.513C94.4693 60.4305 94.0585 60.3274 93.8736 60.2655C93.4217 60.1417 92.8466 60.7192 93.0109 61.173C93.2163 61.7917 93.9558 62.4517 94.3871 62.4517C94.6336 62.4517 95.1677 62.163 95.599 61.8124C96.0098 61.4617 96.359 61.2555 96.359 61.3586C96.359 61.7092 94.4487 63.7099 92.9493 64.9474C92.1071 65.628 91.4704 66.2674 91.532 66.3705C91.5936 66.453 91.1006 67.0099 90.4639 67.5874L89.2725 68.6393H90.4639C91.799 68.6393 91.9633 68.8455 90.8952 69.2374C90.4228 69.4024 90.1968 69.6086 90.279 69.7736C90.3817 70.083 89.6833 71.1143 89.3547 71.1143C89.2314 71.1143 88.9028 70.8255 88.6152 70.4955C87.999 69.753 87.3006 69.6499 87.3828 70.3305C87.4033 70.6605 87.2801 70.8049 86.7666 70.9493C85.9039 71.1761 85.1439 72.1455 84.7331 73.5068C84.5482 74.1461 84.1374 74.9711 83.7882 75.363L83.172 76.0643H83.7882C84.6304 76.0643 84.7741 76.3736 84.2401 77.0543L83.7882 77.6111L84.2195 77.673C84.8152 77.7761 86.0271 77.3636 86.972 76.7655C87.9374 76.1261 87.9579 75.7961 87.0131 75.8993C86.6228 75.9405 86.2941 75.9199 86.2941 75.8374C86.2941 75.5899 87.999 74.2493 88.5947 74.0224C89.3752 73.7336 89.786 74.1874 89.786 75.3424C89.786 76.023 89.6628 76.3736 89.3341 76.683C89.0877 76.9099 88.8206 77.0955 88.7385 77.0955C88.4098 77.0955 87.9374 77.7761 87.732 78.5186C87.506 79.4055 87.1979 79.5705 85.6574 79.5705C84.5071 79.5705 84.3428 79.7149 84.9179 80.2099L85.3698 80.6018L84.3428 80.5605L83.3158 80.4986L83.3774 79.653C83.4595 78.663 83.0898 78.2505 82.3298 78.4361C81.652 78.6218 80.7277 79.5705 81.2206 79.5705C82.3504 79.5705 80.8098 81.0349 78.612 82.0661C77.8725 82.4168 77.2563 82.7468 77.2563 82.8086C77.2563 82.8705 77.4822 83.0974 77.7698 83.3243C78.1395 83.613 78.2833 83.9224 78.2833 84.4586V85.1805L77.5849 84.7268C76.6812 84.1905 76.4963 84.4586 77.1536 85.428L77.6466 86.1705H75.8595C73.826 86.1705 73.2098 86.3974 73.8671 86.913C74.2368 87.2018 74.1136 87.2224 72.2239 87.2018C68.7114 87.1399 68.6293 87.1399 68.6293 87.6143C68.6293 87.9649 68.7731 88.0268 69.5125 88.0268C70.4574 88.0268 71.7309 88.728 72.1417 89.4911C72.3266 89.8418 72.2649 90.0686 71.7925 90.7286C71.4844 91.1618 71.1558 91.533 71.0736 91.533C70.9709 91.533 70.8887 91.0999 70.8887 90.5843C70.8887 88.8311 70.1698 88.398 68.8347 89.3055C67.8487 89.9861 67.6433 90.3986 68.0747 90.873C68.2595 91.0793 68.4239 91.3061 68.4239 91.368C68.4239 91.4299 67.8487 91.4299 67.1504 91.3886C66.0412 91.3061 65.7741 91.3474 65.2812 91.7393C64.1104 92.6674 64.4595 92.8324 68.2801 93.0799C70.1493 93.2036 70.6833 93.3274 70.6833 93.5749C70.6833 93.8843 69.6152 94.2143 68.6293 94.2143C67.8898 94.2143 67.5612 94.3174 67.4379 94.5649C67.2531 94.8743 67.1504 94.8124 66.5136 94.1524C65.5893 93.1418 64.7471 93.183 63.8639 94.2968C63.3709 94.8949 63.412 94.998 64.0487 95.0805C64.439 95.1218 64.6444 95.2868 64.6855 95.5549C64.7266 95.7818 64.8909 96.0705 65.0758 96.2149C65.3428 96.4211 65.2812 96.5036 64.6855 96.813L64.0077 97.1843L65.0141 97.3699L66.0001 97.5761L64.439 98.1743C62.0974 99.0818 62.2822 99.2468 65.959 99.4736C67.1504 99.5355 68.1979 99.6799 68.2801 99.783C68.5266 99.9893 67.4585 100.319 65.5482 100.608C64.706 100.732 63.9255 100.917 63.8228 101.021C63.3914 101.454 65.2195 103.104 65.7741 102.774C66.0822 102.567 66.5752 103.062 66.5752 103.578C66.5752 103.805 66.4314 104.424 66.2466 104.939C65.9179 105.867 66.0001 107.084 66.3904 107.332C66.5136 107.394 66.9655 107.167 67.4174 106.796C67.8693 106.424 68.3006 106.197 68.3622 106.259C68.5882 106.486 67.7255 108.363 67.0887 109.002C66.6163 109.477 66.4931 109.724 66.6574 109.869C67.0682 110.219 67.9104 110.322 68.4855 110.116C69.2249 109.827 69.2044 110.157 68.4444 110.941C68.1158 111.271 67.6228 111.539 67.3558 111.539C67.0887 111.539 66.3698 111.993 65.6509 112.591C64.2541 113.808 63.8228 114.344 64.0077 114.633C64.3158 115.149 65.959 114.612 65.959 113.994C65.959 113.334 68.1363 112.158 69.3687 112.158C70.0466 112.158 69.9849 112.529 69.2044 113.334C68.5882 113.973 68.5677 114.014 68.999 114.014C69.6358 114.014 69.5536 114.324 68.8141 114.86C68.3828 115.169 68.2185 115.417 68.2801 115.706C68.3417 115.953 68.239 116.18 67.9925 116.345C67.4995 116.654 67.479 116.964 67.972 116.819C68.1568 116.778 68.732 116.654 69.2455 116.592L70.1698 116.448L69.2866 117.087C68.7525 117.479 68.4239 117.892 68.4239 118.16V118.572L67.8898 118.16C67.1914 117.603 66.7806 117.603 66.7806 118.181V118.614L66.2671 118.139L65.7536 117.665V118.346C65.7536 119.294 66.3082 120.078 68.1979 121.811C69.1428 122.656 69.8617 123.502 69.9028 123.77C69.9644 124.203 70.0466 124.224 71.8336 124.224C73.5179 124.224 73.8055 124.162 74.9147 123.584C75.572 123.234 76.2498 122.986 76.3731 123.027C76.5168 123.089 77.3385 122.45 78.1806 121.604C79.2487 120.532 79.7622 119.892 79.8444 119.418C79.9471 118.944 80.1525 118.655 80.5017 118.531C80.7687 118.428 81.4671 117.912 82.0422 117.397C82.8639 116.654 83.172 116.489 83.6033 116.592C84.3017 116.737 84.5687 116.531 84.959 115.602C85.1644 115.087 85.2671 114.262 85.2466 113.024C85.226 112.034 85.2877 111.003 85.3698 110.714C85.719 109.539 86.746 109.064 86.9925 109.931C87.0541 110.199 87.1158 111.271 87.1158 112.323C87.1158 113.375 87.2185 114.427 87.3417 114.654C87.4444 114.881 88.0401 115.272 88.6563 115.541C89.3547 115.871 89.8682 116.242 90.0531 116.613L90.3406 117.191L90.6282 116.675C90.8131 116.345 90.9158 115.458 90.9158 114.097C90.9363 112.467 91.0185 111.869 91.306 111.457C91.4909 111.147 91.5936 110.817 91.532 110.694C91.4498 110.591 91.799 110.054 92.292 109.497C93.7093 107.909 94.1201 105.806 93.6066 102.877C93.1752 100.526 93.1752 100.484 93.8736 100.237C94.572 99.9893 95.065 99.3293 95.2498 98.4011C95.3525 97.8443 95.2498 97.6174 94.4487 96.7511C93.9558 96.2149 93.3806 95.4518 93.1752 95.0599C92.6617 94.0286 92.4358 91.0586 92.4358 84.933C92.4358 79.0549 92.559 78.1474 93.586 76.353C94.2844 75.1568 95.7633 73.8574 96.7493 73.5893C97.2217 73.4655 98.0433 73.4243 98.5979 73.5068C99.9947 73.6924 100.57 73.5068 100.878 72.7849C101.227 71.9186 100.96 71.0318 100.036 69.9593C99.0909 68.8661 99.0704 69.0518 100.508 65.7724C101.864 62.6374 102.254 60.9255 102.48 57.048C102.685 53.5417 102.809 53.1705 103.795 53.1705C104.616 53.1705 105.725 52.6755 105.993 52.1805C106.116 51.933 106.157 51.3555 106.095 50.7986C105.972 50.0149 106.034 49.788 106.383 49.3961C107.143 48.5711 110.121 43.6417 110.121 43.188C110.121 42.9611 109.834 42.3424 109.505 41.8267C109.176 41.3111 108.889 40.7542 108.889 40.5892C108.889 40.4036 109.258 39.888 109.731 39.4549C110.224 38.9599 110.902 37.9286 111.395 36.918C112.298 35.0205 113.51 33.5767 114.209 33.5767C114.455 33.5767 114.928 33.7211 115.277 33.9067C116.571 34.5667 117.167 33.7624 117.393 30.9986C117.475 30.0911 117.639 29.0805 117.762 28.7711C117.968 28.2349 118.07 28.1936 118.728 28.2761C119.138 28.3174 120.617 28.8742 122.035 29.5136C125.547 31.0605 125.403 31.0605 125.547 29.5549C125.629 28.8742 125.876 27.8636 126.122 27.3274C126.677 26.0692 126.656 25.863 126.061 24.378C125.794 23.718 125.609 23.0992 125.65 23.0374C125.691 22.9755 126.143 22.8517 126.677 22.7692C127.293 22.6867 128.074 22.3567 128.854 21.8205C130.374 20.8099 131.504 20.4592 132.141 20.8099C132.675 21.0986 132.901 21.3667 134.133 23.3674C135.633 25.8011 136.968 26.9767 138.221 26.9767C138.529 26.9767 139.33 26.6467 139.987 26.2549C140.644 25.863 141.404 25.533 141.692 25.533C141.959 25.533 142.801 25.9042 143.561 26.358C145.328 27.4305 145.8 27.4099 146.416 26.1311C146.868 25.1617 147.341 24.6874 148.511 24.048L149.128 23.6974L149.107 21.6761C149.107 19.8199 149.148 19.4899 149.826 17.7574C150.237 16.7055 150.627 15.5092 150.709 15.1174C150.853 14.2924 150.976 14.2099 153.708 13.2611C154.571 12.9724 155.947 12.3124 156.769 11.7967C157.59 11.2811 158.371 10.9099 158.494 10.9717C158.638 11.013 159.665 11.838 160.774 12.8074C164.513 16.0042 164.944 17.3242 163.177 20.2117C162.397 21.4699 162.335 22.3361 162.993 22.3361C163.26 22.3361 163.465 22.0886 163.67 21.5111C164.02 20.5005 164.738 19.7167 166.135 18.7886C167.409 17.9842 167.614 17.4274 167.101 16.3549C166.649 15.3855 166.361 15.2824 165.519 15.8186C165.129 16.0661 164.759 16.2517 164.677 16.2517C164.369 16.2517 164.595 15.5711 165.067 15.1174C165.868 14.2924 165.827 13.9005 164.903 13.818C164.492 13.7767 164.184 13.6736 164.245 13.5705C164.471 13.1992 163.917 12.5392 162.725 11.7349C161.555 10.9305 161.144 10.4149 161.39 10.0436C161.596 9.69299 162.52 9.85799 164.102 10.4767C165.971 11.2399 165.971 11.2399 168.867 9.36299L170.942 8.00174L170.284 7.15612C169.463 6.10424 168.538 5.67112 167.655 5.93924C166.895 6.14549 166.895 6.10424 167.429 5.19674C167.861 4.51612 167.861 4.51612 167.45 4.30987C166.834 3.97987 166.443 4.04174 166.3 4.49549C166.176 4.90799 166.176 4.90799 165.622 4.49549C165.314 4.24799 164.738 3.85612 164.348 3.60862C163.917 3.34049 163.547 2.86612 163.403 2.47424C163.075 1.42237 162.849 1.31924 162.15 1.89674C161.76 2.22674 161.288 2.98987 160.959 3.81487C160.322 5.44424 159.603 6.45487 159.008 6.61987C158.371 6.78487 158.33 6.47549 158.823 5.32049C159.069 4.74299 159.213 4.20674 159.131 4.14487C159.069 4.06237 158.576 4.20674 158.083 4.45424C157.57 4.70174 157.097 4.90799 157.056 4.90799C157.015 4.90799 157.2 4.55737 157.488 4.14487C157.837 3.60862 157.96 3.21674 157.878 2.82487C157.775 2.37112 157.837 2.24737 158.227 2.14424C158.494 2.08237 158.884 2.02049 159.131 2.02049C159.685 2.02049 160.302 1.33987 160.199 0.844867C160.158 0.638617 159.829 0.370492 159.418 0.226117C158.72 -0.000758342 156.707 -0.0832584 155.783 0.102367ZM69.8617 90.2955C70.3547 91.2649 70.3547 91.3268 69.9849 91.3268C69.7179 91.3268 69.2455 90.3368 69.2455 89.7593C69.2455 89.2849 69.4304 89.4293 69.8617 90.2955Z" fill="#92CEEF"/>
<path d="M140.727 3.87656C140.727 4.45406 141.158 5.32031 141.445 5.32031C141.754 5.32031 142.37 4.66031 142.37 4.33031C142.37 4.08281 141.343 3.46406 140.932 3.46406C140.829 3.46406 140.727 3.64969 140.727 3.87656Z" fill="#92CEEF"/>
<path d="M121.972 11.8996C121.91 12.1265 121.623 12.3533 121.232 12.4358C120.883 12.5183 120.596 12.6627 120.596 12.7865C120.596 13.034 121.787 14.189 122.034 14.189C122.424 14.189 122.855 13.5083 122.855 12.9308C122.855 11.8171 122.198 11.054 121.972 11.8996Z" fill="#92CEEF"/>
<path d="M156.131 12.6626C155.063 13.2814 153.81 13.9001 153.358 14.0239C152.906 14.1476 152.372 14.3951 152.187 14.5601C151.591 15.0551 150.852 16.4989 150.256 18.2314C149.804 19.5926 149.702 20.1907 149.722 21.882L149.743 23.9032L149.126 24.2539C147.586 25.0995 146.888 26.0482 146.6 27.6364C146.518 28.0695 146.395 28.4201 146.333 28.4201C146.251 28.4201 145.306 27.9045 144.197 27.2857C143.108 26.667 141.958 26.1514 141.629 26.1514C141.321 26.1514 140.643 26.4195 140.13 26.7495C138.795 27.5951 138.055 27.6982 136.966 27.2239C135.878 26.7495 134.974 25.677 133.351 23.0576C132.242 21.2426 132.119 21.0982 131.564 21.1601C130.537 21.2839 129.983 21.7789 130.085 22.4595C130.209 23.2432 130.024 23.3464 129.079 23.0782C128.627 22.9545 128.237 22.9339 128.134 23.037C127.785 23.3876 129.859 25.3264 132.817 27.4507C136.412 30.0495 138.384 31.9882 139.288 33.8651C139.904 35.1026 139.986 35.4945 140.109 37.7426C140.232 39.702 140.335 40.3001 140.602 40.4857C140.849 40.6714 140.931 41.0632 140.931 41.9707C140.931 42.8782 141.075 43.5382 141.465 44.4045C141.978 45.5389 141.999 45.7039 141.835 47.3745C141.732 48.3439 141.67 50.1176 141.67 51.3139C141.67 53.3351 141.711 53.5826 142.348 54.9439C143.129 56.6764 144.094 57.687 145.655 58.4707C146.353 58.8214 146.888 59.2751 147.052 59.6051C147.381 60.327 147.894 63.1939 147.956 64.8232L148.017 66.0607H146.949C146.004 66.0607 145.799 66.1432 145.142 66.7826C144.731 67.1745 143.478 68.8451 142.369 70.4951C140.171 73.7539 139.39 74.6407 138.199 75.1357C136.987 75.6307 135.405 78.1057 135.385 79.4876C135.385 80.3126 135.118 80.5395 133.762 80.8282C132.653 81.0551 132.489 81.2407 132.222 82.4782C132.16 82.7876 131.729 83.5301 131.277 84.1282C130.825 84.747 130.393 85.4276 130.332 85.6545C130.27 85.8814 130.414 86.8507 130.64 87.8201C130.886 88.7895 131.071 90.2332 131.071 91.0376C131.071 92.1101 131.215 92.832 131.585 93.7601C132.16 95.2039 132.222 96.297 131.811 97.9264C131.421 99.4939 130.989 103.557 131.153 104.196C131.318 104.856 131.811 105.124 133.29 105.31C134.44 105.454 134.461 105.475 134.461 106.135C134.461 107.187 134.953 107.331 136.494 106.816C137.192 106.568 137.829 106.383 137.911 106.383C137.993 106.383 137.993 106.919 137.932 107.579C137.788 108.899 138.055 109.683 138.63 109.683C139.616 109.683 144.833 108.177 146.148 107.517C146.949 107.125 148.141 106.713 148.757 106.609C149.373 106.506 150.729 106.094 151.776 105.681C152.947 105.207 154.262 104.877 155.309 104.753C156.583 104.609 157.158 104.444 157.774 104.011C158.719 103.351 165.805 95.6576 167.757 93.1826C169.626 90.7901 171.577 87.9439 172.276 86.5826C173.508 84.1695 172.933 82.2514 170.468 80.5807C168.989 79.5701 167.777 78.3945 166.915 77.1157C166.422 76.3939 166.36 76.2082 166.606 76.0639C167.531 75.5482 168.702 74.5376 168.907 74.1045C169.236 73.3826 168.969 72.6814 167.942 71.5264C167.038 70.4951 166.997 70.4332 167.038 69.237C167.079 68.247 166.997 67.8964 166.627 67.4426C165.867 66.4732 165.723 65.9164 165.621 63.462C165.518 60.6364 165.805 58.9657 166.524 58.182C167.408 57.2332 167.264 56.6764 164.717 50.2207L162.848 45.5389L163.649 44.2395C164.08 43.5382 164.963 41.9501 165.621 40.7126L166.791 38.4851L165.949 37.1032C164.902 35.3707 163.916 34.3395 162.581 33.5764C161.923 33.2051 161.451 32.772 161.307 32.4007C160.568 30.5032 160.465 28.647 160.999 26.9764C161.266 26.1307 161.286 25.8214 161.102 25.512C160.752 24.9551 160.793 24.7282 161.41 23.8414C161.779 23.3051 161.944 22.8101 161.923 22.2945C161.903 21.7582 162.149 21.0776 162.745 20.0051C164.265 17.2414 163.833 15.9214 160.506 13.1576C159.417 12.2501 158.431 11.5282 158.308 11.5282C158.185 11.5489 157.199 12.0645 156.131 12.6626Z" fill="#92CEEF"/>
<path d="M118.748 15.2205C118.624 15.4268 118.481 16.0455 118.419 16.5611C118.296 17.3449 118.337 17.4893 118.624 17.4893C119.117 17.4893 119.98 16.5611 119.98 16.0455C119.98 14.973 119.179 14.4161 118.748 15.2205Z" fill="#92CEEF"/>
<path d="M122.095 15.3443C121.438 16.3755 121.828 19.0361 122.65 19.0361C123.225 19.0361 123.697 17.6955 123.636 16.2518C123.574 14.973 123.554 14.9111 123.02 14.8493C122.609 14.808 122.383 14.9318 122.095 15.3443Z" fill="#92CEEF"/>
<path d="M115.584 18.3348C115.03 18.7679 114.311 20.7686 114.516 21.3254C114.783 22.0267 116.488 21.1398 116.488 20.2942C116.488 20.0261 116.632 19.6961 116.796 19.5517C117.351 19.0773 117.063 17.9017 116.365 17.9017C116.242 17.9017 115.893 18.0873 115.584 18.3348Z" fill="#92CEEF"/>
<path d="M126.635 23.4909C126.574 23.6146 126.656 24.254 126.861 24.914L127.231 26.1309L126.574 27.4715C126.019 28.6265 125.957 28.8946 126.183 29.2452C126.409 29.5752 126.389 29.7609 126.101 30.2146C125.444 31.3077 125.156 31.349 123.575 30.6684C122.794 30.3177 121.541 29.9052 120.802 29.7609C119.898 29.5546 119.364 29.3277 119.179 29.039C118.83 28.5234 118.419 28.5027 118.234 28.9771C118.173 29.1834 118.008 30.1734 117.906 31.184C117.7 33.1021 117.146 34.7315 116.591 34.9377C116.406 35.0202 115.79 34.814 115.215 34.5046L114.188 33.9477L113.654 34.3396C113.12 34.7521 112.503 35.804 111.333 38.3821C110.799 39.5577 110.614 39.8052 110.1 39.9084C109.772 39.9702 109.443 40.1146 109.381 40.2177C109.32 40.3002 109.607 41.0015 110.018 41.744C110.532 42.6721 110.737 43.2496 110.655 43.559C110.593 43.8271 109.977 44.8996 109.299 45.9309C107.697 48.4059 107.101 49.6021 106.752 51.1077C106.382 52.6546 106.239 52.8402 105.027 53.294C103.342 53.9127 103.322 53.9746 103.014 57.6459C102.706 61.4409 102.459 62.4927 101.083 65.7309C99.7683 68.9071 99.7067 69.0927 100.302 69.3609C100.569 69.4846 100.939 69.9796 101.165 70.5159C101.596 71.609 101.514 72.4752 100.877 73.5477L100.467 74.2284L98.3921 74.084L96.338 73.9396L95.2494 75.074C93.8321 76.5384 93.3186 77.879 93.031 80.8902C92.805 83.3446 92.9488 90.0477 93.298 92.8734C93.524 94.6265 93.6883 94.9771 95.0645 96.6684C95.804 97.5759 95.9067 97.844 95.8245 98.4009C95.6191 99.5146 95.044 100.484 94.4688 100.773C93.791 101.082 93.8115 101.02 94.2223 102.815C94.5715 104.341 94.5099 106.506 94.0786 107.888C93.9348 108.321 93.4623 109.043 93.031 109.497C92.4559 110.075 92.2505 110.487 92.2505 110.941C92.2505 111.312 92.1067 111.704 91.9423 111.828C91.7164 111.993 91.5726 112.715 91.4494 114.344C91.1823 117.644 90.5867 118.551 89.4159 117.458L88.9023 117.005L89.0256 118.572C89.2926 121.686 90.4223 125.007 93.1132 130.39C93.791 131.772 94.6537 133.34 95.0234 133.917C95.3932 134.495 95.7629 135.361 95.8245 135.897C95.9888 136.949 95.7013 138.537 95.311 138.764C95.1467 138.888 95.311 139.403 95.9477 140.682C96.5434 141.878 96.7694 142.58 96.6667 142.868C96.5023 143.425 96.7077 144.065 97.098 144.209C97.4472 144.353 100.631 143.57 101.042 143.26C101.165 143.136 101.288 142.662 101.288 142.167C101.288 140.517 101.863 139.589 102.89 139.589C103.157 139.589 103.383 139.362 103.527 138.95L103.753 138.31L105.91 138.455C108.416 138.62 108.436 138.62 109.299 136.908C110.018 135.485 110.449 133.979 110.737 131.958C110.86 131.112 111.086 129.751 111.25 128.967C111.394 128.163 111.62 126.451 111.764 125.151C112.134 121.171 112.216 120.965 114.065 119.026C115.009 118.036 115.667 117.17 115.667 116.922C115.667 116.427 115.975 116.345 116.16 116.798C116.262 117.087 116.345 117.087 116.879 116.798C117.639 116.427 118.132 115.726 118.132 115.086C118.132 114.695 118.193 114.653 118.522 114.839C119.693 115.458 120.329 114.715 119.364 113.808C119.035 113.498 118.748 113.148 118.748 113.045C118.748 112.941 119.056 112.715 119.426 112.529C120.473 112.034 121.418 111.126 121.418 110.652C121.418 109.208 117.248 104.506 115.461 103.908C114.003 103.413 113.736 102.67 113.715 98.9577C113.715 96.0702 113.756 95.8846 114.496 93.5334C115.256 91.0996 115.441 89.8209 115.05 89.5734C114.578 89.2846 114.907 88.6452 115.995 87.8202C116.755 87.2427 117.248 86.6652 117.495 86.1084C118.378 84.0665 122.199 80.1065 125.321 78.0234C127.786 76.3527 127.991 76.1465 128.997 74.0634C129.449 73.1352 130.127 72.0215 130.517 71.5884C131.976 69.9177 131.976 69.9177 131.072 68.9071C130.004 67.7521 129.983 66.989 130.969 65.1946C131.36 64.4727 131.688 63.6065 131.688 63.2971C131.688 62.7196 132.037 62.2246 133.948 59.9559C134.42 59.4196 134.626 58.8834 134.79 57.914C135.036 56.3671 135.119 56.2021 135.529 56.3465C135.714 56.429 135.879 56.3259 135.94 56.0577C136.084 55.5421 136.105 55.5421 137.316 56.1609C138.138 56.5734 138.631 56.6765 139.946 56.6765C141.26 56.6765 141.589 56.6146 141.692 56.3465C141.753 56.1609 141.609 55.1502 141.363 54.119C140.89 52.0977 140.808 50.3034 141.157 48.839C141.548 47.1271 141.445 45.539 140.849 44.3015C140.521 43.5796 140.315 42.8165 140.315 42.1771C140.315 41.6409 140.233 41.2077 140.13 41.2077C139.822 41.2077 139.699 40.6302 139.596 38.2584C139.514 36.9796 139.37 35.5771 139.247 35.1234C138.734 33.1021 136.947 31.1015 133.332 28.4615C130.353 26.2959 129.265 25.409 128.176 24.254C127.21 23.2434 126.902 23.0784 126.635 23.4909Z" fill="#92CEEF"/>
<path d="M105.047 25.1205C104.904 25.3267 104.369 25.698 103.856 25.9249C103.178 26.2342 102.932 26.4611 102.932 26.7705C102.932 27.2449 103.281 27.2242 104.431 26.6261C104.739 26.4817 104.986 26.3992 104.986 26.4405C104.986 26.5024 104.719 26.9974 104.369 27.5336C103.527 28.8536 103.548 29.1217 104.534 28.9361C104.945 28.8536 105.294 28.7711 105.294 28.7711C105.294 28.7505 105.458 28.2967 105.643 27.7605C105.91 27.018 105.931 26.6055 105.787 25.9042C105.52 24.7905 105.355 24.6049 105.047 25.1205Z" fill="#92CEEF"/>
<path d="M107.716 25.4298C107.49 25.5948 107.203 26.131 107.08 26.626C106.956 27.121 106.648 27.6985 106.422 27.9048C106.196 28.111 106.011 28.5235 106.011 28.8329C106.011 29.5548 105.662 29.8641 104.8 29.8641C103.403 29.8848 101.493 31.1016 101.76 31.8235C102.027 32.4629 103.177 32.1329 104.307 31.0604C104.656 30.7098 105.046 30.5035 105.149 30.5654C105.272 30.6273 105.786 30.3591 106.299 29.9673C106.833 29.5754 107.285 29.2454 107.347 29.2454C107.408 29.2454 107.326 29.5754 107.162 29.9673C106.669 31.1429 107.223 30.8748 109.195 28.9773C110.9 27.3273 110.962 27.2241 110.9 26.4404C110.818 25.3679 110.202 25.2441 109.442 26.131C108.784 26.9148 108.682 26.9354 108.682 26.1723C108.682 25.3679 108.271 25.0379 107.716 25.4298Z" fill="#92CEEF"/>
<path d="M124.766 106.734C124.375 106.878 124.437 108.012 124.827 108.177C125.259 108.342 125.731 107.744 125.731 107.064C125.731 106.589 125.382 106.466 124.766 106.734Z" fill="#92CEEF"/>
<path d="M135.919 107.847C135.323 108.322 135.241 108.549 135.672 108.714C136.042 108.858 137.028 108.115 137.028 107.703C137.028 107.29 136.555 107.352 135.919 107.847Z" fill="#92CEEF"/>
<path d="M148.1 112.838C147.812 113.003 146.826 113.168 145.943 113.23C144.238 113.333 142.739 113.89 142.492 114.53C142.431 114.695 141.958 115.025 141.465 115.252C140.253 115.767 139.986 116.262 140.315 117.438C140.459 117.933 140.705 118.448 140.849 118.572C141.239 118.902 141.198 119.108 140.746 119.232C140.212 119.377 140.356 119.872 141.321 121.15C142.102 122.202 142.883 122.553 143.108 121.975C143.293 121.501 143.951 121.563 144.238 122.078C144.361 122.347 144.403 122.883 144.341 123.398C144.156 124.553 144.567 124.945 145.512 124.553C146.765 124.038 147.217 124.058 148.367 124.657C148.963 124.987 150.113 125.873 150.914 126.637C151.715 127.42 152.496 128.039 152.619 128.039C152.742 128.039 153.091 127.895 153.358 127.709C153.707 127.482 154.098 127.42 154.55 127.503C155.412 127.668 156.419 127.028 156.973 125.997C157.323 125.337 157.323 125.275 156.912 124.244C155.967 121.893 156.521 118.634 158.35 115.54L159.212 114.117L156.686 113.993C154.878 113.911 153.666 113.725 152.331 113.333C149.805 112.612 148.757 112.488 148.1 112.838Z" fill="#92CEEF"/>
<path d="M135.611 117.19C135.241 117.623 135.673 118.345 136.309 118.345C136.946 118.345 137.378 117.623 137.008 117.19C136.885 117.025 136.556 116.901 136.309 116.901C136.063 116.901 135.734 117.025 135.611 117.19Z" fill="#92CEEF"/>
<path d="M135.674 120.634C135.324 120.738 134.893 120.985 134.688 121.212C134.236 121.728 134.318 122.759 134.831 122.841C135.283 122.924 137.296 121.934 137.789 121.398C138.138 121.006 138.138 120.985 137.748 120.696C137.317 120.366 136.639 120.346 135.674 120.634Z" fill="#92CEEF"/>
<path d="M21.6308 121.686C21.4049 122.284 21.1173 123.295 20.953 123.914C20.6654 125.193 20.3368 125.688 19.6795 125.853C19.1044 125.997 18.5087 126.987 18.5087 127.791C18.5087 128.864 18.8373 129.421 19.5357 129.544L20.1725 129.689L19.6795 130.349C19.0838 131.133 18.1184 133.051 17.8925 133.855C17.7692 134.226 17.8308 134.536 18.0362 134.824C18.3033 135.216 18.2827 135.258 17.913 135.258C16.8038 135.258 16.4957 136.021 17.3584 136.598C18.1184 137.114 18.7757 136.804 20.1725 135.299C20.8708 134.556 21.4049 134.02 21.3433 134.144C20.2135 136.516 19.9465 137.155 19.7411 137.898C19.5768 138.578 19.5768 138.97 19.7616 139.527C19.9876 140.249 20.0081 140.249 20.2341 139.816C20.46 139.424 20.5216 139.403 20.8708 139.692C21.0968 139.857 21.6719 140.001 22.1649 140.001H23.0276L22.9044 141.115C22.8222 141.837 22.8427 142.27 23.0071 142.353C23.4179 142.621 23.233 143.652 22.5141 145.178C22.1238 146.024 21.7952 146.89 21.7952 147.117C21.7952 147.591 23.3357 149.221 23.4795 148.932C23.5411 148.849 23.6438 148.499 23.726 148.189C23.8287 147.736 23.9519 147.633 24.2189 147.736C25.3898 148.231 25.6773 148.293 26.1703 148.189C26.6633 148.045 26.8481 147.901 27.5054 147.117C27.7725 146.787 29.806 146.663 29.806 146.973C29.806 147.076 29.5389 147.406 29.1898 147.736C27.5465 149.324 27.6698 151.964 29.3952 152.211C29.6827 152.253 30.0114 152.5 30.1552 152.789C30.5454 153.552 30.4838 155.594 30.073 156.295C29.7649 156.852 29.7649 156.914 30.073 157.368C31.1206 158.811 31.1 158.749 30.833 159.1C30.2784 159.76 29.806 159.863 29.3335 159.43C28.3681 158.523 26.1292 158.708 25.1638 159.739C24.486 160.482 24.5271 160.977 25.3076 161.142C25.7595 161.245 25.9033 161.369 25.8006 161.596C25.7389 161.781 25.8211 162.091 26.006 162.276C26.2935 162.586 26.2935 162.73 25.9649 163.699C25.4719 165.226 24.3216 166.484 22.8633 167.02C22.2265 167.268 21.5898 167.556 21.446 167.68C21.1789 167.907 21.0968 169.062 21.3022 169.846L21.4254 170.279L22.3703 169.784C22.9454 169.474 23.5 169.309 23.7465 169.392C23.9725 169.454 24.7325 169.598 25.4514 169.701C26.4989 169.846 26.8892 170.011 27.5465 170.609C28.3065 171.289 28.3887 171.31 29.0254 171.104C29.8471 170.836 30.6892 170.279 31.6341 169.413L32.3119 168.773L32.0038 169.392C31.4903 170.403 30.4633 171.723 29.9087 172.094C29.6211 172.279 28.6762 172.506 27.8135 172.609C26.5811 172.754 26.0265 172.919 25.3898 173.373C24.0546 174.301 20.2957 179.003 20.6244 179.313C20.7065 179.395 21.4254 179.168 22.2471 178.818C24.2806 177.931 24.6298 177.889 25.6773 178.261C27.033 178.735 27.2589 178.673 27.8341 177.683C28.1216 177.188 28.5941 176.59 28.8611 176.322C29.5184 175.703 30.7919 175.538 31.593 175.971C31.9422 176.136 32.5995 176.343 33.0719 176.425C33.8319 176.549 33.9141 176.508 33.9141 176.136C33.9141 175.559 34.2838 175.497 39.3573 175.27C43.9173 175.064 44.8006 174.919 46.1768 174.115C46.9779 173.661 47.8816 172.733 47.8816 172.383C47.8816 172.3 47.3476 172.156 46.7108 172.094C44.4308 171.826 43.7735 171.186 44.9854 170.485C45.3141 170.299 45.6222 169.949 45.6633 169.681C45.7044 169.371 46.1562 168.897 46.9368 168.361C49.6892 166.422 50.1206 163.287 47.7789 162.256C46.4644 161.678 44.7184 161.678 44.0816 162.276C43.7119 162.627 43.4654 162.689 42.9519 162.586C42.0892 162.4 41.9865 162.008 42.6233 161.183C43.9789 159.409 43.26 157.801 40.6719 156.79C39.3779 156.295 39.3162 156.171 39.9119 155.532C40.6514 154.728 41.3087 153.593 41.3087 153.078C41.3087 152.356 40.5898 151.654 39.0698 150.85C38.2687 150.438 37.4881 149.881 37.3033 149.633C36.9952 149.221 36.0914 146.457 35.5573 144.353C35.2698 143.26 33.8319 141.631 32.3735 140.806C31.5108 140.311 31.1206 140.208 29.8471 140.208C28.3271 140.208 26.7865 139.774 27.0125 139.403C27.0946 139.3 27.4849 139.094 27.9162 138.97C30.0319 138.269 31.6135 136.887 29.8881 137.196C29.4979 137.279 29.0254 137.403 28.8611 137.464C28.2038 137.712 28.6352 137.176 29.6416 136.495C31.0179 135.546 32.086 134.164 33.1952 131.875C34.3044 129.586 34.7562 127.894 34.3044 127.626C33.2568 126.966 28.7173 127.276 26.6427 128.163C24.3833 129.111 24.2806 129.07 25.2049 127.461C25.4925 126.966 25.78 126.203 25.8211 125.791C25.8622 125.151 26.1498 124.801 27.793 123.254C29.6211 121.521 29.6827 121.439 29.3335 121.088C29.0254 120.758 28.4914 120.717 25.513 120.655L22.0416 120.593L21.6308 121.686Z" fill="#92CEEF"/>
<path d="M145.779 125.152C145.224 125.379 144.567 125.75 144.3 125.997C143.868 126.389 143.827 126.595 143.868 128.225C143.91 129.834 143.848 130.102 143.355 130.968C142.595 132.267 141.239 132.948 140.151 132.597C139.083 132.267 138.816 131.999 138.179 130.762C137.439 129.297 136.022 127.833 135.324 127.833C134.502 127.833 132.489 128.658 131.996 129.194C131.688 129.524 131.503 130.081 131.4 130.844C131.339 131.463 130.928 132.845 130.517 133.876C130.004 135.237 129.757 136.207 129.675 137.3L129.572 138.847L130.517 138.269C132.941 136.867 133.413 136.702 135.2 136.702C136.145 136.702 138.425 136.846 140.253 137.032C143.581 137.362 143.581 137.362 144.423 136.929C144.875 136.702 145.286 136.495 145.347 136.495C145.388 136.495 145.861 136.867 146.374 137.32C146.888 137.774 147.463 138.145 147.627 138.145C148.244 138.145 149.25 138.847 150.811 140.332C151.694 141.177 152.496 141.858 152.598 141.858C152.701 141.858 153.05 141.652 153.338 141.425C153.707 141.136 154.344 140.93 155.166 140.847C155.864 140.765 156.665 140.559 156.953 140.352C157.631 139.878 158.781 138.393 158.925 137.795C159.212 136.66 158.411 134.268 157.59 133.814C157.22 133.629 157.199 133.443 157.302 131.772L157.425 129.937L156.563 129.318C155.268 128.369 154.426 128.142 153.358 128.452C152.29 128.74 152.023 128.596 150.174 126.678C149.106 125.585 147.771 124.739 147.093 124.76C146.929 124.76 146.333 124.945 145.779 125.152Z" fill="#92CEEF"/>
<path d="M120.698 125.316C119.569 126.018 118.398 127.709 118.049 129.132C117.905 129.751 118.233 131.339 118.521 131.339C118.891 131.339 119.733 130.493 120.062 129.813C120.246 129.421 120.39 128.678 120.39 128.163C120.39 127.214 120.493 127.028 121.602 126.121C122.095 125.729 122.116 125.089 121.623 125.007C121.458 124.966 121.027 125.11 120.698 125.316Z" fill="#92CEEF"/>
<path d="M84.5476 128.369C84.2189 128.534 83.5616 129.029 83.1097 129.462C81.7335 130.762 81.1789 131.092 80.0287 131.339C79.433 131.463 78.5497 131.834 78.0978 132.164C76.7627 133.154 76.5778 133.69 76.4751 137.238C76.3314 141.652 76.4751 142.497 77.4611 143.487C78.0773 144.106 78.2827 144.477 78.3854 145.282C78.4676 145.838 78.5703 146.457 78.6319 146.663C78.7757 147.22 79.5562 147.633 80.6654 147.757C81.4665 147.839 81.8157 147.777 82.3703 147.427C82.8427 147.138 82.9865 146.932 82.8222 146.828C81.8978 146.251 82.0211 141.858 82.9865 141.59C83.2124 141.548 83.4178 141.28 83.4589 141.012C83.5 140.703 83.7054 140.497 84.0341 140.414C84.4654 140.311 84.5681 140.146 84.6708 139.383C84.8146 138.372 85.4924 137.65 86.1087 137.836C86.4784 137.96 87.526 137.155 87.526 136.743C87.526 136.64 87.1562 136.495 86.7249 136.413C85.513 136.227 85.0611 135.526 85.0611 133.897C85.0611 133.154 85.246 131.896 85.4719 131.092C85.9443 129.38 85.9854 128.637 85.6362 128.287C85.3281 127.977 85.287 127.977 84.5476 128.369Z" fill="#92CEEF"/>
<path d="M144.587 137.568C144.073 137.98 143.95 137.98 141.814 137.753C140.602 137.629 138.096 137.526 136.268 137.506C132.571 137.506 132.222 137.588 131.092 138.867C130.578 139.465 130.455 139.774 130.455 140.579C130.455 141.796 130.948 143.796 131.482 144.642C132.016 145.508 133.29 146.189 134.378 146.189C135.549 146.209 136.966 146.849 137.275 147.529C137.459 147.921 137.459 148.293 137.275 149.076C137.151 149.633 137.09 150.211 137.131 150.355C137.192 150.499 137.644 150.891 138.158 151.201C138.651 151.531 139.267 152.108 139.513 152.5C140.15 153.531 141.239 154.026 142.903 154.026C144.156 154.026 144.299 153.985 144.854 153.387C145.162 153.036 145.778 152.665 146.169 152.562C147.689 152.129 149.147 150.334 149.455 148.519C149.578 147.777 149.702 147.591 150.338 147.282C150.811 147.055 151.139 146.725 151.201 146.395C151.283 146.065 151.53 145.818 151.92 145.673C152.742 145.426 152.783 145.364 152.433 145.158C152.249 145.034 152.146 144.663 152.166 144.106C152.187 143.611 152.043 142.93 151.817 142.497C150.934 140.744 148.654 138.764 147.545 138.764C147.237 138.764 146.723 138.454 146.23 137.939C145.778 137.485 145.347 137.114 145.265 137.134C145.203 137.134 144.895 137.32 144.587 137.568Z" fill="#92CEEF"/>
<path d="M158.555 139.96C157.076 141.342 156.686 141.528 155.495 141.363C154.57 141.239 154.488 141.26 153.995 141.92C153.317 142.807 153.112 143.797 153.461 144.457C153.81 145.096 153.523 146.045 152.948 146.148C151.921 146.354 149.969 148.478 149.969 149.407C149.969 149.654 149.743 150.149 149.456 150.479C149.065 150.953 148.963 151.242 149.065 151.696C149.189 152.294 149.148 152.315 148.347 152.459C146.97 152.665 145.882 153.202 145.615 153.779C145.286 154.46 144.444 154.687 142.924 154.563C141.26 154.398 140.931 154.625 140.931 155.883C140.931 156.44 141.075 157.512 141.26 158.296C141.445 159.059 141.609 160.4 141.609 161.266C141.63 163.081 141.301 163.782 140.377 164.03C138.96 164.38 138.918 165.185 140.233 166.381C141.137 167.206 141.178 167.288 141.055 168.093C140.829 169.537 141.568 169.887 142.944 168.98C144.074 168.237 145.204 168.072 148.675 168.052C152.147 168.052 154.673 168.423 155.556 169.083C156.378 169.702 157.467 169.867 162.191 170.217C167.49 170.588 167.675 170.609 168.312 171.269C168.887 171.847 168.908 171.847 169.175 170.217C169.462 168.567 170.571 167.288 172.256 166.67C173.221 166.319 173.283 166.237 173.344 165.473C173.406 164.669 173.221 163.658 172.625 161.72C172.461 161.122 172.358 160.42 172.441 160.152C172.605 159.43 173.344 159.162 174.187 159.513C175.07 159.884 175.727 159.884 176.528 159.472C177.925 158.75 178.192 158.234 177.514 157.595C177.288 157.388 177.083 156.955 177.042 156.605C176.98 156.027 176.898 155.986 175.85 155.821C174.536 155.615 174.289 155.45 174.104 154.707C174.043 154.418 173.632 153.758 173.18 153.263C172.132 152.067 170.489 148.767 170.469 147.839C170.469 147.447 170.53 146.705 170.612 146.189C170.859 144.518 169.647 142.621 167.737 141.734C166.484 141.136 166.094 141.115 165.436 141.652C164.594 142.312 164.142 142.208 164.142 141.342C164.142 140.435 163.423 139.878 162.458 140.084C161.965 140.187 161.76 140.125 161.534 139.795C161.308 139.486 161.102 139.424 160.712 139.507C160.322 139.61 160.096 139.548 159.911 139.28C159.664 138.95 159.562 139.012 158.555 139.96Z" fill="#92CEEF"/>
<path d="M92.455 139.878C91.2431 140.332 89.2712 141.383 88.9631 141.755C88.7372 142.043 88.7372 142.25 89.0453 143.095C89.2507 143.652 89.3534 144.188 89.2918 144.312C89.0247 144.725 92.8658 147.488 93.215 147.138C93.2766 147.076 93.1739 146.787 92.9891 146.519C92.5372 145.797 92.5782 145.632 93.2766 145.261L93.8928 144.931L93.441 144.333C92.8453 143.508 93.0918 142.642 93.9955 142.477C94.5707 142.373 94.6118 142.291 94.5912 141.507C94.5707 140.538 94.0572 139.589 93.5231 139.61C93.3382 139.61 92.8453 139.733 92.455 139.878Z" fill="#92CEEF"/>
<path d="M10.3337 145.467C8.30016 146.498 8.23854 146.56 7.54016 147.942C6.94448 149.118 7.10881 149.241 8.91637 148.911C10.3953 148.623 11.1964 147.942 12.018 146.292C12.9423 144.374 12.7369 144.25 10.3337 145.467Z" fill="#92CEEF"/>
<path d="M128.997 146.23C128.032 147.241 128.053 147.344 129.223 147.241C129.511 147.22 129.86 147.055 130.004 146.87C130.271 146.498 130.353 145.426 130.107 145.323C130.004 145.281 129.511 145.694 128.997 146.23Z" fill="#92CEEF"/>
<path d="M103.547 145.673C103.547 146.065 104.286 146.808 104.677 146.808C105.087 146.808 105.067 146.56 104.553 145.9C104.101 145.302 103.547 145.178 103.547 145.673Z" fill="#92CEEF"/>
<path d="M14.8527 145.983C13.6819 146.457 10.7241 148.994 9.98463 150.17C9.63544 150.727 9.63544 150.747 10.1695 151.51C11.1349 152.851 11.5457 153.284 11.6895 153.078C12.2235 152.274 13.4765 150.933 13.6819 150.933C13.8257 150.933 14.0517 151.222 14.1954 151.572C14.5241 152.377 15.736 153.202 16.5987 153.202C16.989 153.202 17.4819 152.995 17.8517 152.686C18.9403 151.779 19.4538 149.695 18.5911 149.695C18.2419 149.695 17.9749 149.097 17.79 147.963C17.7079 147.427 17.4203 146.911 16.9684 146.457C16.27 145.756 15.736 145.632 14.8527 145.983Z" fill="#92CEEF"/>
<path d="M78.5693 148.375C78.7952 148.705 79.2061 149.324 79.4936 149.778L80.0071 150.582L79.3498 151.139C78.5898 151.778 78.5488 151.881 79.1034 152.026C79.3293 152.088 79.5142 152.294 79.5142 152.48C79.5142 153.181 82.0817 156.13 83.6223 157.203L84.1358 157.574L83.4169 157.43C82.5952 157.265 81.2396 156.605 81.0547 156.295C80.8698 155.986 79.5347 155.346 78.7131 155.161L78.0352 155.016L78.0969 156.192C78.1585 157.1 78.0969 157.43 77.8504 157.595C77.3779 157.904 76.0839 157.595 75.9607 157.141C75.7963 156.522 73.1877 156.233 72.4482 156.77C72.1196 157.017 72.1196 157.161 72.325 158.358C72.7769 160.833 72.1196 163.225 70.9077 163.514C70.1477 163.7 70.1682 164.03 70.9898 164.669C71.6471 165.164 71.7293 165.329 71.6266 165.865C71.4212 166.855 70.5174 167.845 69.3261 168.382L68.2169 168.877V170.052C68.2169 170.712 68.0731 171.867 67.8677 172.61C67.539 173.95 67.539 173.992 67.9909 175.291C69.2028 178.632 69.1207 178.282 68.6688 179.003L68.2579 179.663L68.8536 180.922C69.1823 181.623 69.4493 182.51 69.4493 182.881C69.4493 184.057 70.1682 184.593 73.5369 185.913C75.1801 186.573 76.5563 187.109 76.5769 187.13C76.6179 187.15 76.3509 187.687 76.0017 188.326C75.2623 189.708 74.2147 192.533 73.9682 193.792C73.7628 194.947 73.9271 195.008 76.1044 194.575C78.4255 194.122 79.925 194.101 80.1715 194.513C80.2947 194.74 80.5207 194.823 80.9109 194.74C81.3012 194.658 81.9585 194.885 83.1909 195.503L84.9163 196.37L86.8882 196.019C87.9769 195.813 89.8255 195.442 91.0169 195.153C93.6255 194.555 94.4882 194.534 95.5358 195.07C96.5012 195.565 96.5423 195.462 95.9466 193.73C95.7207 193.049 95.5974 192.327 95.659 192.038C95.7412 191.75 96.6244 190.822 97.7131 189.873L99.6439 188.202L97.1174 185.583C94.4471 182.778 93.2558 181.087 93.2352 179.993C93.2147 179.457 93.3585 179.189 93.9336 178.694C94.899 177.869 99.1715 175.621 100.876 175.085C102.561 174.528 103.649 173.806 104.081 172.96C104.512 172.135 104.389 170.692 103.649 167.639C102.971 164.793 102.396 163.39 101.513 162.421L100.794 161.616L101.164 160.668C102.047 158.316 101.986 156.646 100.958 154.604C100.404 153.49 99.8493 153.119 99.0482 153.263C98.699 153.346 98.2882 153.243 97.9596 153.036C95.5769 151.407 95.4536 151.366 94.9401 151.49C94.0158 151.696 91.1607 153.263 90.339 154.006C89.6407 154.645 89.4969 154.686 88.6342 154.563C86.7855 154.315 86.3542 153.573 87.6277 152.81C88.8807 152.067 88.5931 151.861 86.005 151.696C85.019 151.613 84.5055 151.49 84.3207 151.263C84.1974 151.077 83.8071 150.933 83.4785 150.933C82.6158 150.933 82.4925 150.706 83.1088 150.231C84.1152 149.427 83.2115 148.726 80.5207 148.251C79.8017 148.128 78.9801 147.963 78.6925 147.901L78.1996 147.777L78.5693 148.375Z" fill="#92CEEF"/>
<path d="M114.845 149.2C112.647 149.86 111.517 150.355 110.223 151.263C109.607 151.675 107.84 152.438 106.012 153.098C104.266 153.717 102.664 154.398 102.438 154.624C102.068 155.016 102.048 155.119 102.294 156.501C102.582 158.11 102.479 159.079 101.883 160.255C101.37 161.266 101.39 161.637 101.986 162.256C103.26 163.596 104.451 167.35 104.78 171.042C104.985 173.29 105.108 173.826 105.478 173.826C105.601 173.826 106.094 174.177 106.567 174.631C107.162 175.167 107.84 175.538 108.662 175.765C109.319 175.951 110.12 176.301 110.428 176.549C110.983 176.982 110.983 177.003 110.552 177.147C109.956 177.374 109.997 177.621 110.839 178.467C111.907 179.519 112.749 179.354 112.441 178.137C112.318 177.724 112.359 177.704 112.914 177.828C114.783 178.261 119.672 181.107 120.719 182.344C121.479 183.273 121.746 183.376 122.321 183.004C122.958 182.592 123.266 182.736 124.458 184.015C124.95 184.531 125.464 184.964 125.628 184.964C125.772 184.964 126.429 184.675 127.066 184.345C128.093 183.809 128.442 183.726 129.921 183.726C131.873 183.726 133.126 184.098 135.323 185.294C136.125 185.748 136.864 186.036 136.946 185.933C137.028 185.851 136.946 185.459 136.761 185.067C136.001 183.479 136.207 183.128 140.15 179.065C142.574 176.569 142.554 176.611 141.691 174.94C141.034 173.661 140.685 172.176 140.418 169.722L140.15 167.185L139.308 166.319C138.836 165.844 138.466 165.37 138.466 165.246C138.466 165.143 138.939 164.586 139.514 164.029C140.089 163.452 140.726 162.648 140.952 162.235C141.342 161.472 141.342 161.451 140.828 159.038C140.335 156.646 139.247 152.954 138.898 152.418C138.589 151.923 135.59 151.737 129.716 151.84C126.553 151.902 123.472 152.005 122.855 152.067C121.869 152.17 121.582 152.108 120.596 151.613C119.651 151.139 119.425 150.891 119.199 150.211C118.645 148.478 117.864 148.313 114.845 149.2Z" fill="#92CEEF"/>
<path d="M97.1797 150.108C97.1797 150.232 97.3235 150.644 97.4673 151.036C97.7959 151.799 98.2478 151.841 98.6175 151.139C98.7818 150.83 98.6997 150.665 98.2889 150.335C97.6932 149.861 97.1797 149.778 97.1797 150.108Z" fill="#92CEEF"/>
<path d="M7.27386 151.469L7.37657 152.438L6.04143 152.294C4.809 152.17 4.7063 152.191 4.60359 152.583C4.50089 152.995 4.48035 152.995 4.00792 152.479C3.45332 151.881 2.87819 151.819 2.07711 152.294C1.52251 152.644 0.844675 153.573 0.844675 154.006C0.844675 154.129 1.1117 154.233 1.44035 154.233C3.04251 154.233 3.12468 155.037 1.6663 156.501C1.1117 157.079 0.63927 157.636 0.63927 157.739C0.63927 158.193 1.72792 158.605 3.3917 158.77C4.35711 158.873 5.26089 159.018 5.38413 159.079C5.75386 159.327 5.50738 159.719 4.54197 160.461C3.84359 160.998 3.59711 161.307 3.55603 161.823C3.4944 162.379 3.57657 162.524 4.02846 162.689C4.31603 162.813 4.85008 162.895 5.21981 162.895C6.04143 162.895 5.7744 163.122 4.23386 163.699C2.44684 164.359 2.07711 164.648 2.07711 165.391C2.07711 166.257 1.62522 167.061 0.598189 167.948C0.105216 168.361 -0.12073 168.649 0.0641348 168.588C0.26954 168.526 0.885756 168.423 1.46089 168.34C2.4263 168.216 2.48792 168.237 2.48792 168.67C2.48792 168.938 2.65224 169.165 2.89873 169.227C3.1863 169.309 3.30954 169.516 3.30954 169.928C3.30954 170.403 3.3917 170.526 3.78197 170.526C4.41873 170.526 6.65765 169.433 7.1917 168.856C7.49981 168.505 7.82846 168.402 8.32143 168.423C8.87603 168.464 9.22522 168.299 9.98522 167.639C11.1149 166.669 11.4025 166.504 12.3474 166.298C12.7376 166.216 13.2717 165.968 13.4976 165.741C13.929 165.349 13.9906 165.349 14.6068 165.679C15.4695 166.113 15.6955 165.906 16.2706 164.174C17.4414 160.606 16.7636 155.573 14.8122 153.304C14.3809 152.789 13.9495 152.17 13.8674 151.923C13.7441 151.489 13.662 151.531 12.6349 152.686L11.5463 153.903L10.2728 152.521C9.01981 151.139 8.15711 150.52 7.49981 150.52C7.21224 150.52 7.17116 150.685 7.27386 151.469Z" fill="#92CEEF"/>
<path d="M66.5749 158.564C65.4452 158.832 64.9727 159.657 65.096 161.101C65.1165 161.307 65.4041 161.699 65.7327 161.988C66.4106 162.566 67.0473 163.989 66.883 164.566C66.6571 165.267 65.5684 165.989 64.7468 165.989C63.576 165.989 63.2063 165.453 63.1241 163.659C63.083 162.834 63.0214 162.05 62.9803 161.926C62.816 161.411 62.3025 161.906 62.0765 162.751C61.9738 163.246 61.3165 164.752 60.6387 166.134L59.4062 168.65L61.0906 169.001L62.7544 169.372L61.3576 170.032C60.5771 170.403 59.9198 170.733 59.8787 170.774C59.8581 170.816 60.4538 170.816 61.2549 170.774C62.6106 170.692 62.7338 170.712 64.069 171.537C64.829 171.991 65.7533 172.486 66.1435 172.61C66.7803 172.837 66.883 172.816 67.2527 172.362C67.5814 171.95 67.6225 171.682 67.5198 170.733C67.2527 168.506 67.2117 168.671 68.2592 168.258C69.5738 167.763 70.3338 167.186 70.7857 166.319L71.176 165.577L70.5187 164.896C69.7176 164.071 69.7176 163.927 70.3954 163.287C71.1965 162.566 72.1208 161.039 72.1208 160.462C72.1208 159.802 71.1349 158.853 70.149 158.585C69.2246 158.337 67.6225 158.317 66.5749 158.564Z" fill="#92CEEF"/>
<path d="M180.37 165.515C180.206 165.577 179.897 165.762 179.713 165.948C179.466 166.154 179.117 166.216 178.562 166.113C177.926 166.03 177.638 166.092 177.248 166.402C176.631 166.876 175.296 167.206 173.982 167.227C172.544 167.227 171.024 167.763 170.449 168.464C170.059 168.918 169.894 169.413 169.791 170.465C169.545 172.733 169.052 173.187 168.271 171.847C167.84 171.104 167.799 171.104 166.854 171.228C166.135 171.331 165.581 171.248 164.615 170.898C163.362 170.465 163.321 170.465 162.643 170.836C162.068 171.145 161.842 171.166 161.226 170.96C160.836 170.836 159.521 170.63 158.309 170.527C156.461 170.362 155.927 170.238 155.043 169.722C154.448 169.392 153.503 169.021 152.928 168.897C151.141 168.526 147.71 168.402 145.862 168.65C144.403 168.835 143.951 169 143.068 169.598C142.493 169.99 141.918 170.32 141.795 170.32C141.384 170.32 141.096 171.166 141.22 172.012C141.302 172.465 141.651 173.393 142 174.095C142.514 175.126 142.637 175.6 142.616 176.57C142.575 178.013 142.555 178.055 141.63 178.488C140.87 178.859 138.611 181.19 137.604 182.654L136.988 183.562L137.317 184.861C137.81 186.862 137.789 187.027 136.947 186.882C136.31 186.779 136.187 186.841 135.817 187.439C134.873 189.007 135.181 190.822 136.536 191.605C137.604 192.224 140.254 192.802 142.062 192.802C143.869 192.802 144.937 193.07 145.122 193.544C145.471 194.431 150.75 192.822 152.065 191.42C152.948 190.45 153.626 190.244 155.721 190.244C158.741 190.265 161.924 191.296 163.486 192.76C164.102 193.338 164.143 193.482 164.143 194.72C164.143 196.04 164.143 196.04 164.821 196.225C165.416 196.411 165.499 196.535 165.704 197.545C165.95 198.803 166.217 199.402 166.69 199.814C166.895 199.958 167.019 200.392 167.019 200.866C167.019 201.567 167.101 201.712 167.594 201.897L168.148 202.124L167.532 202.413C167.203 202.557 166.526 202.681 166.074 202.702C165.375 202.702 165.19 202.619 165.108 202.268C165.006 201.918 164.923 201.877 164.595 202.062C163.814 202.475 160.856 207.445 160.856 208.312C160.856 208.683 160.939 208.724 161.534 208.6C162.705 208.394 165.848 206.682 167.244 205.507C168.785 204.228 169.36 203.506 169.73 202.372C169.976 201.65 170.12 201.526 171.127 201.175C171.804 200.948 172.873 200.783 173.797 200.763C175.091 200.742 175.44 200.825 176.015 201.217C176.796 201.794 176.837 202.124 176.159 202.495C175.871 202.64 175.646 202.846 175.646 202.928C175.646 203.197 176.878 203.485 179.035 203.733C183.328 204.248 183.554 205.156 179.897 206.971L178.295 207.775L179.836 208.765C180.699 209.302 181.5 209.92 181.602 210.127C181.726 210.333 181.808 211.096 181.808 211.818C181.808 213.942 182.136 214.045 184.807 212.705C185.813 212.21 186.799 211.777 186.984 211.777C187.621 211.777 188.299 211.343 188.668 210.704L189.038 210.085L190.64 210.23C192.366 210.374 193.372 210.085 193.557 209.363C193.803 208.394 193.331 208.27 191.256 208.827C190.517 209.013 189.675 209.095 189.408 209.033C189.12 208.972 188.319 208.353 187.641 207.652C186.881 206.93 186.203 206.414 185.936 206.414C184.991 206.414 185.546 204.991 187.087 203.485C187.929 202.64 188.524 202.33 190.989 201.361C192.591 200.742 194.111 200.227 194.379 200.227C194.646 200.227 195.18 200 195.57 199.732C195.981 199.463 197.069 198.989 198.035 198.68C200.438 197.875 200.828 197.669 200.972 196.988C201.116 196.308 202.964 194.163 203.807 193.73C204.156 193.544 204.875 193.42 205.635 193.441C207.196 193.482 207.422 193.276 207.73 191.626C207.915 190.574 207.915 190.244 207.627 189.522C207.031 188.058 207.278 186.944 208.531 185.356L209.188 184.531L208.695 184.015C207.648 182.881 201.896 180.653 200.767 180.942C200.417 181.025 200.171 180.86 199.637 180.2C197.542 177.58 197.357 177.518 195.714 178.57C194.502 179.333 194.296 179.333 193.372 178.612C192.756 178.158 192.427 178.055 191.585 178.096C191.01 178.096 190.373 178.034 190.168 177.91C189.695 177.663 189.161 176.446 189.326 176.013C189.531 175.497 189.264 174.796 188.566 173.909C187.744 172.878 187.518 172.754 186.203 172.692C185.587 172.672 184.971 172.527 184.807 172.403C184.314 171.991 184.026 170.176 184.293 169.392C184.581 168.629 184.355 167.845 183.615 166.897C182.958 166.072 181.089 165.267 180.37 165.515Z" fill="#92CEEF"/>
<path d="M60.1036 172.094C58.2344 172.857 58.1933 172.857 56.1803 172.465C54.8657 172.218 53.3047 173.517 53.469 174.713C53.5306 175.126 53.6333 175.167 54.5987 175.105C55.6463 175.064 55.6874 175.064 56.0776 175.827C56.5706 176.797 56.9403 177.147 58.296 177.828C59.5285 178.447 60.1036 179.168 59.9598 179.911C59.8982 180.2 59.9187 180.488 60.0214 180.55C60.2474 180.674 60.9457 180.323 61.7057 179.684C62.4041 179.086 62.6712 179.065 62.6712 179.56C62.6712 180.303 63.7393 182.097 64.4787 182.592C65.8755 183.541 66.6971 183.128 66.5122 181.623C66.3479 180.509 66.7587 179.272 67.2517 179.313C67.8063 179.375 68.2787 178.508 68.1144 177.766C67.9501 177.003 67.1285 176.095 66.6149 176.095C66.0603 176.095 65.8139 175.745 65.6495 174.652C65.4647 173.538 65.136 173.105 63.883 172.486C63.3695 172.218 62.8355 171.847 62.6917 171.682C62.322 171.248 62.2398 171.248 60.1036 172.094Z" fill="#92CEEF"/>
<path d="M50.6757 174.652C49.6898 175.147 49.3406 175.621 49.3201 176.426C49.2995 178.715 47.9644 180.509 45.1093 182.036C43.3838 182.964 43.2606 183.087 43.199 183.747C43.0963 184.84 42.8703 184.964 41.1244 184.964C39.0293 184.964 37.5298 184.552 36.9752 183.85C36.7493 183.541 36.1947 183.108 35.7428 182.902C34.8184 182.427 34.7568 182.53 35.2498 183.912C35.4141 184.407 35.7017 185.604 35.866 186.573C36.0509 187.563 36.2563 188.532 36.2974 188.718C36.4001 189.027 36.2768 189.089 35.5168 189.089C34.5925 189.089 32.4974 189.378 31.7168 189.625C31.3676 189.729 31.039 189.522 30.1557 188.697C28.9644 187.563 28.759 187.48 28.3482 187.975C27.8757 188.553 26.8693 188.945 25.3082 189.11C24.4044 189.213 23.6444 189.419 23.4595 189.605C23.172 189.894 23.213 189.976 23.932 190.574C24.7125 191.214 24.7125 191.234 24.6098 192.43L24.5071 193.627H25.1849C25.5547 193.627 26.6433 193.957 27.5882 194.369C28.5125 194.782 29.9503 195.277 30.7309 195.462C32.066 195.792 32.1687 195.854 32.1687 196.39C32.1893 196.782 32.4563 197.195 33.052 197.752C33.7298 198.391 33.9147 198.7 33.9147 199.257C33.9147 200.33 34.9006 201.629 36.626 202.825L38.1255 203.857L38.0638 205.301C37.8584 210.209 37.119 215.427 36.1947 218.377C35.6606 220.089 35.6606 220.171 36.2768 220.316C36.6466 220.419 36.7903 220.584 36.7903 220.955C36.7903 222.069 39.399 222.914 42.8087 222.914C46.5471 222.914 48.6011 223.368 49.9157 224.482C50.7168 225.142 51.9698 225.327 53.1201 224.936C53.9828 224.647 54.3114 224.193 54.6606 222.77C54.9276 221.697 55.8725 220.728 57.5363 219.841C59.2822 218.892 60.2065 218.954 63.9038 220.151C65.5471 220.687 67.1287 221.161 67.4163 221.202C68.1147 221.326 68.8336 220.955 70.6001 219.47C71.4011 218.81 72.346 218.109 72.6952 217.923C73.3114 217.593 74.1741 216.459 74.1741 216.005C74.1741 215.861 73.8865 215.819 73.4757 215.861C72.9417 215.922 72.6336 215.799 72.0379 215.262C71.0314 214.396 70.6822 213.654 70.6822 212.457C70.6617 211.921 70.5384 211.241 70.3741 210.952C69.9222 210.168 70.0044 209.982 70.9082 209.364C71.8325 208.745 71.8325 208.745 71.0725 206.765C70.7028 205.775 70.6617 205.466 70.8465 205.156C71.1957 204.599 71.1547 204.146 70.6411 203.382C70.0455 202.516 69.6347 202.537 68.2174 203.424C67.6011 203.795 67.0671 204.084 67.026 204.063C67.0055 204.022 67.1698 203.671 67.3957 203.259C67.6833 202.784 67.786 202.351 67.7038 202.021C67.6011 201.609 67.7038 201.402 68.279 200.969C68.6693 200.66 69.0595 200.185 69.1211 199.917C69.2033 199.629 69.6757 198.927 70.1893 198.35C70.6822 197.772 71.1547 197.05 71.2368 196.72C71.2984 196.308 71.5244 196.06 71.9147 195.916C72.613 195.689 72.9211 195.132 73.6195 192.864C73.9276 191.956 74.4001 190.595 74.6876 189.873C75.4271 188.14 75.5914 187.522 75.4271 187.315C75.3655 187.212 74.7493 186.924 74.0714 186.697C73.3936 186.449 71.7298 185.789 70.3536 185.212C68.9979 184.655 67.3341 184.057 66.6563 183.912C65.8141 183.727 64.9514 183.294 63.8011 182.51C61.973 181.272 61.0898 180.839 60.3298 180.839C59.7136 180.839 59.5287 180.592 59.3849 179.499C59.2822 178.736 59.2411 178.674 58.4195 178.529C57.2693 178.344 56.4065 177.663 55.8725 176.57L55.4411 175.683L54.4347 175.807L53.4076 175.951L53.079 175.085C52.7914 174.342 52.6682 174.239 52.1136 174.239C51.7644 174.26 51.1276 174.425 50.6757 174.652Z" fill="#92CEEF"/>
<path d="M102.315 175.25C99.2133 176.095 95.1462 178.096 94.2014 179.23C93.5646 179.973 93.6262 180.509 94.4684 181.726C95.8446 183.768 99.9527 187.893 101.288 188.573C102.212 189.048 102.459 188.965 103.773 187.707L105.006 186.531L105.971 186.8C106.505 186.965 107.409 187.212 107.964 187.377C109.504 187.831 112.996 187.996 113.284 187.625C113.427 187.439 113.879 187.336 114.454 187.336C115.646 187.336 117.001 186.49 117.433 185.459C117.659 184.943 118.09 184.51 118.953 183.974C120.514 183.005 120.575 182.551 119.24 181.602C117.987 180.695 114.249 178.776 113.756 178.776C113.53 178.776 113.099 179.003 112.749 179.292C112.421 179.581 112.051 179.808 111.948 179.808C111.579 179.808 109.709 177.89 109.586 177.395C109.422 176.796 108.765 176.446 107.162 176.075C106.259 175.848 105.93 175.683 105.786 175.311C105.642 174.92 105.458 174.858 104.636 174.878C104.081 174.878 103.054 175.043 102.315 175.25Z" fill="#92CEEF"/>
<path d="M67.109 180.364C66.7393 181.313 67.1296 183.231 67.7252 183.458C68.1771 183.623 68.8344 182.819 68.8344 182.097C68.8344 180.963 67.4171 179.539 67.109 180.364Z" fill="#92CEEF"/>
<path d="M122.055 183.871C121.48 184.325 121.316 184.366 120.967 184.16C120.72 184.015 120.309 183.953 119.94 184.036C119.2 184.201 117.927 185.294 117.927 185.768C117.927 186.511 115.482 188.243 114.414 188.264C113.839 188.264 113.018 189.089 112.894 189.79C112.648 191.11 113.901 193.028 115.565 193.833C116.407 194.245 116.571 194.245 118.132 194.018C119.775 193.791 120.392 193.482 120.392 192.884C120.392 192.513 121.028 192.245 122.281 192.08C122.795 192.018 123.349 191.811 123.493 191.646C123.658 191.44 124.048 191.337 124.582 191.358C125.896 191.42 125.917 191.399 126.759 190.491C127.416 189.77 127.704 189.605 128.546 189.501C129.922 189.357 131.853 189.605 132.285 189.996C132.86 190.512 133.455 190.388 134.092 189.605C134.626 188.945 135.941 186.057 135.776 185.933C135.735 185.892 135.058 185.583 134.256 185.232C131.093 183.85 129.101 183.809 126.862 185.067C125.198 185.995 124.726 185.954 124.356 184.881C124.027 183.912 123.534 183.314 123.082 183.314C122.898 183.314 122.446 183.561 122.055 183.871Z" fill="#92CEEF"/>
<path d="M103.752 188.367C102.458 189.439 102.007 189.604 101.205 189.316C100.076 188.883 99.6033 189.048 97.8368 190.429C95.9881 191.894 95.906 192.079 96.4606 193.626C96.8303 194.699 96.8508 195.627 96.5222 195.751C96.3784 195.792 95.9265 195.709 95.5362 195.544C94.5503 195.132 93.4 195.173 91.3871 195.668C90.4422 195.895 88.8606 196.246 87.8335 196.411C86.8271 196.596 85.7179 196.803 85.4098 196.864C85.0606 196.926 84.506 196.823 84.0335 196.617C82.9038 196.101 82.5957 196.287 82.5957 197.442C82.5957 198.184 82.7189 198.514 83.1298 198.927C83.6638 199.463 83.7665 199.463 85.3071 199.092C85.7179 198.989 86.0054 199.071 86.4162 199.381C87.0941 199.917 87.5254 199.917 88.3881 199.401C89.066 199.009 91.6335 198.329 92.64 198.288C93.0098 198.267 93.3179 198.494 93.7698 199.133C94.5298 200.164 95.4952 200.659 97.693 201.154C100.137 201.691 102.397 201.649 105.108 201.01C109.298 200.02 110.51 199.133 110.551 197.029C110.592 195.338 110.736 195.008 111.845 194.493L112.852 193.998L112.729 192.739C112.564 191.11 112.051 189.378 111.578 188.903C111.352 188.676 110.757 188.491 109.997 188.408C109.339 188.346 108.23 188.099 107.573 187.851C105.683 187.191 105.067 187.274 103.752 188.367Z" fill="#92CEEF"/>
<path d="M128.567 190.1C128.115 190.203 127.437 190.595 126.882 191.11C126.04 191.894 125.835 191.977 124.91 191.977C124.356 191.977 123.883 192.059 123.883 192.162C123.883 192.41 122.733 192.802 122.035 192.802C121.501 192.802 120.802 193.338 120.802 193.771C120.802 194.225 119.447 194.555 117.598 194.555C115.873 194.555 115.667 194.514 114.866 193.957C114.394 193.627 113.983 193.4 113.962 193.441C113.921 193.482 113.736 193.792 113.531 194.101C113.325 194.431 112.853 194.823 112.463 194.988C111.908 195.215 111.764 195.38 111.867 195.669C111.929 195.875 111.847 196.164 111.662 196.308C111.497 196.452 111.21 197.092 111.025 197.71C110.573 199.278 110.737 200.804 111.497 201.877C112.257 202.99 114.62 204.558 116.694 205.362C118.235 205.96 118.399 206.002 118.913 205.713C120.638 204.744 121.377 204.558 127.026 203.527C130.497 202.908 130.456 202.929 131.052 200.742C131.545 198.865 135.53 193.627 136.434 193.627C137.173 193.627 137.091 193.132 136.208 192.348C135.386 191.605 133.784 190.945 132.839 190.945C132.613 190.945 132.243 190.76 131.997 190.533C131.504 190.079 129.758 189.852 128.567 190.1Z" fill="#92CEEF"/>
<path d="M155.144 190.78C154.467 190.924 154.282 191.048 154.364 191.296C154.61 191.956 157.856 197.256 158.493 198.061C159.335 199.133 159.376 199.319 159.643 203.217C159.746 205.032 159.93 206.599 160.033 206.703C160.382 207.053 161.224 206.001 162.293 203.898C162.868 202.784 163.504 201.794 163.73 201.67C163.936 201.567 164.511 201.526 165.004 201.588C165.702 201.691 165.99 201.629 166.257 201.361C166.709 200.907 166.709 200.288 166.236 200.144C166.031 200.082 165.62 199.504 165.312 198.865C164.983 198.226 164.367 197.256 163.915 196.72C162.991 195.627 162.95 195.338 163.546 194.575C164.08 193.894 163.936 193.441 163.114 193.276C162.765 193.214 162.395 192.987 162.272 192.781C162.128 192.492 161.841 192.389 161.286 192.389C160.773 192.389 160.444 192.286 160.382 192.079C160.218 191.667 158.903 191.048 157.609 190.759C156.377 190.512 156.356 190.512 155.144 190.78Z" fill="#92CEEF"/>
<path d="M152.126 192.1C151.346 192.719 148.84 193.812 147.217 194.245C145.656 194.637 145.553 194.637 145.081 194.286C143.972 193.503 143.705 193.42 142.883 193.523C142.431 193.585 141.281 193.482 140.357 193.317C139.412 193.131 138.446 193.049 138.2 193.131C137.953 193.193 137.276 193.626 136.68 194.08C136.084 194.534 135.53 194.843 135.406 194.781C135.139 194.616 133.085 197.855 131.894 200.33C130.744 202.681 130.456 203.031 128.669 203.918C127.95 204.269 127.375 204.599 127.375 204.64C127.375 204.661 127.745 205.073 128.197 205.548C128.649 206.001 129.018 206.538 129.018 206.723C129.018 207.404 129.655 208.27 130.456 208.683C131.339 209.136 131.791 209.776 131.606 210.271C131.257 211.158 133.085 212.375 134.79 212.395C136.372 212.395 137.604 213.014 136.721 213.344C136.228 213.55 136.351 213.901 137.234 214.767C137.789 215.303 138.056 215.757 138.056 216.128C138.056 216.706 138.446 216.933 139.494 216.933C139.781 216.933 140.583 217.139 141.24 217.366C142.329 217.758 142.76 217.799 145.04 217.696C148.059 217.551 148.676 217.407 150.997 216.252C152.578 215.468 152.886 215.386 154.18 215.406C156.07 215.427 157.919 215.984 158.576 216.747C158.987 217.201 159.274 217.345 159.87 217.345C160.712 217.345 161.061 216.953 161.061 215.984C161.061 214.581 162.417 210.539 162.89 210.539C162.992 210.539 163.239 210.745 163.424 210.993C163.711 211.446 163.773 211.446 164.286 211.158C164.594 210.972 165.067 210.518 165.313 210.147C165.745 209.528 165.765 209.384 165.498 209.013C165.108 208.394 163.917 208.332 163.033 208.868C162.068 209.466 160.651 209.446 160.096 208.827C159.5 208.167 159.459 207.961 159.11 204.393C158.925 202.619 158.679 200.783 158.576 200.33C158.124 198.68 155.207 193.503 154.057 192.327C153.42 191.708 152.743 191.626 152.126 192.1Z" fill="#92CEEF"/>
<path d="M77.7697 195.504C75.4281 195.792 73.9286 196.143 72.9426 196.617C71.7718 197.215 70.0054 199.072 69.6767 200.082C69.5124 200.577 69.2043 200.969 68.814 201.155C67.7664 201.712 68.1567 202.165 69.6562 202.186C70.4572 202.186 70.6216 202.269 70.9913 202.867C72.2854 204.97 72.1621 204.867 73.2918 204.867C74.5859 204.847 75.3254 204.475 75.5924 203.712C75.7978 203.135 76.8864 202.289 77.4205 202.289C77.5643 202.289 77.8108 202.599 77.9751 202.97C78.1394 203.362 78.4064 203.774 78.5708 203.919C79.0432 204.31 79.7826 203.774 80.5632 202.495C80.9124 201.918 81.3026 201.464 81.4259 201.464C81.5697 201.464 81.8983 201.65 82.1859 201.877C82.4735 202.104 82.8021 202.289 82.9048 202.289C83.2129 202.289 84.5686 201.134 85.0616 200.433L85.4929 199.814L84.5686 199.938C83.7059 200.062 83.5826 200.02 82.9254 199.36C82.2475 198.68 81.7751 197.525 81.7751 196.555C81.7751 196.287 81.6724 195.895 81.5697 195.669C81.3232 195.235 80.3989 195.194 77.7697 195.504Z" fill="#92CEEF"/>
<path d="M89.8254 199.381C89.4557 199.484 88.8189 199.793 88.3876 200.082C87.8125 200.474 87.4427 200.577 86.8881 200.495C86.1897 200.391 86.1281 200.433 85.9843 201.01C85.9227 201.361 85.6352 201.794 85.3476 201.959C85.0806 202.145 84.8546 202.475 84.8546 202.701C84.8546 203.238 84.033 203.63 83.3141 203.444C83.006 203.361 82.5335 203.073 82.2254 202.763L81.6914 202.227L81.1368 202.866C80.6027 203.465 80.1303 204.661 80.1303 205.424C80.1303 206.084 79.6168 205.816 78.2406 204.455C76.7206 202.928 76.2276 202.763 76.2276 203.795C76.2276 204.805 75.673 205.176 73.6189 205.63C72.633 205.836 71.7292 206.105 71.6265 206.208C71.4827 206.352 71.5649 206.723 71.873 207.342C72.1195 207.858 72.3249 208.415 72.3249 208.559C72.3249 208.724 71.9552 209.157 71.5033 209.508C71.0514 209.858 70.6816 210.25 70.6816 210.353C70.6816 210.456 70.9487 210.972 71.2979 211.529L71.8935 212.498L71.4622 212.849L71.0103 213.179L71.5443 213.983C72.0579 214.767 73.167 215.489 73.8243 215.489C74.2557 215.489 74.6049 216.005 74.4611 216.396C74.1941 217.098 75.1184 216.685 77.0287 215.221C78.0968 214.416 79.1033 213.653 79.247 213.571C79.6373 213.323 83.1703 215.056 84.1768 215.984C85.0395 216.768 85.5325 217.923 85.8611 219.965C86.046 221.223 86.4157 221.738 89.3735 224.956C91.7152 227.513 94.18 229.741 95.3303 230.339C95.7206 230.545 96.6038 230.813 97.2816 230.958C99.1919 231.35 99.9108 231.721 100.938 232.814C101.472 233.371 102.15 233.886 102.458 233.969C103.526 234.196 103.855 234.485 104.471 235.66C104.964 236.609 105.272 236.918 106.114 237.351C106.854 237.723 107.264 238.115 107.634 238.775C108.23 239.847 109.051 242.24 109.318 243.621C109.483 244.55 109.462 244.715 108.969 245.416C108.374 246.303 107.881 247.54 107.86 248.241C107.86 248.798 108.62 249.19 109.051 248.84C109.606 248.386 110.571 246.777 110.9 245.766C111.188 244.859 111.393 244.611 112.174 244.158C112.975 243.683 113.098 243.518 113.159 242.838C113.221 242.116 113.139 241.951 111.968 240.858L110.715 239.641L111.044 238.898C111.208 238.486 111.824 237.537 112.399 236.815C113.632 235.268 113.981 235.186 115.583 236.093C116.569 236.671 117.761 237.826 117.987 238.424C118.048 238.63 118.192 238.589 118.541 238.259C118.972 237.846 118.972 237.785 118.664 237.186C118.192 236.258 116.22 234.732 113.118 232.896C109.894 230.978 108.743 230.195 108.579 229.761C108.517 229.596 108.661 229.246 108.928 228.957C109.647 228.194 109.195 227.967 106.874 227.967C104.943 227.967 104.82 227.946 103.67 227.245C102.109 226.317 100.856 224.708 100.055 222.605C98.6579 218.975 98.0416 218.17 95.8849 217.118C94.9606 216.665 94.9195 216.665 94.6319 217.036C94.1184 217.737 93.7487 217.283 93.6049 215.757C93.2352 212.045 93.2352 211.632 93.4611 211.488C93.7487 211.302 93.7487 210.291 93.4406 209.281C93.0708 208.002 93.3584 207.631 95.5357 206.723C96.5833 206.29 97.5692 205.795 97.713 205.63C98.0827 205.259 98.0827 203.32 97.713 202.413C97.4665 201.815 97.2611 201.67 96.0287 201.278C94.6935 200.886 94.3238 200.68 93.0297 199.752C92.4135 199.319 90.7908 199.133 89.8254 199.381Z" fill="#92CEEF"/>
<path d="M107.265 200.948C105.868 201.402 103.486 201.876 100.898 202.186C98.9257 202.454 98.5765 203.382 99.6652 205.548C100.631 207.486 101.637 208.105 102.418 207.239C102.89 206.723 103.362 206.723 104.389 207.26C105.437 207.775 105.684 207.693 105.684 206.806C105.704 206.208 105.807 206.063 106.485 205.754C106.895 205.548 107.245 205.259 107.265 205.115C107.265 204.991 107.286 204.558 107.306 204.166C107.347 203.547 107.512 203.32 108.539 202.536C111.045 200.618 110.49 199.917 107.265 200.948Z" fill="#92CEEF"/>
<path d="M108.95 202.99C108.149 203.362 107.78 204.001 107.944 204.785C108.088 205.486 107.923 206.002 107.554 206.002C107.41 206.002 107.04 206.414 106.732 206.95C105.91 208.353 104.534 208.642 103.713 207.59C103.425 207.218 103.322 207.198 103.055 207.425C102.542 207.858 102.665 208.58 103.446 209.528C104.349 210.601 104.493 210.848 104.658 211.797C104.74 212.251 105.13 212.932 105.623 213.509C106.362 214.355 106.445 214.54 106.342 215.18C106.219 215.819 106.28 215.984 107.102 216.788C108.437 218.15 109.649 218.768 111.272 218.975C112.052 219.078 112.709 219.14 112.709 219.119C112.73 219.119 111.908 217.882 110.861 216.397C108.889 213.571 107.656 211.323 107.656 210.56C107.656 210.312 107.759 209.92 107.862 209.693C108.067 209.343 108.314 209.302 110.286 209.302C113.942 209.302 119.036 209.858 120.248 210.374C120.823 210.622 121.316 210.745 121.357 210.642C121.686 209.611 122.179 208.992 122.651 208.992C123.37 208.992 123.452 209.652 122.754 209.92C122.302 210.085 122.261 210.188 122.446 210.518C122.548 210.745 122.754 210.993 122.856 211.055C123.165 211.24 123.082 212.437 122.754 212.89C122.22 213.592 122.384 214.272 123.329 215.242L124.192 216.128L123.473 216.727L122.754 217.304L123.329 217.84C123.801 218.273 123.863 218.438 123.678 218.789C123.555 219.037 123.247 219.202 122.959 219.202C122.63 219.202 122.281 219.449 121.912 219.923C121.542 220.418 121.213 220.645 120.946 220.604C120.618 220.563 120.474 220.707 120.35 221.243C120.227 221.677 120.001 221.965 119.734 222.048C119.385 222.13 119.344 222.254 119.447 222.976C119.611 223.925 120.946 226.07 121.439 226.173C121.645 226.214 122.179 225.822 122.672 225.265C123.165 224.75 123.781 224.234 124.027 224.131C125.075 223.739 127.499 225.1 127.725 226.235C127.786 226.585 127.971 226.915 128.135 226.977C128.3 227.039 129.039 226.812 129.799 226.462C130.806 225.987 131.709 225.76 133.127 225.595C135.448 225.348 135.818 225.059 135.653 223.739C135.55 222.976 135.612 222.852 136.495 221.986C137.502 220.975 137.625 220.707 137.132 220.522C136.639 220.336 135.653 218.645 135.386 217.572C135.181 216.727 135.201 216.458 135.468 215.922C135.838 215.221 135.9 213.488 135.592 213.014C135.407 212.746 135.304 212.787 134.914 213.262C134.647 213.592 134.38 213.839 134.318 213.839C134.236 213.839 133.579 213.427 132.86 212.911C131.956 212.292 131.463 211.777 131.299 211.323C130.785 209.962 130.415 209.384 129.573 208.765C128.957 208.291 128.608 207.837 128.361 207.115C128.156 206.517 127.663 205.775 127.17 205.28C126.43 204.558 126.225 204.455 125.362 204.475C124.13 204.475 122.199 204.908 121.706 205.28C121.336 205.548 121.336 205.589 121.686 206.95C121.994 208.147 121.994 208.394 121.768 208.642C121.275 209.137 120.802 208.415 120.802 207.157C120.802 206.105 120.556 205.589 120.063 205.589C119.94 205.589 119.775 205.775 119.714 206.002C119.467 206.95 116.961 206.249 113.408 204.248C110.738 202.763 109.957 202.537 108.95 202.99Z" fill="#92CEEF"/>
<path d="M108.211 209.652C107.923 209.941 108.088 210.807 108.663 211.962C109.69 213.983 112.072 217.386 113.284 218.541C113.921 219.16 114.435 219.82 114.435 220.006C114.435 220.686 115.626 222.048 117.125 223.12C117.947 223.677 118.728 224.151 118.851 224.151C119.036 224.151 119.077 223.883 119.015 223.244C118.851 221.759 120.165 219.799 121.09 220.15C121.357 220.253 121.398 220.129 121.357 219.469C121.316 218.727 121.357 218.686 121.932 218.624C123.082 218.521 123.144 218.438 122.651 217.675C122.363 217.18 122.24 216.685 122.281 216.108C122.302 215.489 122.22 215.179 121.994 215.056C121.295 214.664 121.398 212.808 122.137 212.808C122.466 212.808 122.774 211.941 122.548 211.591C122.466 211.446 122.096 211.405 121.644 211.488C121.069 211.57 120.638 211.488 120.022 211.178C118.933 210.621 117.885 210.415 114.373 210.023C110.614 209.611 110.758 209.611 110.511 210.333C110.388 210.663 110.244 210.951 110.203 210.951C110.142 210.951 109.834 210.621 109.484 210.229C108.868 209.528 108.498 209.363 108.211 209.652Z" fill="#92CEEF"/>
<path d="M136.331 215.922C135.961 216.211 135.797 216.541 135.797 216.994C135.797 217.861 136.906 219.779 137.666 220.191C138.631 220.748 138.406 222.089 137.317 222.089C136.68 222.089 136.475 222.439 136.331 223.945C136.167 225.616 136.413 226.441 137.337 227.472C138.056 228.276 138.138 228.503 138.056 229.555C138.036 229.988 138.159 230.194 138.549 230.359C138.981 230.566 139.412 230.524 140.829 230.174C143.089 229.596 143.869 229.596 145.554 230.236C147.32 230.916 149.128 230.958 150.442 230.38C151.161 230.071 151.49 229.741 151.921 228.936C152.846 227.245 154.879 226.523 156.337 227.369C157.015 227.781 157.488 227.658 157.796 226.956C158.124 226.255 157.631 225.286 156.954 225.286C156.337 225.265 156.337 224.749 156.974 223.945C157.344 223.491 157.857 222.46 158.7 220.48C158.905 220.026 159.295 219.676 159.911 219.366C161.226 218.727 161.349 217.984 160.158 217.964C159.932 217.964 158.823 217.531 157.693 216.974C155.783 216.087 155.495 216.004 154.078 216.004C152.62 216.004 152.455 216.046 150.689 217.036L148.84 218.067L145.246 218.046C139.905 218.026 137.584 217.551 137.502 216.52C137.502 216.231 137.481 215.881 137.461 215.736C137.44 215.365 136.947 215.427 136.331 215.922Z" fill="#92CEEF"/>
<path d="M8.85504 218.541C8.40315 218.748 8.11558 219.078 8.0745 219.346C7.9718 220.088 7.08855 220.645 5.97937 220.645C5.01396 220.645 4.56207 220.934 4.2745 221.718C4.21288 221.924 4.41828 222.584 4.78801 223.265C5.15774 223.925 5.54801 225.018 5.67126 225.698L5.8972 226.936H7.12964C8.09504 226.936 8.42369 227.018 8.79342 227.39C9.47126 228.07 10.8064 228.194 11.9361 227.678C13.0659 227.163 14.8529 227.101 15.3048 227.575C15.4896 227.74 15.6334 228.111 15.6334 228.38C15.6334 228.627 15.8183 229.06 16.0237 229.328C16.4756 229.906 16.3934 230.236 15.3048 231.886C14.6475 232.855 14.5242 233.247 14.401 234.629C14.3188 235.619 14.1134 236.444 13.8875 236.795C13.6615 237.145 13.5794 237.558 13.641 237.929C13.7642 238.568 13.2302 239.971 12.6961 240.425C12.2237 240.816 12.2648 241.353 12.8194 242.26C13.5999 243.518 13.6204 243.683 12.9426 244.962L12.3059 246.179L12.7372 247.148C13.2918 248.386 13.2713 248.53 12.6756 249.087C12.388 249.355 12.0183 249.891 11.8334 250.283C11.5253 250.923 11.5253 251.026 11.8129 251.5C11.9977 251.768 12.6756 252.263 13.3329 252.593C14.7913 253.336 15.3253 253.913 16.6399 256.161C17.6875 257.956 18.6734 258.946 19.228 258.719C19.3923 258.657 19.6594 258.306 19.8648 257.935C20.3988 256.863 20.9534 256.368 21.9804 256.038C23.4594 255.543 26.561 255.11 29.601 254.965C32.8669 254.8 33.3599 254.635 34.6334 253.13C35.7221 251.851 36.8518 251.026 37.8994 250.737C38.454 250.593 38.6594 250.386 38.7621 249.974C39.0086 248.984 39.6248 247.932 40.8161 246.53C42.1513 244.941 42.1718 244.715 41.1037 242.405L40.4464 240.961L42.4388 238.073C43.548 236.485 44.7188 234.691 45.0475 234.093C45.7869 232.814 46.5059 232.34 49.4637 231.267C51.7437 230.442 53.7361 229.184 54.5577 228.07C55.2767 227.101 55.2767 224.976 54.5372 224.976C54.3934 224.976 54.1675 225.162 54.0442 225.389C53.8594 225.74 53.6129 225.801 52.4421 225.801C51.6204 225.801 50.8194 225.678 50.4702 225.492C50.1415 225.306 49.5459 225.203 49.135 225.224C48.4983 225.286 48.3956 225.224 48.2107 224.667C48.0875 224.316 47.9026 223.986 47.7794 223.904C47.6767 223.821 46.6086 223.739 45.4172 223.739C40.9599 223.739 37.9199 223.058 36.3999 221.738C35.1675 220.707 34.1199 220.501 27.9783 220.233C23.0691 220.006 20.7891 219.758 18.8172 219.222C18.3653 219.098 16.8248 219.016 15.4075 219.016C13.1891 219.016 12.655 218.954 11.8745 218.603C10.7242 218.067 9.79991 218.046 8.85504 218.541Z" fill="#92CEEF"/>
<path d="M79.2685 224.584C78.8371 224.894 78.6934 225.183 78.6934 225.698C78.6934 227.018 79.1453 229.617 79.4328 229.906C79.6793 230.174 79.782 230.153 80.2544 229.699C81.4869 228.544 82.2058 226.131 81.6923 224.894C81.4047 224.234 81.302 224.151 80.6036 224.151C80.1517 224.172 79.5971 224.337 79.2685 224.584Z" fill="#92CEEF"/>
<path d="M123.862 224.811C122.999 225.1 122.753 225.946 123.143 227.266C123.554 228.606 123.574 232.381 123.184 233.474C122.958 234.093 122.958 234.361 123.184 235.021C123.348 235.454 123.472 236.052 123.472 236.361C123.472 236.753 123.677 237.042 124.149 237.372C125.053 237.991 125.526 238.609 125.526 239.146C125.526 239.414 125.608 239.62 125.71 239.62C126.039 239.62 127.292 238.011 127.99 236.712C128.34 236.031 128.771 235.413 128.935 235.351C129.387 235.186 129.285 234.794 128.36 232.999C127.497 231.37 127.477 231.267 127.477 229.349C127.477 227.905 127.374 227.183 127.128 226.729C126.409 225.389 124.848 224.461 123.862 224.811Z" fill="#92CEEF"/>
<path d="M130.908 226.647C130.661 226.895 130.394 227.06 130.333 226.977C130.024 226.689 129.059 227.493 128.525 228.483C127.847 229.741 127.786 230.628 128.279 231.721C128.689 232.649 129.429 233.165 130.456 233.227C131.811 233.33 132.243 233.227 133.208 232.567C133.804 232.196 134.626 231.845 135.262 231.762C137.152 231.453 137.809 229.824 136.762 227.988C136.084 226.751 135.221 226.359 133.126 226.256C131.462 226.173 131.298 226.194 130.908 226.647Z" fill="#92CEEF"/>
<path d="M6.63728 227.699C6.26755 227.802 5.89782 228.029 5.8362 228.194C5.77458 228.359 5.87728 229.122 6.08269 229.864C6.86323 232.752 5.93891 238.486 4.1108 241.93C3.63837 242.838 3.51512 243.333 3.5562 243.993C3.59728 244.611 3.69999 244.859 3.90539 244.818C4.41891 244.714 5.48701 245.189 6.04161 245.766C6.55512 246.303 6.5962 246.426 6.41134 247.375C6.08269 249.211 5.93891 251.871 6.16485 252.428C6.30864 252.861 6.57566 253.026 7.39728 253.233C9.16377 253.645 9.80053 253.583 10.4989 252.923C10.9919 252.449 11.1151 252.16 11.1151 251.479C11.1151 250.902 11.3205 250.201 11.7313 249.458C12.4503 248.118 12.4913 247.664 11.9984 246.818C11.6492 246.22 11.6492 246.179 12.2038 245.209C12.9432 243.869 12.9021 243.353 11.9573 241.724C11.5259 240.961 11.1357 240.259 11.1357 240.156C11.1151 240.053 11.5465 239.826 12.0805 239.641L13.0665 239.311V238.176C13.0665 237.434 13.1897 236.856 13.4362 236.526C13.6621 236.196 13.7854 235.619 13.7854 234.773C13.7854 233.556 13.9703 233.041 15.0384 231.164C15.5519 230.256 15.4492 229.06 14.7919 228.359C14.1757 227.699 12.8405 227.678 12.1216 228.297C11.6903 228.668 11.4232 228.709 10.1086 228.648C8.89674 228.586 8.54755 228.483 8.25999 228.153C7.8081 227.596 7.43837 227.493 6.63728 227.699Z" fill="#92CEEF"/>
<path d="M153.729 227.761C152.825 228.153 152.352 228.916 152.537 229.72C152.64 230.153 152.578 230.524 152.352 230.854C151.654 231.927 152.167 234.072 153.256 234.67C153.893 235.021 154.447 234.814 155.68 233.763C156.974 232.649 157.693 232.422 160.712 232.236L163.013 232.071L161.678 231.432C160.137 230.689 159.706 230.339 158.884 229.204C158.124 228.153 157.98 228.049 157.446 228.173C157.22 228.214 156.686 228.091 156.276 227.864C155.392 227.389 154.653 227.348 153.729 227.761Z" fill="#92CEEF"/>
<path d="M185.812 227.679C185.36 227.761 184.272 227.844 183.388 227.844C179.917 227.885 174.597 229.906 172.646 231.927L171.742 232.897L169.934 232.629C167.737 232.299 164.08 232.092 163.628 232.257C162.868 232.567 164.655 234.052 165.785 234.052C166.586 234.052 166.175 234.444 164.923 234.856C163.238 235.434 162.91 235.64 163.3 235.887C163.711 236.155 162.971 236.238 158.699 236.506C154.447 236.754 152.804 237.166 151.818 238.3C151.304 238.899 151.201 239.187 151.243 239.785L151.304 240.549L152.906 240.507C153.769 240.466 154.488 240.487 154.488 240.549C154.488 240.59 154.303 240.94 154.077 241.332L153.646 242.054L154.385 242.92C154.775 243.395 155.104 243.849 155.104 243.931C155.104 244.014 154.878 244.385 154.591 244.777C154.303 245.169 154.077 245.499 154.077 245.54C154.077 245.581 154.324 245.849 154.611 246.117C154.919 246.406 155.063 246.633 154.94 246.633C154.591 246.633 154.077 247.252 154.077 247.705C154.077 247.994 154.324 248.2 154.899 248.427C155.597 248.716 155.72 248.86 155.72 249.355C155.72 249.685 155.597 249.995 155.412 250.057C154.919 250.242 155.043 250.552 156.028 251.604C156.521 252.14 156.994 252.8 157.055 253.068C157.179 253.542 157.24 253.563 158.144 253.419C159.705 253.15 159.808 253.192 160.835 254.161C161.39 254.677 162.026 255.089 162.273 255.089C162.56 255.089 162.848 255.316 163.074 255.729C164.101 257.626 165.128 258.162 166.812 257.647C167.819 257.358 169.072 256.224 169.072 255.605C169.072 254.945 169.565 254.264 170.037 254.264C171.413 254.264 175.398 256.079 177.124 257.482C178.335 258.492 178.952 258.595 180.574 258.1C182.32 257.564 183.388 256.987 184.457 256.038C185.032 255.522 185.751 255.027 186.038 254.965C186.819 254.759 188.339 254.986 188.77 255.378C189.284 255.852 189.653 255.79 190.537 255.089C191.481 254.326 191.954 254.182 192.488 254.47C193.063 254.78 193.001 255.275 192.283 256.347C191.194 257.977 191.605 259.709 192.817 258.575C193.577 257.874 193.926 257.09 193.926 256.12C193.926 255.646 194.028 255.089 194.131 254.862C194.398 254.388 195.24 254.347 195.98 254.78C196.699 255.192 197.459 255.172 199.451 254.635L201.156 254.182L203.148 254.635C204.237 254.883 205.326 255.089 205.593 255.089C205.839 255.089 207.051 254.759 208.263 254.367C211.18 253.439 212.145 253.233 214.507 253.027C215.801 252.924 216.705 252.738 217.116 252.49C217.712 252.14 217.773 252.14 218.348 252.47C218.883 252.779 219.006 252.779 219.684 252.511C220.238 252.284 221.265 252.202 223.894 252.202C226.133 252.202 227.427 252.119 227.51 251.975C227.777 251.562 227.386 250.675 226.647 250.015C225.969 249.376 225.928 249.273 226.133 248.799C226.626 247.726 226.339 244.962 225.435 242.343C225.106 241.374 225.188 241.064 225.723 241.064C226.462 241.064 226.996 240.466 226.996 239.62C226.996 238.713 226.626 238.383 225.579 238.383C224.47 238.383 223.997 238.053 223.545 236.98C223.032 235.784 222.991 235.434 223.34 234.877C223.689 234.32 223.196 233.412 221.676 231.824C220.32 230.401 219.868 230.257 217.588 230.545C215.658 230.793 214.939 231.04 213.337 231.907C211.159 233.103 208.879 233.495 206.99 232.979C206.25 232.794 205.716 232.814 204.011 233.103C201.403 233.577 200.15 233.433 196.904 232.381C195.548 231.948 194.213 231.577 193.946 231.577C193.577 231.577 193.104 231.226 192.344 230.401C191.502 229.494 191.194 229.287 191.009 229.473C190.66 229.824 189.592 229.782 189.037 229.39C188.77 229.205 188.339 228.71 188.051 228.256C187.517 227.39 187.332 227.349 185.812 227.679Z" fill="#92CEEF"/>
<path d="M141.548 230.669C141.035 230.834 139.946 231.04 139.104 231.143C137.933 231.288 137.502 231.432 137.255 231.762C137.009 232.071 136.557 232.236 135.53 232.381C134.215 232.566 133.045 233.082 132.51 233.742C132.346 233.928 131.894 234.051 131.381 234.051C130.169 234.051 129.84 234.216 129.84 234.794C129.84 235.062 129.573 235.578 129.245 235.969C128.916 236.341 128.567 236.959 128.464 237.351C128.32 237.846 128.135 238.094 127.766 238.176C127.314 238.3 127.273 238.403 127.293 239.455C127.334 241.27 128.485 243.003 129.881 243.333L130.559 243.498L129.902 243.642C128.895 243.869 128.731 244.178 129.121 245.106C129.614 246.303 129.881 246.406 132.346 246.426C133.558 246.426 135.037 246.529 135.633 246.653C137.029 246.942 140.213 248.489 141.281 249.417C141.733 249.809 142.165 250.077 142.226 250.015C142.432 249.809 141.98 248.468 141.487 247.808C140.973 247.148 140.069 246.468 137.543 244.859L136.31 244.096L136.988 243.91C137.666 243.724 137.666 243.724 137.338 243.209C137.153 242.92 137.029 242.487 137.07 242.239C137.132 241.848 137.255 241.786 138.015 241.827C138.734 241.868 138.899 241.806 138.837 241.538C138.796 241.353 138.488 241.126 138.118 241.023C137.481 240.858 137.42 240.754 137.132 239.538C137.07 239.187 136.824 238.671 136.598 238.362C136.393 238.053 136.208 237.599 136.208 237.372C136.208 236.856 136.639 235.784 137.091 235.186C137.399 234.794 137.42 234.794 137.563 235.392C137.769 236.299 138.241 236.733 139.001 236.733C140.254 236.733 140.665 236.444 140.809 235.433C140.891 234.918 141.138 234.34 141.363 234.154C141.836 233.701 145.061 233.041 146.704 233.02C147.32 233.02 148.327 233.164 148.922 233.35C149.518 233.515 150.34 233.639 150.75 233.598C151.469 233.536 151.51 233.494 151.469 232.814C151.449 232.422 151.305 232.009 151.12 231.865C150.935 231.741 149.99 231.576 149.005 231.514C147.998 231.432 146.416 231.143 145.472 230.854C143.5 230.277 142.863 230.236 141.548 230.669Z" fill="#92CEEF"/>
<path d="M78.55 233.453C77.3382 234.031 77.256 234.113 77.256 234.773C77.256 235.165 77.3998 236.011 77.5641 236.671C77.9544 238.197 77.9544 239.332 77.523 240.899L77.1738 242.157L77.9749 242.858C78.4063 243.23 78.8992 243.539 79.043 243.539C79.2073 243.539 79.5771 243.25 79.8646 242.9C80.1522 242.57 80.5219 242.322 80.6657 242.384C81.2614 242.611 82.0009 240.713 82.2884 238.218C82.5349 236.011 81.3436 232.814 80.2754 232.814C80.029 232.814 79.2484 233.103 78.55 233.453Z" fill="#92CEEF"/>
<path d="M132.818 247.499C132.592 247.623 131.914 248.097 131.318 248.551L130.25 249.376L131.482 250.675C132.674 251.913 132.941 252.449 132.509 252.717C132.201 252.903 132.263 253.975 132.592 254.244C132.818 254.45 133.002 254.45 133.331 254.264C133.968 253.914 134.276 254.12 134.872 255.295C135.159 255.852 135.467 256.327 135.549 256.327C135.652 256.327 135.878 255.976 136.084 255.564L136.453 254.78L136.844 255.275C137.069 255.543 137.357 255.708 137.542 255.625C138.035 255.44 137.912 254.161 137.213 252.573C136.864 251.789 136.638 251.088 136.7 251.005C136.761 250.944 137.275 251.109 137.809 251.356C138.959 251.892 139.966 251.872 140.068 251.294C140.13 250.985 140.068 250.923 139.699 251.026C139.37 251.109 139.021 250.944 138.405 250.366C137.172 249.273 136.248 248.613 135.077 248.035C133.68 247.314 133.29 247.231 132.818 247.499Z" fill="#92CEEF"/>
<path d="M96.564 248.592C96.3997 248.778 96.03 248.901 95.6192 248.86C95.2289 248.84 94.7975 248.943 94.6743 249.087C94.0581 249.706 97.8375 252.263 100.364 252.923C101.72 253.274 102.377 253.645 102.829 254.346C103.014 254.615 103.445 254.965 103.774 255.089C104.308 255.316 104.472 255.295 104.945 254.945C105.643 254.429 105.725 253.893 105.314 252.655C104.965 251.583 105.068 250.964 105.889 249.417C106.567 248.138 106.649 248.159 102.829 248.592C100.508 248.84 99.9943 248.84 98.9262 248.592C97.3446 248.221 96.8721 248.221 96.564 248.592Z" fill="#92CEEF"/>
<path d="M141.137 262.06C141.137 262.308 142.082 262.617 143.335 262.803C143.807 262.865 144.629 263.153 145.163 263.442C146.868 264.35 149.661 263.958 148.47 262.968C147.874 262.473 141.137 261.627 141.137 262.06Z" fill="#92CEEF"/>
</svg>
