<svg width="213" height="237" viewBox="0 0 213 237" fill="none" xmlns="http://www.w3.org/2000/svg">
<g id="layer1">
<g id="g4576">
<path id="polygon973" d="M51.5792 91.2703L52.361 90.5003L50.602 87.8057L50.0156 88.3831L51.5792 90.1154L50.2111 91.0778L51.5792 91.2703Z" fill="#92CEEF" stroke="#80D9B1" stroke-width="0.402114" stroke-miterlimit="4.41808"/>
<path id="polygon987" d="M51.5792 91.2703L52.361 90.5003L50.602 87.8057L50.0156 88.3831L51.5792 90.1154L50.2111 91.0778L51.5792 91.2703Z" fill="#92CEEF" stroke="#80D9B1" stroke-width="0.402114" stroke-miterlimit="4.41808"/>
<path id="polygon1019" d="M201.097 98.9689H200.901L195.233 98.7765L192.302 97.0442L188.589 99.9313L188.783 97.6216L189.761 96.8517L188.197 97.0442L189.565 96.0818L188.589 93.9645L187.611 95.3119L187.22 93.5796L186.829 94.157L187.024 93.5796L186.243 93.9645L185.461 92.8097L185.07 93.5796V92.2322L184.484 93.0021L181.943 91.2699L181.747 91.8473L179.988 91.2699L178.816 93.7721L179.988 93.9645L178.816 94.542L178.229 93.5796L175.884 96.4667L176.47 94.3495L173.343 94.9269L177.643 93.7721L179.011 90.3075L173.734 89.3451L172.366 92.0398L172.17 90.6924L170.998 92.0398V90.4999L169.826 91.8473L170.998 89.1526L174.907 85.4955H174.125L174.712 83.9557L172.366 82.8008L170.802 76.2566L170.02 75.6792L169.826 76.834L166.507 81.6992L166.422 82.1573L163.976 81.5716L162.953 82.3272L161.635 81.4623L163.173 78.3183L161.661 73.8858L163.013 71.3949L162.398 71.0597H153.994L150.281 67.7876L149.303 69.3274L149.889 66.4403L148.13 64.5155L145.199 62.7832V63.3606L145.395 63.7456V68.9425L145.59 69.3274V77.604L145.785 77.9889V97.8141H150.281L152.821 95.6968L155.557 96.2743L157.316 94.3495L160.639 94.542L161.812 95.1194L161.616 95.8893H162.593L166.893 93.5796L162.984 95.8893L160.444 96.0818L159.075 99.5464L159.662 95.6968L161.225 95.8893L158.489 95.3119H160.053L158.685 94.542L155.557 96.2743L153.017 95.6968L149.694 98.584L146.567 97.8141L145.785 98.199V98.584L145.59 98.9689V107.438L145.395 107.823V113.02L145.199 113.405V117.64L145.003 118.024V118.41H148.326L148.912 118.602H155.362L155.753 118.794H161.616L162.007 118.987H167.089L167.48 119.179H172.366L172.757 119.372H177.057L177.252 119.564H181.552L181.943 119.757H185.266L185.656 119.949H189.371L189.761 120.141H193.083L193.475 120.334H196.406L196.797 120.526H199.533L199.729 120.141V118.41L199.925 118.024V116.292L200.119 115.907V114.175L200.315 113.79V111.48L200.51 111.095V108.593L200.706 108.208V104.743L200.901 104.166V99.9313L201.097 99.5464V98.9689ZM145.785 98.199L140.312 100.124L138.553 99.1614L135.231 101.471L134.841 100.316L135.817 100.124L131.713 98.199L131.322 98.7765L129.955 96.2743L127.804 95.5044H123.504L121.159 98.3915L117.836 98.199L116.86 99.7389L117.445 100.124L115.881 101.086L114.709 99.5464L111.192 98.9689L110.018 97.4291L106.305 98.199L107.477 97.6216L106.695 97.4291L108.064 97.6216L110.018 97.2366L111.192 98.9689L114.709 99.1614L116.078 100.894L117.445 100.124L116.663 99.7389L117.836 98.199L121.354 98.0066L123.504 95.5044L129.563 95.1194L132.69 98.584L136.599 100.316L138.553 99.1614L139.922 99.9313L142.853 98.9689L143.244 97.6216L145.785 97.8141L144.026 97.4291L140.899 92.6172L134.841 89.3451L126.632 89.1526L128.195 88.5752L134.644 88.9601L141.094 92.4247L145.785 97.8141V77.9889L145.59 77.604V69.3274L145.395 68.9425V63.7456L145.199 63.3606V62.7832L144.613 62.3982L142.658 62.5907V60.0885L140.312 58.7412L138.163 58.9337L137.772 58.3562H133.667L133.276 58.1637H118.813L118.227 57.9713H111.777L112.168 58.9337V60.0885L110.213 60.8584L108.845 58.5487L109.236 57.9713H98.0957L98.292 59.5111L94.3822 62.2058L94.7731 64.1305L91.4505 60.666L88.3234 59.3186L86.1734 59.1261L85.197 59.7036V60.8584L85.0008 61.4359V62.3982L87.9325 60.8584L89.8869 62.7832L90.8642 62.5907L89.8869 64.1305L93.2096 68.1726L92.4278 75.1018L93.9905 76.0641L93.7959 76.834L91.8422 79.7212L89.3006 80.4911L89.496 82.4159L87.9325 82.8008L88.1279 84.5331L85.0008 85.3031V94.9269L85.3916 94.542L85.7817 95.6968L85.0008 98.0066V108.208L88.1279 112.635L90.4733 118.024H93.0141L93.6004 117.832H106.891L107.282 118.024H128.781L129.172 118.217H139.727L140.117 118.41H145.003V118.024L145.199 117.64V113.405L145.395 113.02V107.823L145.59 107.438V98.9689L145.785 98.584V98.199ZM142.071 57.9713L142.267 56.0465L140.117 56.239L140.703 57.5863L139.335 58.1637L142.071 57.9713ZM109.236 57.9713L110.604 56.0465L109.432 53.5443L111.973 52.0045L110.213 50.8496L105.524 54.3142L102.786 54.1217L102.396 55.0841L100.637 54.6992L99.4639 55.6615L98.0957 57.5863V57.9713H109.236ZM137.772 58.3562L136.599 57.2014L139.531 56.239H132.495L134.254 56.8164L130.149 57.9713L126.632 56.239L120.964 56.6239L120.182 54.6992L116.468 53.7368L115.1 51.6195L114.513 53.3518L115.881 53.1593V53.9292L114.904 53.5443L110.604 55.6615L111.777 57.9713H118.227L118.813 58.1637H133.276L133.667 58.3562H137.772ZM142.071 57.9713L142.267 56.0465L140.117 56.239L140.703 57.5863L139.335 58.1637L142.071 57.9713ZM85.0008 98.0066L81.0918 100.701L82.4599 104.936L81.4827 105.898L85.0008 108.208V98.0066ZM85.0008 96.0818H84.2181L84.6099 96.8517L85.0008 96.4667V96.0818ZM85.0008 87.4203L83.4372 88.9601L84.0235 89.73L82.0699 90.8849L82.2645 94.9269L84.2181 96.0818L85.0008 94.9269V87.4203ZM85.0008 85.3031L84.6099 85.4955L85.0008 86.6504V85.3031ZM123.113 69.3274L124.286 66.6328L126.436 65.0929L128.781 64.323L131.126 65.0929L138.553 62.3982L138.749 61.6283L138.163 59.1261L138.944 62.2058L140.312 62.3982L133.276 64.323L130.931 65.0929L128.781 64.323L126.632 65.0929L123.113 69.3274ZM137.381 64.9005L136.99 67.7876L136.404 65.2854L137.381 64.9005ZM85.0008 96.4667L85.197 96.0818H85.0008V96.4667ZM123.113 69.3274L124.286 66.6328L126.436 65.0929L128.781 64.323L131.126 65.0929L138.553 62.3982L138.749 61.6283L138.163 59.1261L138.944 62.2058L140.312 62.3982L133.276 64.323L130.931 65.0929L128.781 64.323L126.632 65.0929L123.113 69.3274ZM137.381 64.9005L136.99 67.7876L136.404 65.2854L137.381 64.9005ZM174.516 89.3451L175.494 88.1902L173.539 88.3827L174.516 89.3451ZM170.608 96.0818L170.02 94.3495L172.561 94.542L171.78 95.6968L172.17 96.6592L170.998 94.542L170.608 96.0818ZM160.248 73.7544L160.639 74.9093L159.075 75.1018L160.248 73.7544ZM155.557 92.4247L157.512 92.8097L157.903 93.9645L155.557 92.4247ZM174.516 89.3451L175.494 88.1902L173.539 88.3827L174.516 89.3451ZM170.608 96.0818L170.02 94.3495L172.561 94.542L171.78 95.6968L172.17 96.6592L170.998 94.542L170.608 96.0818ZM160.248 73.7544L160.639 74.9093L159.075 75.1018L160.248 73.7544ZM208.915 121.296L212.237 116.484L212.824 112.828L212.237 107.823L211.455 106.668L207.742 105.898L204.811 101.856L201.097 98.9689V99.5464L200.901 99.9313V104.166L200.706 104.743V108.208L200.51 108.593V111.095L200.315 111.48V113.79L200.119 114.175V115.907L199.925 116.292V118.024L199.729 118.41V120.141L199.533 120.526L199.925 120.719H202.856L203.247 120.911H205.592L206.178 121.104H208.328L208.915 121.296ZM208.915 121.296L212.237 116.484L212.824 112.828L212.237 107.823L211.455 106.668L207.742 105.898L204.811 101.856L201.097 98.9689M140.509 176.537L140.899 174.421L141.485 173.843L143.635 169.609L145.003 168.838L151.648 169.609H143.635L141.094 174.997L140.703 176.537H145.785L146.177 176.73H152.43L152.821 176.922H158.294L158.685 177.115H163.375L163.766 177.307H164.353L165.721 175.382L168.652 173.458L170.216 169.609L169.826 167.106L171.389 165.18L170.608 164.605L171.78 164.797L173.93 162.679L177.252 160.562H179.598L182.725 158.059L184.679 158.636L186.047 157.482L185.852 158.445L188.393 158.636L188.783 157.29L191.52 155.942V154.402L195.039 149.975L195.233 149.398V149.012L195.429 148.629V148.243L195.624 147.858V146.897L195.82 146.511V146.126L196.015 145.74V145.163L196.21 144.779V144.009L196.406 143.624V143.046L196.601 142.66V141.891L196.797 141.314V140.545L196.992 140.159V139.774L197.188 139.198V138.427L197.383 138.042V137.079L197.579 136.695V135.733L197.774 135.347V134.576L197.97 134V133.23L198.165 132.846V131.883L198.361 131.497V130.535L198.556 130.15V128.803L198.751 128.418V127.649L198.947 127.071V125.916L199.143 125.338V124.183L199.338 123.606V122.259L199.533 121.874V120.526H196.797L196.406 120.334H193.475L193.083 120.141H189.761L189.371 119.949H185.656L185.266 119.757H181.943L181.552 119.564H177.252L177.057 119.372H172.757L172.366 119.179H167.48L167.089 118.987H162.007L161.616 118.794H155.753L155.362 118.602H148.912L148.326 118.41H145.003V121.874L144.808 122.452V125.531L144.613 125.916V128.61L144.417 128.995V131.69L144.221 132.075V134.769L144.026 135.155V137.273L143.83 137.849V139.967L143.635 140.352V142.085L143.44 142.47V144.2L143.244 144.779V146.511L143.049 146.897V148.629L142.853 149.012V150.745L142.658 151.13V152.863L142.462 153.248V154.595L142.267 154.981V156.713L142.071 157.096V158.253L141.876 158.829V159.985L141.681 160.368V161.717L141.485 162.102V163.448L141.291 163.834V164.988L141.094 165.374V166.72L140.899 167.106V167.877L140.703 168.26V169.609L140.509 169.992V171.149L140.312 171.532V172.495L140.117 172.881V173.65L139.922 174.035V175.19L139.727 175.575V176.537H140.509ZM90.4733 118.024L92.2323 121.874L96.7284 128.034L96.1413 129.574L97.5094 131.883L99.8556 134.193L110.604 139.774L113.927 143.046L114.318 147.666V151.901L112.559 157.867L112.95 163.065L109.627 173.072L110.213 175.768L110.018 175.961L110.41 176.153H127.999L128.195 176.344H137.772L138.163 176.537H139.727V175.575L139.922 175.19V174.035L140.117 173.65V172.881L140.312 172.495V171.532L140.509 171.149V169.992L140.703 169.609V168.26L140.899 167.877V167.106L141.094 166.72V165.374L141.291 164.988V163.834L141.485 163.448V162.102L141.681 161.717V160.368L141.876 159.985V158.829L142.071 158.253V157.096L142.267 156.713V154.981L142.462 154.595V153.248L142.658 152.863V151.13L142.853 150.745V149.012L143.049 148.629V146.897L143.244 146.511V144.779L143.44 144.2V142.47L143.635 142.085V140.352L143.83 139.967V137.849L144.026 137.273V135.155L144.221 134.769V132.075L144.417 131.69V128.995L144.613 128.61V125.916L144.808 125.531V122.452L145.003 121.874V118.41H140.117L139.727 118.217H129.172L128.781 118.024H107.282L106.891 117.832H93.6004L93.0141 118.024H90.4733ZM195.039 149.975L195.82 149.012L196.797 145.549L198.361 143.624L201.488 129.188L201.878 128.61L202.269 129.765L203.442 128.803L208.915 121.296L208.328 121.104H206.178L205.592 120.911H203.247L202.856 120.719H199.925L199.533 120.526V121.874L199.338 122.259V123.606L199.143 124.183V125.338L198.947 125.916V127.071L198.751 127.649V128.418L198.556 128.803V130.15L198.361 130.535V131.497L198.165 131.883V132.846L197.97 133.23V134L197.774 134.576V135.347L197.579 135.733V136.695L197.383 137.079V138.042L197.188 138.427V139.198L196.992 139.774V140.159L196.797 140.545V141.314L196.601 141.891V142.66L196.406 143.046V143.624L196.21 144.009V144.779L196.015 145.163V145.74L195.82 146.126V146.511L195.624 146.897V147.858L195.429 148.243V148.629L195.233 149.012V149.398L195.039 149.975ZM102.396 210.413L103.568 209.837V206.565H102.396L102.005 207.719L101.419 210.028L102.396 210.413ZM104.546 213.685L104.741 212.724L103.568 213.3L104.546 213.685ZM100.246 222.154L101.419 222.348L100.832 221.191L100.246 222.154ZM104.155 223.117L104.35 221.769L104.936 222.731L105.132 221.962L105.718 223.502L104.155 223.117ZM104.546 218.69L105.132 217.536L108.454 217.728H106.109L104.546 218.69ZM107.868 204.062L109.041 204.832L107.868 205.025V204.062ZM105.132 205.409V204.447L105.914 205.216L105.132 205.409ZM101.223 216.958L102.005 217.342L101.419 217.919L101.223 216.958ZM100.441 225.234L101.419 225.042L100.832 222.348L100.441 224.08L99.2684 223.888L100.05 225.042L101.027 223.888L100.441 225.234ZM103.568 225.234H107.282L107.868 225.427H112.95L112.754 224.849L113.145 225.427H114.122L115.1 223.309L119.204 221L119.4 219.268L117.445 218.882L115.881 216.765L117.641 214.84L120.768 214.07L121.549 211.184L124.09 209.644L122.722 208.874L124.09 208.488L124.677 209.452L125.85 208.681L125.654 207.526L123.895 208.295L122.722 207.334L123.308 204.062L126.045 205.216L129.367 204.64L130.149 200.789L130.736 200.982L130.345 199.442L133.081 200.02L135.817 199.635V198.864L136.013 198.481V197.902L136.208 197.517V196.748L136.404 196.362V195.592L136.599 195.208V194.63L136.794 194.245V193.476L136.99 193.09V192.705L137.185 192.32V191.551L137.381 191.358V190.589L137.576 190.204V189.433L137.772 189.048V187.893L137.967 187.508V186.739L138.163 186.354V185.777L138.358 185.392V184.621L138.553 184.236V183.466L138.749 183.082V182.312L138.944 181.927V180.773L139.14 180.387V179.616L137.185 181.734V185.006L136.99 181.542L139.335 179.233V178.27L139.531 177.884V177.115L139.727 176.73V176.537H138.163L137.772 176.344H128.195L127.999 176.153H110.41L110.018 175.961L108.845 177.693V185.777L104.741 194.823L103.373 195.401L104.546 200.789L102.591 204.64L103.764 205.986L102.982 206.372L104.936 205.794L105.718 205.986L106.5 205.601L105.132 206.948L106.305 207.526L105.914 208.295L105.132 207.719L105.914 208.488L105.132 208.295L104.546 210.606L105.327 211.567L103.959 212.146L105.524 213.107L103.373 214.649L105.132 215.033L103.568 215.225L103.373 215.996L104.155 215.61L103.177 217.728L102.591 216.765L101.419 216.958L102.396 216.765H101.614L102.201 215.996L101.419 216.572L100.832 215.996L100.05 216.188L101.223 216.572L100.637 217.342L98.8767 218.112L99.6593 218.69L99.073 218.112L100.441 217.536L100.637 218.305L101.809 218.112L102.396 219.268L101.223 219.845H102.591L100.832 220.422L102.786 220.037L103.959 221L102.982 220.808L103.568 221.577L101.027 221L102.591 221.769L101.419 222.348L102.201 222.54L101.419 224.08L102.201 223.502L102.982 224.657L101.614 224.463L102.005 225.234H103.568ZM102.396 210.413L103.568 209.837V206.565H102.396L102.005 207.719L101.419 210.028L102.396 210.413ZM104.546 213.685L104.741 212.724L103.568 213.3L104.546 213.685ZM100.246 222.154L101.419 222.348L100.832 221.191L100.246 222.154ZM104.155 223.117L104.35 221.769L104.936 222.731L105.132 221.962L105.718 223.502L104.155 223.117ZM104.546 218.69L105.132 217.536L108.454 217.728H106.109L104.546 218.69ZM107.868 204.062L109.041 204.832L107.868 205.025V204.062ZM105.132 205.409V204.447L105.914 205.216L105.132 205.409ZM101.223 216.958L102.005 217.342L101.419 217.919L101.223 216.958ZM140.703 176.537L140.509 178.27L139.14 179.616V180.387L138.944 180.773V181.927L138.749 182.312V183.082L138.553 183.466V184.236L138.358 184.621V185.392L138.163 185.777V186.354L137.967 186.739V187.508L137.772 187.893V189.048L137.576 189.433V190.204L137.381 190.589V191.358L137.185 191.551V192.32L136.99 192.705V193.09L136.794 193.476V194.245L136.599 194.63V195.208L136.404 195.592V196.362L136.208 196.748V197.517L136.013 197.902V198.481L135.817 198.864V199.635L139.335 199.057L141.681 197.902L144.417 195.016L144.613 193.476L143.244 192.512L144.221 190.78L141.291 188.471L142.267 184.814L141.876 187.124L143.049 188.664L146.762 190.011L151.648 189.433L156.339 185.199L158.098 181.927L161.812 178.076L161.421 177.115L162.984 178.462L158.294 182.888L162.007 180.194L164.353 177.307H163.766L163.375 177.115H158.685L158.294 176.922H152.821L152.43 176.73H146.177L145.785 176.537H140.703ZM103.764 225.234L106.109 225.62L104.155 226.003V226.774L103.568 225.234H103.764ZM114.709 235.627L117.641 234.858L113.341 233.318L111.777 230.624L108.65 231.201V232.355L110.604 232.547L109.041 233.704L110.995 234.473L110.213 235.05V234.281L109.627 234.665L107.477 233.896L108.845 234.665L107.868 234.858L107.673 234.281L105.718 234.858L114.709 235.627ZM109.041 235.82L110.018 236.59L109.823 236.013H110.995L110.8 236.59L112.363 236.976L110.604 235.627L111.777 235.436L109.041 235.82ZM103.764 233.704L105.327 233.126L103.764 232.355L102.591 232.933L103.568 233.704L104.546 233.318L103.764 233.704ZM103.959 231.972L104.936 232.547L104.546 231.972L106.695 231.008H104.546L103.959 231.972ZM102.005 231.778L103.764 232.355L100.832 231.008L102.005 231.778ZM107.673 233.511L108.845 234.087L108.454 232.741L107.673 233.511ZM107.477 234.087L106.305 233.511V234.087H107.477ZM100.246 225.427H99.4639L99.6593 226.196L100.246 225.427ZM113.145 225.427L113.341 225.62L114.122 225.427H113.145ZM103.764 225.234L106.109 225.62L104.155 226.003V226.774L103.568 225.234H102.005L102.396 226.003L100.832 225.812L102.201 226.196V227.16L102.982 226.196L103.568 226.774L101.809 227.352L102.786 227.735L102.201 228.699L103.373 229.661V228.699L103.764 229.661L103.373 228.506L104.741 229.084L103.177 228.314L104.155 227.735L103.764 228.506L104.936 229.084L104.155 230.432L104.546 229.469L103.959 230.238V229.661H102.591V231.201L104.155 230.624L103.177 231.586L103.959 231.778L104.155 230.624H106.695L106.891 231.778L105.718 232.741L106.109 231.972L104.936 232.355L106.891 233.318L107.868 231.008L111.192 230.046L112.754 230.238L111.777 228.699L110.995 227.735L113.341 225.812L112.95 225.427H107.868L107.282 225.234H103.764ZM114.709 235.627L117.641 234.858L113.341 233.318L111.777 230.624L108.65 231.201V232.355L110.604 232.547L109.041 233.704L110.995 234.473L110.213 235.05V234.281L109.627 234.665L107.477 233.896L108.845 234.665L107.868 234.858L107.673 234.281L105.718 234.858L114.709 235.627ZM109.041 235.82L110.018 236.59L109.823 236.013H110.995L110.8 236.59L112.363 236.976L110.604 235.627L111.777 235.436L109.041 235.82ZM103.764 233.704L105.327 233.126L103.764 232.355L102.591 232.933L103.568 233.704L104.546 233.318L103.764 233.704ZM103.959 231.972L104.936 232.547L104.546 231.972L106.695 231.008H104.546L103.959 231.972ZM102.005 231.778L103.764 232.355L100.832 231.008L102.005 231.778ZM107.673 233.511L108.845 234.087L108.454 232.741L107.673 233.511ZM107.477 234.087L106.305 233.511V234.087H107.477ZM100.246 225.427H99.4639L99.6593 226.196L100.246 225.427Z" fill="#92CEEF"/>
<g id="g7140">
<path id="polygon1055" d="M116.468 134.193L119.204 136.695L118.227 137.658L117.836 136.309L117.054 136.887L114.904 135.54L115.296 133.808L116.468 134.193Z" fill="#92CEEF"/>
<path id="polygon1057" d="M123.504 145.357L122.722 143.817L123.309 142.085L123.504 145.357Z" fill="#92CEEF"/>
<path id="polygon1061" d="M116.468 134.193L119.204 136.695L118.227 137.658L117.836 136.309L117.054 136.887L114.904 135.54L115.296 133.808L116.468 134.193Z" fill="#92CEEF"/>
<path id="polygon1063" d="M123.504 145.357L122.722 143.817L123.309 142.085L123.504 145.357Z" fill="#92CEEF"/>
<path id="polygon1069" d="M180.77 154.017L179.793 153.055L179.207 153.633L179.793 152.863L179.207 151.323L181.161 151.13L180.966 151.708L181.747 152.863L180.38 151.323L179.598 151.901L180.77 154.017Z" fill="#92CEEF"/>
<path id="polygon1071" d="M183.115 146.704H182.334L183.115 145.164L182.138 145.55L183.115 144.201L183.897 146.126L183.115 146.704Z" fill="#92CEEF"/>
<path id="polygon1073" d="M170.412 158.445H172.171L171.78 159.407L170.412 158.445Z" fill="#92CEEF"/>
<path id="polygon1077" d="M180.77 154.017L179.793 153.055L179.207 153.633L179.793 152.863L179.207 151.323L181.161 151.13L180.966 151.708L181.747 152.863L180.38 151.323L179.598 151.901L180.77 154.017Z" fill="#92CEEF"/>
<path id="polygon1079" d="M183.115 146.704H182.334L183.115 145.164L182.138 145.55L183.115 144.201L183.897 146.126L183.115 146.704Z" fill="#92CEEF"/>
<path id="polygon1081" d="M170.412 158.445H172.171L171.78 159.407L170.412 158.445Z" fill="#92CEEF"/>
</g>
<path id="polygon797" d="M19.0693 38.3389L19.4602 37.1841L19.0693 38.3389Z" fill="#92CEEF"/>
<path id="polygon803" d="M19.0693 38.3389L19.4602 37.1841L19.0693 38.3389Z" fill="#92CEEF"/>
<g id="g7294">
<path id="polygon813" d="M26.1711 35.2592L24.9985 35.0668L24.803 36.0292L24.4121 34.2969L26.1711 35.2592Z" fill="#92CEEF"/>
<path id="polygon815" d="M23.0439 30.447L23.4348 30.832L21.6758 30.6395L23.0439 30.447Z" fill="#92CEEF"/>
<path id="polygon825" d="M26.1711 35.2592L24.9985 35.0668L24.803 36.0292L24.4121 34.2969L26.1711 35.2592Z" fill="#92CEEF"/>
<path id="polygon827" d="M23.0439 30.447L23.4348 30.832L21.6758 30.6395L23.0439 30.447Z" fill="#92CEEF"/>
<path id="polygon837" d="M48.8429 40.2635L50.6019 41.8034L48.6475 41.4184L48.8429 40.2635Z" fill="#92CEEF"/>
<path id="polygon839" d="M66.6286 51.0424L67.0195 52.0047L65.6514 51.4273L66.6286 51.0424Z" fill="#92CEEF"/>
<path id="polygon841" d="M68.1924 52.1974L70.9286 55.0845L68.1924 54.3146V52.1974Z" fill="#92CEEF"/>
<path id="polygon855" d="M48.8429 40.2635L50.6019 41.8034L48.6475 41.4184L48.8429 40.2635Z" fill="#92CEEF"/>
<path id="polygon857" d="M66.6286 51.0424L67.0195 52.0047L65.6514 51.4273L66.6286 51.0424Z" fill="#92CEEF"/>
<path id="polygon859" d="M68.1924 52.1974L70.9286 55.0845L68.1924 54.3146V52.1974Z" fill="#92CEEF"/>
</g>
<path id="path11282" d="M3.30344 6.38757L4.28068 1.76812L7.40783 3.30794L7.2124 6.1951H8.38507L8.97142 6.00262L25.5845 5.23271L25.7799 5.04023L30.2863 5.11005L27.045 7.53144L25.0718 6.38374L24.9092 4.0692L24.0957 2.90238L22.3692 1.09993L18.4866 1.19003L17.6309 2.34242L12.0457 2.65158L5.33535 0L0.842617 0.643182L0.567166 6.58005H2.52165L2.91254 6.38757H3.30344ZM117.184 10.6221L116.989 11.9694L116.208 11.1995L117.184 10.6221ZM117.184 10.6221L116.989 11.9694L116.208 11.1995L117.184 10.6221ZM93.6003 13.7017L94.1866 13.8942L94.773 12.1619L93.2094 11.1995L94.3821 12.1619L93.6003 13.7017ZM97.1183 16.2039V17.1663V15.819L95.3593 14.6641L97.1183 16.2039ZM91.842 17.9362L92.623 16.9738L91.2549 15.6265L90.6686 17.3588L91.842 17.9362ZM93.6003 13.7017L94.1866 13.8942L94.773 12.1619L93.2094 11.1995L94.3821 12.1619L93.6003 13.7017ZM97.1183 16.2039V17.1663V15.819L95.3593 14.6641L97.1183 16.2039ZM91.842 17.9362L92.623 16.9738L91.2549 15.6265L90.6686 17.3588L91.842 17.9362ZM93.2094 18.8986H92.4276L92.8185 18.1287L92.0367 18.5136L92.8185 19.2836L93.2094 18.8986ZM93.2094 18.8986H92.4276L92.8185 18.1287L92.0367 18.5136L92.8185 19.2836L93.2094 18.8986ZM77.3781 25.8278L78.7462 25.4428L78.3554 24.6729L77.5736 24.4804L77.3781 25.8278ZM86.1732 21.5933L83.0461 21.0159L74.8373 22.3632L73.8601 24.288L72.101 24.6729H74.6418L78.3554 22.3632H80.8962L81.4825 22.9406L79.9189 23.1331L80.8962 23.7105L85.9778 24.6729V23.1331L86.1732 22.9406V21.5933ZM77.3781 25.8278L78.7462 25.4428L78.3554 24.6729L77.5736 24.4804L77.3781 25.8278ZM111.386 35.2592L112.754 33.9118L118.813 34.6817L119.595 33.5269L115.881 32.1795L117.249 31.6021H115.49L114.709 30.4472L106.5 29.6773L104.741 30.4472L106.891 31.0247L106.5 32.1795L107.868 33.7194L102.591 33.3344L101.809 33.9118L103.568 35.0667L108.845 34.4893L110.604 36.2216L111.386 35.2592ZM126.435 35.4517L127.413 34.2968H122.722L122.917 35.4517H126.435ZM139.53 41.226L140.703 40.4561L139.727 39.6862L138.749 40.2636L139.53 41.226ZM105.523 26.9827L105.913 26.0203L103.959 26.7902L105.523 26.9827ZM85.9778 24.6729L89.4959 25.2504L91.2549 27.5601L93.7957 27.7526L94.1866 28.7149L92.4276 30.0623L100.245 29.8698L102.786 28.9074L98.0956 27.7526L98.2918 26.5977L94.773 26.0203L86.7604 21.7858L86.1732 21.5933V22.9406L85.9778 23.1331V24.6729ZM111.386 35.2592L112.754 33.9118L118.813 34.6817L119.595 33.5269L115.881 32.1795L117.249 31.6021H115.49L114.709 30.4472L106.5 29.6773L104.741 30.4472L106.891 31.0247L106.5 32.1795L107.868 33.7194L102.591 33.3344L101.809 33.9118L103.568 35.0667L108.845 34.4893L110.604 36.2216L111.386 35.2592ZM126.435 35.4517L127.413 34.2968H122.722L122.917 35.4517H126.435ZM139.53 41.226L140.703 40.4561L139.727 39.6862L138.749 40.2636L139.53 41.226ZM105.523 26.9827L105.913 26.0203L103.959 26.7902L105.523 26.9827ZM111.386 35.2592L112.755 33.9118L118.813 34.6817L119.595 33.5269L115.881 32.1795L117.249 31.6021H115.49L114.709 30.4472L106.5 29.6773L104.741 30.4472L106.892 31.0247L106.501 32.1795L107.87 33.7194L102.592 33.3344L101.811 33.9118L103.57 35.0667L108.846 34.4893L110.605 36.2216L111.386 35.2592ZM137.771 58.3565L136.599 57.2016L139.531 56.2392H132.494L134.253 56.8166L130.149 57.9715L126.632 56.2392L120.964 56.6242L120.182 54.6994L116.468 53.737L115.1 51.6197L114.512 53.352L115.881 53.1596V53.9295L114.904 53.5445L110.604 55.6618L111.777 57.9715M85.9778 24.6729L89.4959 25.2504L91.2549 27.5601L93.7957 27.7526L94.1858 28.7149L92.4268 30.0623L100.245 29.8698L102.786 28.9074L98.0956 27.7526L98.291 26.5977L94.773 26.0203L86.7596 21.7858L86.1724 21.5933M109.236 57.9715L110.604 56.0467L109.432 53.5445L111.973 52.0047L110.214 50.8498L105.523 54.3144L102.787 54.122L102.396 55.0843L100.637 54.6994L99.4653 55.6618L98.0972 57.5865V57.9715M93.6003 13.7017L94.1866 13.8942L94.7738 12.1619L93.2102 11.1995L94.3821 12.1619L93.6003 13.7017ZM142.071 57.9715L142.266 56.0467L140.116 56.2392L140.702 57.5865L139.334 58.164L142.071 57.9715ZM93.2094 18.8986H92.4268L92.8185 18.1287L92.0367 18.5136L92.8185 19.2836L93.2094 18.8986ZM97.1183 16.2039V17.1663V15.819L95.3593 14.6641L97.1183 16.2039ZM126.435 35.4517L127.413 34.2968H122.721L122.917 35.4517H126.435ZM91.842 17.9362L92.623 16.9738L91.2549 15.6265L90.6686 17.3588L91.842 17.9362ZM139.53 41.226L140.702 40.4561L139.726 39.6862L138.749 40.2636L139.53 41.226ZM105.523 26.9827L105.913 26.0203L103.959 26.7902L105.523 26.9827ZM0.567166 6.58005V7.15749L2.91254 10.2371L1.73985 11.7769L2.3262 12.3544H0.17627L2.13075 14.6641L3.30344 13.8942L4.67158 16.2039L3.69434 19.476L7.01694 22.5557L7.2124 24.288L8.77597 23.3256L8.58052 21.2083L6.82149 20.4384V14.8566L5.06247 11.9694L5.25792 10.2371L3.30344 6.38757M7.2124 6.1951V8.69731L8.58052 11.1995H9.94866L9.36231 12.7393L11.9031 15.2415L10.7304 16.7814L13.2713 18.3212V19.2836L16.7893 23.7105L17.962 27.5601L16.5939 29.4849L17.3757 29.8698L16.0075 30.4472L16.3984 31.4096L20.5028 36.0291L24.4118 36.799L26.3663 38.7238L29.1025 39.6862M6.62606 8.69731L6.82149 9.27474L7.2124 8.11987L6.62606 8.69731ZM6.62606 8.69731L6.82149 9.27474L7.2124 8.11987L6.62606 8.69731ZM7.2124 6.1951V8.69731L8.58052 11.1995H9.94866L9.36231 12.7393L11.9031 15.2415L10.7304 16.7814L13.2713 18.3212V19.2836L16.7893 23.7105L17.962 27.5601L16.5939 29.4849L17.3757 29.8698L16.0075 30.4472L16.3984 31.4096L20.5028 36.0291L24.4118 36.799L26.3663 38.7238L29.1025 39.6862V39.1087L29.298 38.7238L34.3796 11.007V10.6221L34.5751 10.2371V9.46722L34.7705 9.08226L29.8954 6.26491L30.0909 5.87996V5.495L30.2863 5.11005L25.7799 5.04023L25.5845 5.23271L8.97142 6.00262L8.38507 6.1951H7.2124ZM0.567166 6.58005V7.15749L2.91254 10.2371L1.73985 11.7769L2.3262 12.3544H0.17627L2.13075 14.6641L3.30344 13.8942L4.67158 16.2039L3.69434 19.476L7.01694 22.5557L7.2124 24.288L8.77597 23.3256L8.58052 21.2083L6.82149 20.4384V14.8566L5.06247 11.9694L5.25792 10.2371L3.30344 6.38757H2.91254L2.52165 6.58005H0.567166ZM6.62606 8.69731L6.82149 9.27474L7.2124 8.11987L6.62606 8.69731ZM70.1465 58.164L69.3647 57.3941L70.7329 58.164H76.2054L73.6646 54.3144L76.01 45.653L75.4236 42.9583L70.7329 41.0335L61.7423 41.9959L59.5924 41.4184L58.7394 41.4228L59.5402 36.0101L61.075 34.2358L61.8708 34.3264L62.7195 33.1419L63.1104 34.8742L64.674 31.0247L63.6968 30.8322L66.8239 26.2127L63.1104 25.6353L57.0515 27.1751L55.2925 31.9871L52.7517 34.4893L50.6018 33.9118L44.7383 35.8366L42.7839 34.1043H41.0248L37.1159 25.0579V23.7105L38.0931 18.5136L38.484 16.5889L39.6567 16.2039L39.2658 17.1663L40.6339 14.6641L36.1482 13.653L35.4449 10.6548L32.5008 5.53458L30.2863 5.11005L30.0909 5.495V5.87996L29.8954 6.26491L34.7705 9.08226L34.5751 9.46722V10.2371L34.3796 10.6221V11.007L29.298 38.7238L29.1025 39.1087V39.6862L37.8977 42.7658L44.3475 41.226L52.3608 47.1928L60.3742 49.31L59.5924 48.9251L63.5013 48.3476L63.6968 49.8875H62.5241L68.1921 55.0843L67.4103 55.6618L68.1921 56.0467V58.164H70.1465ZM85.0006 65.2856L83.6333 63.1684L85.0006 62.3985V61.4361L85.1968 60.8587V59.7038L81.8742 61.6286L79.3326 60.4737L79.7235 61.2436L78.3554 61.0511L76.2054 58.164H70.7329L70.9283 58.3565L74.2509 61.0511V62.7834H75.2282L74.8373 61.821L76.4009 63.9383L76.7918 62.9759L79.7235 63.3609L80.5053 64.9007L81.8742 64.1308L82.2643 66.248H83.6333L85.0006 65.2856ZM68.1921 58.164V58.5489L69.7556 59.5113L70.5374 58.7414L70.1465 58.164H68.1921Z" fill="#92CEEF"/>
</g>
</g>
</svg>
