<svg width="20" height="20" viewBox="0 0 20 20" fill="none" xmlns="http://www.w3.org/2000/svg">
<path d="M14.1666 9.16665H14.9999C15.2209 9.16665 15.4329 9.07885 15.5892 8.92257C15.7455 8.76629 15.8333 8.55433 15.8333 8.33331V7.49998C15.8333 7.27897 15.7455 7.067 15.5892 6.91072C15.4329 6.75444 15.2209 6.66665 14.9999 6.66665H14.1666C13.9456 6.66665 13.7336 6.75444 13.5773 6.91072C13.421 7.067 13.3333 7.27897 13.3333 7.49998V8.33331C13.3333 8.55433 13.421 8.76629 13.5773 8.92257C13.7336 9.07885 13.9456 9.16665 14.1666 9.16665ZM4.99992 9.99998H9.16658C9.3876 9.99998 9.59956 9.91218 9.75584 9.7559C9.91212 9.59962 9.99992 9.38766 9.99992 9.16665C9.99992 8.94563 9.91212 8.73367 9.75584 8.57739C9.59956 8.42111 9.3876 8.33331 9.16658 8.33331H4.99992C4.7789 8.33331 4.56694 8.42111 4.41066 8.57739C4.25438 8.73367 4.16658 8.94563 4.16658 9.16665C4.16658 9.38766 4.25438 9.59962 4.41066 9.7559C4.56694 9.91218 4.7789 9.99998 4.99992 9.99998ZM18.3333 3.33331H1.66659C1.44557 3.33331 1.23361 3.42111 1.07733 3.57739C0.921049 3.73367 0.833252 3.94563 0.833252 4.16665V15.8333C0.833252 16.0543 0.921049 16.2663 1.07733 16.4226C1.23361 16.5788 1.44557 16.6666 1.66659 16.6666H18.3333C18.5543 16.6666 18.7662 16.5788 18.9225 16.4226C19.0788 16.2663 19.1666 16.0543 19.1666 15.8333V4.16665C19.1666 3.94563 19.0788 3.73367 18.9225 3.57739C18.7662 3.42111 18.5543 3.33331 18.3333 3.33331V3.33331ZM17.4999 15H2.49992V4.99998H17.4999V15ZM4.99992 13.3333H9.16658C9.3876 13.3333 9.59956 13.2455 9.75584 13.0892C9.91212 12.933 9.99992 12.721 9.99992 12.5C9.99992 12.279 9.91212 12.067 9.75584 11.9107C9.59956 11.7544 9.3876 11.6666 9.16658 11.6666H4.99992C4.7789 11.6666 4.56694 11.7544 4.41066 11.9107C4.25438 12.067 4.16658 12.279 4.16658 12.5C4.16658 12.721 4.25438 12.933 4.41066 13.0892C4.56694 13.2455 4.7789 13.3333 4.99992 13.3333Z" fill="#1B83F2"/>
</svg>
